<svg xmlns="http://www.w3.org/2000/svg" width="19.686" height="24" viewBox="0 0 19.686 24"><defs><style>.a{fill:#fff;}</style></defs><path class="a" d="M52.549,136.308c-3.572-.02-6.527-7.264-6.527-10.953,0-6.026,4.55-7.345,6.3-7.345a7.293,7.293,0,0,1,2.379.581,5.344,5.344,0,0,0,1.358.387,4.247,4.247,0,0,0,.974-.314,7.851,7.851,0,0,1,2.937-.705h.007a6.035,6.035,0,0,1,5.037,2.527l.367.548-.529.4a4.416,4.416,0,0,0-2.133,3.645,4.113,4.113,0,0,0,2.311,3.8c.331.2.674.4.674.848,0,.291-2.34,6.546-5.738,6.546a4.639,4.639,0,0,1-1.938-.467,3.95,3.95,0,0,0-1.725-.413,4.459,4.459,0,0,0-1.366.367,6.726,6.726,0,0,1-2.369.549Z" transform="translate(-46.022 -112.308)"/><path class="a" d="M259.762,0c.09,3.261-2.242,5.523-4.571,5.381C254.807,2.779,257.52,0,259.762,0Z" transform="translate(-245.415)"/></svg>