<svg xmlns="http://www.w3.org/2000/svg" xmlns:xlink="http://www.w3.org/1999/xlink" width="22.058" height="15.318" viewBox="0 0 22.058 15.318">
  <defs>
    <clipPath id="clip-path">
      <rect id="Rectangle_41" data-name="Rectangle 41" width="22.058" height="15.318" fill="#fff"/>
    </clipPath>
  </defs>
  <g id="arrow" transform="translate(-15.054 -4.371)">
    <g id="Group_177" data-name="Group 177" transform="translate(15.054 4.371)">
      <g id="Group_176" data-name="Group 176" clip-path="url(#clip-path)">
        <path id="Path_760" data-name="Path 760" d="M401.437,291.226a.761.761,0,0,0-1.081,1.071l5.479,5.478H387.758a.754.754,0,0,0-.758.758.764.764,0,0,0,.758.768h18.077l-5.479,5.465a.776.776,0,0,0,0,1.081.758.758,0,0,0,1.081,0l6.775-6.775a.742.742,0,0,0,0-1.067Zm0,0" transform="translate(-387 -291)" fill="#fff"/>
      </g>
    </g>
  </g>
</svg>
