<svg xmlns="http://www.w3.org/2000/svg" width="14.9" height="13.41" viewBox="0 0 14.9 13.41"><defs><style>.a{fill:#924781;}</style></defs><g transform="translate(0 0)"><circle class="a" cx="2.384" cy="2.384" r="2.384" transform="translate(5.066 5.066)"/><path class="a" d="M5.215,25.5,3.874,26.99H1.49A1.494,1.494,0,0,0,0,28.48v8.94a1.494,1.494,0,0,0,1.49,1.49H13.41a1.494,1.494,0,0,0,1.49-1.49V28.48a1.494,1.494,0,0,0-1.49-1.49H11.026L9.685,25.5ZM7.45,36.675a3.725,3.725,0,1,1,3.725-3.725A3.689,3.689,0,0,1,7.45,36.675Z" transform="translate(0 -25.5)"/></g></svg>