<svg xmlns="http://www.w3.org/2000/svg" width="17.953" height="21.34" viewBox="0 0 17.953 21.34"><defs><style>.a{fill:#82296e;stroke:#82296e;stroke-width:0.5px;}</style></defs><path class="a" d="M48.043,13.311a2,2,0,0,0,.91,1.47.347.347,0,0,1,.126.422,3.33,3.33,0,0,1-4.643,1.574.347.347,0,1,1,.334-.609,2.635,2.635,0,0,0,3.546-.993,2.682,2.682,0,0,1-.937-1.6A4.665,4.665,0,0,1,41.388,9.2c0-.024,0-.8,0-2.944a.347.347,0,0,1,.695,0V9.123a3.951,3.951,0,0,0,7.9,0V6.5a3.184,3.184,0,0,1-1.7-1.5,9.312,9.312,0,0,1-4.472,1.634.347.347,0,0,1-.064-.692A8.622,8.622,0,0,0,48.21,4.2a.348.348,0,0,1,.537.155,2.61,2.61,0,0,0,1.748,1.594.347.347,0,0,1,.182.269c0,.031,0,2.941,0,2.945A4.652,4.652,0,0,1,48.043,13.311ZM43.48,14.478c-.445.465-.822.518-2.483,1.091V4.667A3.977,3.977,0,0,1,44.97.695h2.171a3.977,3.977,0,0,1,3.973,3.973v7.174a.347.347,0,0,0,.695,0V4.667A4.673,4.673,0,0,0,47.141,0H44.97A4.672,4.672,0,0,0,40.3,4.667V15.873A2.7,2.7,0,0,0,39,18.181v2.311a.347.347,0,0,0,.695,0V18.181a2,2,0,0,1,1.35-1.894c1.926-.664,2.367-.733,2.937-1.329a.347.347,0,1,0-.5-.48Zm11.584-1.236a.347.347,0,0,0,.347.347.348.348,0,0,1,.347.347v.478H52.217a.347.347,0,1,0,0,.695h3.542V19.8a.348.348,0,0,1-.347.347H50.9a.348.348,0,0,1-.347-.347V13.937a.348.348,0,0,1,.347-.347h1.476a.347.347,0,0,0,.347-.347v-.087a.434.434,0,1,1,.868,0v.087a.347.347,0,1,0,.695,0v-.087a1.129,1.129,0,0,0-2.227-.26H50.9a1.043,1.043,0,0,0-1.042,1.042V19.8A1.043,1.043,0,0,0,50.9,20.84h4.515A1.043,1.043,0,0,0,56.453,19.8V13.937C56.453,12.9,55.064,12.576,55.064,13.242Z" transform="translate(-38.75 0.25)"/></svg>