<svg xmlns="http://www.w3.org/2000/svg" width="26.546" height="20.438" viewBox="0 0 26.546 20.438">
  <path id="email" d="M24.836,72.161a1.01,1.01,0,0,0,1.01-1.01V64.538A4.043,4.043,0,0,0,21.807,60.5H4.038A4.043,4.043,0,0,0,0,64.538V76.2a4.043,4.043,0,0,0,4.038,4.038H21.807A4.043,4.043,0,0,0,25.846,76.2a1.01,1.01,0,0,0-2.019,0,2.021,2.021,0,0,1-2.019,2.019H4.038A2.021,2.021,0,0,1,2.019,76.2V64.752l8.771,5.454a4.014,4.014,0,0,0,4.265,0l8.771-5.454v6.4A1.01,1.01,0,0,0,24.836,72.161ZM13.989,68.492a2.007,2.007,0,0,1-2.132,0l-9-5.593a2.008,2.008,0,0,1,1.177-.379H21.807a2.008,2.008,0,0,1,1.177.379Z" transform="translate(0.35 -60.15)" fill="#fff" stroke="#fbb017" stroke-width="0.7"/>
</svg>
