<svg
    xmlns="http://www.w3.org/2000/svg"
    width="24.097"
    height="20.839"
    viewBox="0 0 24.097 20.839"
    fill="#82296e"
  >
    <path d="M22.428,17.081H1.669A1.671,1.671,0,0,0,0,18.75V32.834A1.671,1.671,0,0,0,1.669,34.5h12.1l-.365,2.229a.963.963,0,0,0,1.453,1.047L17.473,36.4a.549.549,0,0,1,.347,0l2.612,1.375a1.165,1.165,0,0,0,.541.141.916.916,0,0,0,.541-.171,1.013,1.013,0,0,0,.371-1.017L21.519,34.5h.909A1.671,1.671,0,0,0,24.1,32.834V18.75A1.671,1.671,0,0,0,22.428,17.081ZM17.647,31.642a2.909,2.909,0,1,1,2.909-2.909A2.913,2.913,0,0,1,17.647,31.642Zm.84,3.5a1.931,1.931,0,0,0-1.679,0l-1.846.972.587-3.581a4.329,4.329,0,0,0,4.2,0l.229,1.4v.007l.357,2.178Zm4.18-2.3a.242.242,0,0,1-.238.238H21.284l-.261-1.594c0-.006,0-.012,0-.019a4.34,4.34,0,1,0-6.745,0c0,.006,0,.012,0,.019l-.261,1.6H1.669a.242.242,0,0,1-.238-.238V18.75a.242.242,0,0,1,.238-.238H22.428a.242.242,0,0,1,.238.238Z" />
    <path d="M48.049,60.243H31.834a.715.715,0,1,0,0,1.431H48.049a.715.715,0,0,0,0-1.431Z" transform="translate(-28.151 -56.126)" />
    <path d="M38.7,100.911H31.834a.715.715,0,1,0,0,1.431H38.7a.715.715,0,1,0,0-1.431Z" transform="translate(-28.151 -92.915)" />
  </svg>