<svg xmlns="http://www.w3.org/2000/svg" width="16.232" height="20.84" viewBox="0 0 16.232 20.84"><defs><style>.a{fill:#82296e;}</style></defs><path class="a" d="M156.676,80.755a.611.611,0,0,0,.876,0l2.963-3.052a2.783,2.783,0,0,0,0-3.868,2.686,2.686,0,0,0-3.4-.377,2.565,2.565,0,0,0-1.467-.439,2.758,2.758,0,0,0-1.934,4.684Zm-2.089-6.066a1.459,1.459,0,0,1,2.091-.015.611.611,0,0,0,.873,0,1.459,1.459,0,0,1,2.09.015,1.555,1.555,0,0,1-.032,2.194l-2.5,2.57-2.5-2.57A1.555,1.555,0,0,1,154.587,74.69Z" transform="translate(-149.006 -70.044)"/><path class="a" d="M72.227,0H57.216a.611.611,0,0,0-.611.611v19.6a.611.611,0,0,0,.981.485l7.134-5.458,7.134,5.471a.611.611,0,0,0,.982-.484V.61A.611.611,0,0,0,72.227,0Zm-.611,18.991-6.523-5a.61.61,0,0,0-.742,0l-6.524,4.991V1.221h13.79Z" transform="translate(-56.606 0)"/></svg>