<svg xmlns="http://www.w3.org/2000/svg" width="24" height="24" viewBox="0 0 24 24"><defs><style>.a{fill:#fbbd00;}.b{fill:#0f9d58;}.c{fill:#31aa52;}.d{fill:#3c79e6;}.e{fill:#cf2d48;}.f{fill:#eb4132;}</style></defs><path class="a" d="M5.694,107.46a6.192,6.192,0,0,1,.908-3.231v-4.014h-4.1a11.724,11.724,0,0,0,0,14.49H6.6v-4.014A6.192,6.192,0,0,1,5.694,107.46Z" transform="translate(0 -95.46)"/><path class="b" d="M198.847,373.864,196,376.711l2.847,2.847a12.055,12.055,0,0,0,7.392-2.506v-4.091h-4.091A6.453,6.453,0,0,1,198.847,373.864Z" transform="translate(-186.894 -355.558)"/><path class="c" d="M56.918,325.477l-4.1,4.1a12.34,12.34,0,0,0,1.051,1.2,12.068,12.068,0,0,0,8.589,3.558v-5.694A6.456,6.456,0,0,1,56.918,325.477Z" transform="translate(-50.317 -310.327)"/><path class="d" d="M268.147,200.108a12.255,12.255,0,0,0-.2-2.2l-.107-.584H256v5.694h5.763a6.424,6.424,0,0,1-2.462,2.64l4.091,4.091a12.342,12.342,0,0,0,1.2-1.051A12.068,12.068,0,0,0,268.147,200.108Z" transform="translate(-244.147 -188.255)"/><path class="e" d="M203.41,7.584l.5.5,4.026-4.026-.5-.5A12.067,12.067,0,0,0,198.847,0L196,2.847l2.847,2.847A6.411,6.411,0,0,1,203.41,7.584Z" transform="translate(-186.994)"/><path class="f" d="M62.463,5.694V0a12.068,12.068,0,0,0-8.589,3.558,12.329,12.329,0,0,0-1.051,1.2l4.1,4.1a6.456,6.456,0,0,1,5.545-3.156Z" transform="translate(-50.316 0)"/></svg>