<svg xmlns="http://www.w3.org/2000/svg" width="13.538" height="14.605" viewBox="0 0 13.538 14.605"><defs><style>.a{fill:#9f8b9b;}</style></defs><g transform="translate(-125 677)"><g transform="translate(125 -677)"><path class="a" d="M23.741,13.768H19.931a1.878,1.878,0,0,1-1.875-1.875V2.712A1.878,1.878,0,0,1,19.931.837H23.8A.418.418,0,1,0,23.8,0H19.931a2.715,2.715,0,0,0-2.712,2.712v9.181a2.715,2.715,0,0,0,2.712,2.712h3.809a.418.418,0,0,0,0-.837Z" transform="translate(-17.219)"/><path class="a" d="M130.732,139.108l-2.659-2.659a.419.419,0,0,0-.592.592l1.947,1.947h-8.49a.418.418,0,1,0,0,.837h8.49l-1.947,1.947a.42.42,0,0,0,.294.716.408.408,0,0,0,.294-.124l2.659-2.659A.418.418,0,0,0,130.732,139.108Z" transform="translate(-117.317 -132.099)"/></g></g></svg>