<svg xmlns="http://www.w3.org/2000/svg" width="17.321" height="20.438" viewBox="0 0 17.321 20.438">
  <g id="name" transform="translate(-43.65 -301.65)">
    <path id="Path_6" data-name="Path 6" d="M18.18,19.738h-2A6.223,6.223,0,0,0,9.869,13.62a6.223,6.223,0,0,0-6.31,6.118h-2A8.225,8.225,0,0,1,9.87,11.62,8.225,8.225,0,0,1,18.18,19.738Z" transform="translate(42.441 302)" fill="#fff" stroke="#fbb017" stroke-width="0.7"/>
    <path id="Path_7" data-name="Path 7" d="M9.87,10.97a5.485,5.485,0,1,1,5.486-5.485A5.492,5.492,0,0,1,9.87,10.97ZM9.87,2a3.485,3.485,0,1,0,3.486,3.485A3.488,3.488,0,0,0,9.87,2Z" transform="translate(42.441 302)" fill="#fff" stroke="#fbb017" stroke-width="0.7"/>
  </g>
</svg>
