<svg xmlns="http://www.w3.org/2000/svg" width="15.503" height="20.438" viewBox="0 0 15.503 20.438">
  <g id="password" transform="translate(0.35 0.35)">
    <path id="Path_2" data-name="Path 2" d="M9.046,0H5.757a3.293,3.293,0,0,0-3.29,3.29V7.4H1.645A1.646,1.646,0,0,0,0,9.046v9.046a1.646,1.646,0,0,0,1.645,1.645H13.159A1.646,1.646,0,0,0,14.8,18.093V9.046A1.646,1.646,0,0,0,13.159,7.4h-.822V3.29A3.293,3.293,0,0,0,9.046,0ZM4.112,3.29A1.646,1.646,0,0,1,5.757,1.645h3.29A1.646,1.646,0,0,1,10.691,3.29V7.4H4.112Zm9.046,14.8H1.645V9.046H13.159Zm0,0" fill="#fff" stroke="#fbb017" stroke-width="0.7"/>
    <path id="Path_3" data-name="Path 3" d="M98.467,200a2.466,2.466,0,0,0-.822,4.79v.966a.822.822,0,0,0,1.645,0v-.966a2.466,2.466,0,0,0-.822-4.79Zm0,3.29a.822.822,0,1,1,.822-.822A.823.823,0,0,1,98.467,203.29Zm0,0" transform="translate(-91.066 -189.72)" fill="#fff" stroke="#fbb017" stroke-width="0.7"/>
  </g>
</svg>
