<svg xmlns="http://www.w3.org/2000/svg" width="20.841" height="20.839" viewBox="0 0 20.841 20.839"><defs><style>.a{fill:#82296e;}</style></defs><path class="a" d="M20.751,19.08c-.01-.025-.478-1.043-2.23-4.858V6.5h1.058A1.222,1.222,0,0,0,20.8,5.28V1.251A1.222,1.222,0,0,0,19.579.03H12.334a1.222,1.222,0,0,0-1.221,1.221V3.327H3.543A1.222,1.222,0,0,0,2.322,4.548v9.674L.105,19.044a1.312,1.312,0,0,0,1.209,1.825H19.527a1.314,1.314,0,0,0,1.224-1.789ZM12.334,1.251h7.245V5.28h-5.25a.61.61,0,0,0-.324.093L12.334,6.417Zm-8.791,3.3h7.57V7.519a.611.611,0,0,0,.934.518L14.5,6.5h2.8v7.245H3.543Zm4.778,15.1.432-1.425h3.335l.432,1.425Zm11.206,0H13.8l-.68-2.217A.61.61,0,0,0,12.538,17H8.305a.611.611,0,0,0-.583.428l-.68,2.217H1.314a.092.092,0,0,1-.089-.115l2.1-4.566h14.2l2.1,4.565a.092.092,0,0,1-.089.115Z" transform="translate(0 -0.03)"/><path class="a" d="M117.116,156.124a1.913,1.913,0,1,0-3.007,0,2.562,2.562,0,0,0-1.061,2.075v.651a.611.611,0,0,0,.611.611h3.907a.611.611,0,0,0,.611-.611V158.2A2.562,2.562,0,0,0,117.116,156.124Zm-2.2-1.181a.692.692,0,1,1,.692.692A.693.693,0,0,1,114.92,154.943Zm2.035,3.3h-2.686a1.344,1.344,0,1,1,2.686,0Z" transform="translate(-108.447 -146.803)"/><path class="a" d="M337.659,66.251h3.256a.611.611,0,0,0,0-1.221h-3.256a.611.611,0,0,0,0,1.221Z" transform="translate(-323.33 -62.384)"/><path class="a" d="M273.659,226.251h2.279a.611.611,0,0,0,0-1.221h-2.279a.611.611,0,0,0,0,1.221Z" transform="translate(-261.935 -215.872)"/><path class="a" d="M277.24,281.03h-3.582a.611.611,0,0,0,0,1.221h3.582a.611.611,0,0,0,0-1.221Z" transform="translate(-261.935 -269.593)"/></svg>