<svg id="botany" xmlns="http://www.w3.org/2000/svg" width="60.388" height="60.049" viewBox="0 0 60.388 60.049">
  <path id="Path_57415" data-name="Path 57415" d="M11.535,181.689l-8.142-3.053L9.5,177.617l-4.071-9.16,5.089,4.071,3.053-3.053v8.142l5.089,8.142s4.071-9.16-1.018-16.284-16.284-8.142-16.284-8.142-3.053,11.2,0,18.32,13.231,7.124,13.231,7.124Z" transform="translate(0 -140.977)" fill="#a0d92a"/>
  <path id="Path_57416" data-name="Path 57416" d="M124.761,393.333l-1.756,2.809a2.738,2.738,0,0,0-.305,2.28H109.6a4.068,4.068,0,0,0,3.935,5.089H125.4V393.333Z" transform="translate(-95.542 -343.462)" fill="#2580a6"/>
  <path id="Path_57417" data-name="Path 57417" d="M237.364,398.422a2.589,2.589,0,0,0,.122-.794,2.807,2.807,0,0,0-.427-1.486l-1.756-2.809h-.636v10.178h11.86a4.068,4.068,0,0,0,3.935-5.089Z" transform="translate(-204.812 -343.462)" fill="#20557d"/>
  <path id="Path_57418" data-name="Path 57418" d="M237.058,171.266a2.821,2.821,0,0,1-2.392,4.315v8.142h1.018v1.4a4.044,4.044,0,0,1,3.053-1.4h2.036A4.071,4.071,0,0,1,236.7,187.8h-1.018v3.053H235.3l1.756,2.809a2.807,2.807,0,0,1,.427,1.486,2.589,2.589,0,0,1-.122.794h13.1a4.13,4.13,0,0,0-.263-.739l-8.408-17.581V165.4a2.036,2.036,0,0,0,0-4.071h-7.124v6.107Z" transform="translate(-204.811 -140.977)" fill="#aebbc4"/>
  <path id="Path_57419" data-name="Path 57419" d="M123.914,193.658l1.756-2.809h-.382V185.76H124.27a4.071,4.071,0,0,1-4.071-4.071h2.036a4.054,4.054,0,0,1,3.506,2.036h.565v-8.142a2.821,2.821,0,0,1-2.392-4.315l2.392-3.827v-6.107h-7.124a2.036,2.036,0,0,0,0,4.071v12.213L110.773,195.2a4.108,4.108,0,0,0-.263.739h13.1A2.738,2.738,0,0,1,123.914,193.658Zm-7.893.7-1.821-.91,1.018-2.036,1.821.91Zm2.036-4.071-1.821-.91,2.036-4.071,1.821.91Z" transform="translate(-96.451 -140.977)" fill="#d0dfea"/>
  <path id="Path_57420" data-name="Path 57420" d="M212.894,213.16a2.821,2.821,0,0,0,2.392,4.315v-8.142Z" transform="translate(-185.431 -182.871)" fill="#2580a6"/>
  <path id="Path_57421" data-name="Path 57421" d="M237.058,213.16l-2.392-3.827v8.142A2.82,2.82,0,0,0,237.058,213.16Z" transform="translate(-204.811 -182.871)" fill="#20557d"/>
  <path id="Path_57422" data-name="Path 57422" d="M243.107,76.517l-1.527-1.527-5.9,5.9h-1.018V81.9h3.053Z" transform="translate(-204.812 -65.619)" fill="#d0dfea"/>
  <path id="Path_57423" data-name="Path 57423" d="M311.2,14.8l-2.837,2.812,1.524,1.524,3.348-3.319a3.584,3.584,0,0,0-2.024-6.093A3.6,3.6,0,0,1,311.2,14.8Z" transform="translate(-269.136 -8.657)" fill="#20557d"/>
  <path id="Path_57424" data-name="Path 57424" d="M241.581,64.517l-1.527-1.527-5.387,5.387v2.036h1.018Z" transform="translate(-204.812 -55.146)" fill="#fff"/>
  <path id="Path_57425" data-name="Path 57425" d="M286.751,14.536a3.6,3.6,0,0,0,.011-5.075,3.582,3.582,0,0,0-3.065,1l-3.348,3.319,3.565,3.565Z" transform="translate(-244.682 -8.393)" fill="#2580a6"/>
  <path id="Path_57426" data-name="Path 57426" d="M320.484,237.418c-6.107,5.089-3.053,12.178-3.053,12.178l4.071-4.035,2.036-6.107,1.018,3.053,7.124-3.053-10.178,11.2a8.078,8.078,0,0,0,9.16-1.018c6.107-5.089,5.089-14.249,5.089-14.249S326.59,232.329,320.484,237.418Z" transform="translate(-276.38 -204.813)" fill="#a0d92a"/>
  <g id="Group_65905" data-name="Group 65905" transform="translate(23.748 40.711)">
    <path id="Path_57427" data-name="Path 57427" d="M243.685,341.4a4.071,4.071,0,0,0,4.071-4.071H245.72a4.044,4.044,0,0,0-3.053,1.4V341.4Z" transform="translate(-235.543 -335.297)" fill="#f1e200"/>
    <path id="Path_57428" data-name="Path 57428" d="M192.209,323.369a4.054,4.054,0,0,0-3.506-2.036h-2.036a4.071,4.071,0,0,0,4.071,4.071h1.018v-2.036Z" transform="translate(-186.667 -321.333)" fill="#f1e200"/>
  </g>
  <path id="Path_57429" data-name="Path 57429" d="M122.087,21.842a5.033,5.033,0,0,1-2.417-.636,5.073,5.073,0,1,0,6.869-6.869,5.032,5.032,0,0,1,.636,2.417A5.089,5.089,0,0,1,122.087,21.842Z" transform="translate(-104.445 -12.682)" fill="#c4b800"/>
  <path id="Path_57430" data-name="Path 57430" d="M117.72,17.475a5.089,5.089,0,0,0,5.089-5.089,5.033,5.033,0,0,0-.636-2.417,5.051,5.051,0,0,0-6.869,6.869A5.032,5.032,0,0,0,117.72,17.475ZM116.7,13.4h2.036V15.44H116.7Z" transform="translate(-100.079 -8.315)" fill="#f1e200"/>
  <path id="Path_57431" data-name="Path 57431" d="M364.664,142.383a3.018,3.018,0,0,1-.875-.143,3.045,3.045,0,1,0,3.786-3.786,3.019,3.019,0,0,1,.143.875A3.053,3.053,0,0,1,364.664,142.383Z" transform="translate(-317.507 -121.01)" fill="#c4b800"/>
  <g id="Group_65906" data-name="Group 65906" transform="translate(33.206 4.369)">
    <path id="Path_57432" data-name="Path 57432" d="M363.685,141.4a3.053,3.053,0,0,0,3.053-3.053,3.018,3.018,0,0,0-.143-.875,3.019,3.019,0,0,0-.875-.143,3.053,3.053,0,0,0-3.053,3.053,3.017,3.017,0,0,0,.143.875A3.017,3.017,0,0,0,363.685,141.4Z" transform="translate(-349.734 -124.4)" fill="#f1e200"/>
    <path id="Path_57433" data-name="Path 57433" d="M266.1,42.205l2.036,2.036,1.439-1.439-1.015-1.015-1.524-1.524L263.47,36.7l-1.021-1.021-1.439,1.439,2.036,2.036,1.527,1.527Z" transform="translate(-261.01 -35.677)" fill="#f1e200"/>
  </g>
  <path id="Path_57434" data-name="Path 57434" d="M228.7,341.4v-4.071h-2.036v7.124H228.7Z" transform="translate(-197.83 -294.586)" fill="#1d9942"/>
  <g id="Group_65907" data-name="Group 65907" transform="translate(17.75 44.327)">
    <rect id="Rectangle_17814" data-name="Rectangle 17814" width="4.551" height="2.036" transform="translate(5.891 0.91) rotate(116.565)" fill="#fff"/>
    <rect id="Rectangle_17815" data-name="Rectangle 17815" width="2.276" height="2.036" transform="translate(2.838 7.019) rotate(116.565)" fill="#fff"/>
  </g>
  <path id="Path_57435" data-name="Path 57435" d="M430.738,3.369V1.333H428.7V3.369h-2.036V5.4H428.7V7.44h2.036V5.4h2.036V3.369Z" transform="translate(-372.386 -1.333)" fill="#f1e200"/>
  <rect id="Rectangle_17816" data-name="Rectangle 17816" width="2.036" height="2.036" transform="translate(16.624 5.089)" fill="#fff"/>
  <path id="Path_57436" data-name="Path 57436" d="M20.7,55.44h2.036V53.4h2.036V51.369H22.738V49.333H20.7v2.036H18.667V53.4H20.7Z" transform="translate(-16.292 -43.226)" fill="#f1e200"/>
</svg>
