<svg id="chemistry" xmlns="http://www.w3.org/2000/svg" width="62.835" height="62.835" viewBox="0 0 62.835 62.835">
  <path id="Path_24403" data-name="Path 24403" d="M169.378,240.819a.946.946,0,0,1-.671-.278l-14.416-14.416a.949.949,0,0,1,1.343-1.343L170.049,239.2a.949.949,0,0,1-.672,1.621Zm0,0" transform="translate(-135.111 -197.013)" fill="#8ac129"/>
  <path id="Path_24404" data-name="Path 24404" d="M193.277,194.727a.947.947,0,0,1-.671-.278l-18.075-18.075a.949.949,0,0,1,1.343-1.343l18.075,18.075a.95.95,0,0,1-.672,1.621Zm0,0" transform="translate(-152.867 -153.367)" fill="#ff4c4c"/>
  <path id="Path_24405" data-name="Path 24405" d="M239.37,170.824a.947.947,0,0,1-.672-.278L224.283,156.13a.95.95,0,0,1,1.343-1.343L240.041,169.2a.95.95,0,0,1-.671,1.621Zm0,0" transform="translate(-196.514 -135.609)" fill="#8ac129"/>
  <path id="Path_24406" data-name="Path 24406" d="M362.2,53.387a.946.946,0,0,1-.671-.278L347.8,39.381a.95.95,0,1,1,1.343-1.343l13.727,13.727a.949.949,0,0,1-.672,1.621Zm0,0" transform="translate(-304.871 -33.188)" fill="#ff4c4c"/>
  <path id="Path_24407" data-name="Path 24407" d="M51.936,363.648a.947.947,0,0,1-.672-.278L37.537,349.642A.95.95,0,0,1,38.88,348.3l13.728,13.728a.949.949,0,0,1-.672,1.621Zm0,0" transform="translate(-32.686 -305.372)" fill="#ff4c4c"/>
  <path id="Path_24408" data-name="Path 24408" d="M17.466,320.724c-5.847-1.105-11.932-1.281-16.853,3.639a2.094,2.094,0,0,0,2.961,2.961c3.99-3.99,9.069-3.4,14.916-2.118-.331-1.507-.7-3.008-1.024-4.482Zm0,0" transform="translate(0.001 -280.861)" fill="#ffbf14"/>
  <path id="Path_24409" data-name="Path 24409" d="M123.558,322.317c-.871-.165-1.747-.309-2.625-.418.317,1.45.665,2.884,1,4.369.864.151,1.748.333,2.65.531-.333-1.515-.695-3-1.024-4.482Zm0,0" transform="translate(-106.092 -282.455)" fill="#e0a812"/>
  <path id="Path_24410" data-name="Path 24410" d="M203.638,4.074a2.094,2.094,0,0,0-2.961-2.961c-11.677,11.677,5.3,29.122-4.234,38.655-4.518,4.519-10.433,3.17-17.28,1.579.35,1.5.7,3.02.985,4.522,6.549,1.46,13.656,2.46,19.256-3.14,11.706-11.706-5.3-29.125,4.233-38.655Zm0,0" transform="translate(-157.176 -0.5)" fill="#ffbf14"/>
  <path id="Path_24411" data-name="Path 24411" d="M180.145,337.858c.783.174,1.574.343,2.37.493-.268-1.5-.6-2.981-.949-4.466-.788-.173-1.591-.36-2.407-.549C179.51,334.84,179.86,336.346,180.145,337.858Zm0,0" transform="translate(-157.172 -292.489)" fill="#e0a812"/>
  <path id="Path_24412" data-name="Path 24412" d="M153.5,139.183c-.349-1.5-.7-3.035-.985-4.521-6.549-1.46-13.656-2.46-19.256,3.14-11.652,11.652,5.264,29.158-4.233,38.655a2.094,2.094,0,1,0,2.961,2.961c11.75-11.75-5.35-29.071,4.234-38.654,4.519-4.519,10.433-3.17,17.28-1.58Zm0,0" transform="translate(-112.653 -117.196)" fill="#45748c"/>
  <path id="Path_24413" data-name="Path 24413" d="M307.462,139.215c-.8-.179-1.612-.35-2.427-.5.257,1.494.587,2.977.93,4.46.813.178,1.64.37,2.482.565-.349-1.5-.7-3.035-.985-4.521Zm0,0" transform="translate(-267.6 -121.749)" fill="#3a6175"/>
  <path id="Path_24414" data-name="Path 24414" d="M379.206,129.525a2.094,2.094,0,0,0-2.961,0c-3.99,3.99-9.069,3.4-14.917,2.118.335,1.52.7,3,1.025,4.482,6.468,1.223,12.2,1.012,16.853-3.64a2.094,2.094,0,0,0,0-2.961Zm0,0" transform="translate(-316.984 -113.153)" fill="#45748c"/>
  <path id="Path_24415" data-name="Path 24415" d="M363.649,151.645c-.759-.139-1.533-.3-2.321-.472.335,1.52.7,3,1.025,4.482.763.144,1.53.273,2.3.376C364.34,154.612,363.978,153.114,363.649,151.645Zm0,0" transform="translate(-316.984 -132.681)" fill="#3a6175"/>
</svg>
