<svg xmlns="http://www.w3.org/2000/svg" width="55.098" height="52.659" viewBox="0 0 55.098 52.659">
  <g id="computerscience" transform="translate(0 -11)">
    <path id="Path_57465" data-name="Path 57465" d="M163.921,401l-9.328,3.326-.354,1.236a4.679,4.679,0,0,1-4.239,3.2v.831h19.345Z" transform="translate(-133.371 -346.764)" fill="#adaca7"/>
    <path id="Path_57466" data-name="Path 57466" d="M204.437,378.888l-1.3-4.562L197.757,371l-5.377,3.326-.95,3.326h9.328l.354,1.236a4.679,4.679,0,0,0,4.239,3.2l1.663.831,1.663-.831A4.679,4.679,0,0,1,204.437,378.888Z" transform="translate(-170.208 -320.09)" fill="#8f8f8b"/>
    <path id="Path_57467" data-name="Path 57467" d="M437,267.629h3.326a3.336,3.336,0,0,0,3.326-3.326v-6.652L437,251Z" transform="translate(-388.554 -213.393)" fill="#adaca7"/>
    <path id="Path_57468" data-name="Path 57468" d="M0,210.955a3.336,3.336,0,0,0,3.326,3.326H48.446a3.336,3.336,0,0,0,3.326-3.326V191L0,204.3Z" transform="translate(0 -160.045)" fill="#cbc9c2"/>
    <path id="Path_57469" data-name="Path 57469" d="M440.326,11H437l3.326,33.258h3.326V14.326A3.336,3.336,0,0,0,440.326,11Z" transform="translate(-388.554)" fill="#404242"/>
    <path id="Path_57470" data-name="Path 57470" d="M51.772,14.326A3.336,3.336,0,0,0,48.446,11H3.326A3.336,3.336,0,0,0,0,14.326V44.258H51.772V40.933l-24.223-13.3Z" fill="#565959"/>
    <path id="Path_57471" data-name="Path 57471" d="M272.723,40.976l-3.325,0-20.9,13.3,20.9,13.3,3.326,0s0-26.6,0-26.605Z" transform="translate(-220.951 -26.651)" fill="#4b88d5"/>
    <path id="Path_57472" data-name="Path 57472" d="M75.121,40.975l-45.111,0S30,67.582,30,67.583l45.12,0S75.116,40.976,75.121,40.975Z" transform="translate(-26.674 -26.65)" fill="#69a7ff"/>
    <circle id="Ellipse_3277" data-name="Ellipse 3277" cx="1.663" cy="1.663" r="1.663" transform="translate(25.886 47.584)" fill="#fff"/>
    <path id="Path_57473" data-name="Path 57473" d="M121.2,472.663H86.831a.831.831,0,1,1,0-1.663H121.2a.831.831,0,1,1,0,1.663Z" transform="translate(-76.466 -409.004)" fill="#8f8f8b"/>
  </g>
</svg>
