<svg id="french" xmlns="http://www.w3.org/2000/svg" width="58.835" height="58.835" viewBox="0 0 58.835 58.835">
  <g id="Translate_2_" transform="translate(25.384 14.019)">
    <g id="Group_36121" data-name="Group 36121">
      <path id="Path_24416" data-name="Path 24416" d="M223.953,164.374l6.026-13.172-8.989-26.934A1.722,1.722,0,0,1,222.625,122h26.556a5.177,5.177,0,0,1,5.171,5.171v34.474a5.177,5.177,0,0,1-5.171,5.171H225.52Z" transform="translate(-220.901 -121.999)" fill="#fff5f5"/>
    </g>
  </g>
  <path id="Path_24417" data-name="Path 24417" d="M391.628,161.645V127.171A5.177,5.177,0,0,0,386.457,122H376v44.816h10.457A5.177,5.177,0,0,0,391.628,161.645Z" transform="translate(-332.793 -107.981)" fill="#e3e7ea"/>
  <g id="Group_36125" data-name="Group 36125" transform="translate(23.694 41.598)">
    <g id="Group_36124" data-name="Group 36124">
      <g id="Group_36123" data-name="Group 36123">
        <g id="Group_36122" data-name="Group 36122">
          <path id="Path_24418" data-name="Path 24418" d="M212.5,379.236c-.03,0-.062,0-.093,0a1.728,1.728,0,0,1-1.544-1.178l-4.585-13.789A1.725,1.725,0,0,1,207.915,362h10.894a1.723,1.723,0,0,1,1.567,2.441l-6.309,13.789A1.722,1.722,0,0,1,212.5,379.236Z" transform="translate(-206.191 -361.999)" fill="#acd1fc"/>
        </g>
      </g>
    </g>
  </g>
  <g id="Group_36130" data-name="Group 36130" transform="translate(23.694 41.598)">
    <g id="Group_36129" data-name="Group 36129">
      <g id="Group_36128" data-name="Group 36128">
        <g id="Group_36127" data-name="Group 36127">
          <g id="Group_36126" data-name="Group 36126">
            <path id="Path_24419" data-name="Path 24419" d="M220.377,364.44l-6.309,13.789a1.722,1.722,0,0,1-1.567,1.007c-.03,0-.062,0-.093,0a1.728,1.728,0,0,1-1.544-1.178l-4.585-13.789A1.725,1.725,0,0,1,207.915,362h10.894Z" transform="translate(-206.191 -361.999)" fill="#324492"/>
          </g>
        </g>
      </g>
    </g>
  </g>
  <g id="Group_36131" data-name="Group 36131">
    <path id="Path_24420" data-name="Path 24420" d="M36.312,45.046H5.171A5.177,5.177,0,0,1,0,39.875V5.171A5.177,5.177,0,0,1,5.171,0H22.523a1.723,1.723,0,0,1,1.636,1.18l13.788,41.6a1.722,1.722,0,0,1-1.634,2.269Z" fill="#4086f4"/>
  </g>
  <path id="Path_24421" data-name="Path 24421" d="M144.531,1.18A1.723,1.723,0,0,0,142.895,0H136V45.046h20.684a1.722,1.722,0,0,0,1.635-2.269Z" transform="translate(-120.372)" fill="#4175df"/>
  <path id="Path_24422" data-name="Path 24422" d="M76.513,128.895H71.342a1.724,1.724,0,0,0,0,3.447h3.13a5.152,5.152,0,1,1-1.2-5.38,1.725,1.725,0,0,0,2.441-2.437,8.619,8.619,0,1,0,2.523,6.093A1.723,1.723,0,0,0,76.513,128.895Z" transform="translate(-53.99 -107.981)" fill="#fff5f5"/>
  <g id="Group_36135" data-name="Group 36135" transform="translate(15.628 14.019)">
    <g id="Group_36134" data-name="Group 36134">
      <g id="Group_36132" data-name="Group 36132" transform="translate(0 6.895)">
        <path id="Path_24423" data-name="Path 24423" d="M142.895,182h-5.171a1.724,1.724,0,0,0,0,3.447h3.13A5.163,5.163,0,0,1,136,188.895v3.447a8.628,8.628,0,0,0,8.618-8.618A1.723,1.723,0,0,0,142.895,182Z" transform="translate(-136 -182)" fill="#e3e7ea"/>
      </g>
      <g id="Group_36133" data-name="Group 36133">
        <path id="Path_24424" data-name="Path 24424" d="M139.654,126.962a1.725,1.725,0,0,0,2.441-2.437A8.562,8.562,0,0,0,136,122v3.447A5.123,5.123,0,0,1,139.654,126.962Z" transform="translate(-136 -122)" fill="#e3e7ea"/>
      </g>
    </g>
  </g>
  <path id="Path_24425" data-name="Path 24425" d="M316.513,215.447h-5.171v-1.724a1.724,1.724,0,1,0-3.447,0v1.724h-5.171a1.724,1.724,0,1,0,0,3.447h9.988a21.388,21.388,0,0,1-3.077,5.408c-.292-.395-.581-.8-.859-1.206a1.724,1.724,0,0,0-2.852,1.939c.484.712.992,1.394,1.5,2.051-.861,1-1.712,1.912-2.458,2.644a1.724,1.724,0,1,0,2.414,2.461c.268-.263,1.16-1.169,2.258-2.406,1.221,1.4,2.14,2.323,2.211,2.394a1.723,1.723,0,0,0,2.437-2.437c-.017-.019-1.076-1.088-2.419-2.653,1.911-2.476,3.766-5.452,4.382-8.194h.266a1.724,1.724,0,1,0,0-3.447Z" transform="translate(-266.411 -187.639)" fill="#4254b6"/>
  <path id="Path_24426" data-name="Path 24426" d="M379.093,218.894a21.387,21.387,0,0,1-3.077,5.408l-.016-.023V229.8l.018-.02c1.221,1.4,2.14,2.323,2.211,2.394a1.723,1.723,0,0,0,2.437-2.437c-.017-.018-1.076-1.088-2.419-2.653,1.911-2.476,3.766-5.452,4.382-8.194h.266a1.724,1.724,0,1,0,0-3.447h-5.171v-1.724A1.723,1.723,0,0,0,376,212v6.895h3.093Z" transform="translate(-332.793 -187.638)" fill="#324492"/>
</svg>
