<svg xmlns="http://www.w3.org/2000/svg" width="57.93" height="54" viewBox="0 0 57.93 54">
  <g id="history" transform="translate(-3.036 -5)">
    <g id="Group_65908" data-name="Group 65908">
      <path id="Path_57437" data-name="Path 57437" d="M8.036,5a5,5,0,0,1,5,5v5h-5a5,5,0,0,1,0-10Z" fill="#f68820"/>
    </g>
    <g id="Group_65909" data-name="Group 65909">
      <path id="Path_57438" data-name="Path 57438" d="M45.036,54V46.5a2,2,0,0,0-2-2,2,2,0,0,0,2-2v-28a2,2,0,0,0-2-2,2,2,0,0,0,2-2V10a5,5,0,0,0-5-5h-32a5,5,0,0,1,5,5V20.5a2,2,0,0,0,2,2,2,2,0,0,0-2,2V54a5,5,0,0,0,5,5h32A5,5,0,0,1,45.036,54Z" fill="#fbbe18"/>
    </g>
    <g id="Group_65917" data-name="Group 65917">
      <g id="Group_65910" data-name="Group 65910">
        <path id="Path_57439" data-name="Path 57439" d="M26.036,14.5h12a1,1,0,0,0,0-2h-12a1,1,0,0,0,0,2Z" fill="#f68820"/>
      </g>
      <g id="Group_65911" data-name="Group 65911">
        <path id="Path_57440" data-name="Path 57440" d="M20.036,19.5h18a1,1,0,0,0,0-2h-18a1,1,0,0,0,0,2Z" fill="#f68820"/>
      </g>
      <g id="Group_65912" data-name="Group 65912">
        <path id="Path_57441" data-name="Path 57441" d="M20.036,24.5h18a1,1,0,0,0,0-2h-18a1,1,0,0,0,0,2Z" fill="#f68820"/>
      </g>
      <g id="Group_65913" data-name="Group 65913">
        <path id="Path_57442" data-name="Path 57442" d="M20.036,29.5h18a1,1,0,0,0,0-2h-18a1,1,0,0,0,0,2Z" fill="#f68820"/>
      </g>
      <g id="Group_65914" data-name="Group 65914">
        <path id="Path_57443" data-name="Path 57443" d="M20.036,34.5h18a1,1,0,0,0,0-2h-18a1,1,0,0,0,0,2Z" fill="#f68820"/>
      </g>
      <g id="Group_65915" data-name="Group 65915">
        <path id="Path_57444" data-name="Path 57444" d="M20.036,39.5h18a1,1,0,0,0,0-2h-18a1,1,0,0,0,0,2Z" fill="#f68820"/>
      </g>
      <g id="Group_65916" data-name="Group 65916">
        <path id="Path_57445" data-name="Path 57445" d="M20.036,44.5h8.5a1,1,0,1,0,0-2h-8.5a1,1,0,0,0,0,2Z" fill="#f68820"/>
      </g>
    </g>
    <g id="Group_65918" data-name="Group 65918">
      <path id="Path_57446" data-name="Path 57446" d="M18.036,49a2.5,2.5,0,0,0,0,5h7.5V49Z" fill="#bf6b1e"/>
    </g>
    <g id="Group_65919" data-name="Group 65919">
      <path id="Path_57447" data-name="Path 57447" d="M18.036,49a5,5,0,1,1,0,10h32a5,5,0,0,0,0-10Z" fill="#f68820"/>
    </g>
    <g id="Group_65925" data-name="Group 65925">
      <g id="Group_65920" data-name="Group 65920">
        <path id="Path_57448" data-name="Path 57448" d="M35.036,39.5h5.929A5,5,0,0,0,44.5,38.036l15-15a5,5,0,0,0,0-7.071l-.929-.929a5,5,0,0,0-7.071,0l-15,15a5,5,0,0,0-1.464,3.536V39.5Z" fill="#b3b4b6"/>
      </g>
      <g id="Group_65921" data-name="Group 65921">
        <path id="Path_57449" data-name="Path 57449" d="M35.036,39.5h5.929A5,5,0,0,0,44.5,38.036l15-15a5,5,0,0,0,0-7.071l-.465-.465Z" fill="gray"/>
      </g>
      <g id="Group_65922" data-name="Group 65922">
        <path id="Path_57450" data-name="Path 57450" d="M48.036,26.5v-8L51.5,15.036a5,5,0,0,1,7.071,0l.929.929a5,5,0,0,1,0,7.071L56.036,26.5Z" fill="#55525b"/>
      </g>
      <g id="Group_65923" data-name="Group 65923">
        <path id="Path_57451" data-name="Path 57451" d="M48.036,26.5l11-11,.464.464a5,5,0,0,1,0,7.071L56.036,26.5Z" fill="#353744"/>
      </g>
      <g id="Group_65924" data-name="Group 65924">
        <path id="Path_57452" data-name="Path 57452" d="M31.036,44a.5.5,0,0,1-.354-.853l28-28a.5.5,0,1,1,.707.707l-28,28A.5.5,0,0,1,31.036,44Z" fill="#dbdee3"/>
      </g>
    </g>
  </g>
</svg>
