<svg xmlns="http://www.w3.org/2000/svg" width="54.986" height="58.908" viewBox="0 0 54.986 58.908">
  <g id="atom_1_" data-name="atom (1)" transform="translate(0 0)">
    <path id="Path_24395" data-name="Path 24395" d="M157.745,74.908c-3.819,0-7.343-3.168-9.921-8.92C145.358,60.488,144,53.195,144,45.454s1.358-15.033,3.824-20.534c2.578-5.752,6.1-8.92,9.921-8.92s7.343,3.168,9.921,8.92c2.466,5.5,3.824,12.794,3.824,20.534s-1.358,15.034-3.824,20.534C165.088,71.74,161.564,74.908,157.745,74.908Zm0-56.944c-2.956,0-5.919,2.828-8.129,7.759-2.355,5.254-3.652,12.261-3.652,19.731s1.3,14.477,3.652,19.731c2.211,4.931,5.173,7.759,8.129,7.759s5.919-2.828,8.129-7.759c2.355-5.254,3.652-12.261,3.652-19.731s-1.3-14.477-3.652-19.731C163.664,20.792,160.7,17.964,157.745,17.964Z" transform="translate(-130.252 -16)" fill="#3397e8"/>
    <path id="Path_24396" data-name="Path 24396" d="M76.507,129.231a28.2,28.2,0,0,1-4.942-.474c-6.4-1.146-13.706-4.249-20.569-8.736A60.3,60.3,0,0,1,38.105,108.9c-3.315-3.911-5.374-7.726-5.956-11.031a7.95,7.95,0,0,1,1.25-6.383c2.354-3.14,7.319-4.212,13.977-3.02,6.4,1.146,13.706,4.249,20.569,8.736a60.3,60.3,0,0,1,12.89,11.118c3.315,3.911,5.374,7.726,5.956,11.031a7.951,7.951,0,0,1-1.25,6.383c-1.727,2.3-4.859,3.494-9.035,3.494ZM42.462,89.962c-3.524,0-6.159.927-7.491,2.7a6.076,6.076,0,0,0-.887,4.865c1.1,6.234,8.157,14.417,17.987,20.846,6.646,4.346,13.692,7.346,19.84,8.447,5.8,1.04,10.2.214,12.059-2.265a6.076,6.076,0,0,0,.887-4.865c-1.1-6.234-8.157-14.417-17.987-20.846C60.223,94.5,53.178,91.5,47.03,90.4a26.1,26.1,0,0,0-4.568-.439Z" transform="translate(-31.977 -79.159)" fill="#1261a0"/>
    <path id="Path_24397" data-name="Path 24397" d="M42.437,129.231c-4.176,0-7.307-1.19-9.034-3.494a7.951,7.951,0,0,1-1.25-6.383c.581-3.3,2.641-7.119,5.956-11.031A60.3,60.3,0,0,1,51,97.2c6.862-4.487,14.166-7.59,20.569-8.736,6.659-1.192,11.622-.12,13.977,3.02a7.95,7.95,0,0,1,1.25,6.383c-.581,3.305-2.641,7.12-5.956,11.031a60.3,60.3,0,0,1-12.89,11.118c-6.862,4.487-14.166,7.59-20.569,8.736a28.2,28.2,0,0,1-4.942.474Zm9.1-31.2.537.822c-9.83,6.428-16.89,14.611-17.987,20.846a6.076,6.076,0,0,0,.887,4.865c1.859,2.479,6.254,3.3,12.059,2.265,6.148-1.1,13.193-4.1,19.84-8.447,9.83-6.428,16.89-14.611,17.987-20.846a6.076,6.076,0,0,0-.887-4.865c-1.859-2.479-6.254-3.3-12.059-2.265-6.148,1.1-13.194,4.1-19.84,8.447Z" transform="translate(-31.98 -79.158)" fill="#2978b8"/>
    <circle id="Ellipse_3261" data-name="Ellipse 3261" cx="6.873" cy="6.873" r="6.873" transform="translate(20.621 22.581)" fill="#eb423f"/>
    <g id="Group_36119" data-name="Group 36119" transform="translate(0.985 2.945)">
      <circle id="Ellipse_3262" data-name="Ellipse 3262" cx="2.945" cy="2.945" r="2.945" transform="translate(0 28.472)" fill="#f7b030"/>
      <circle id="Ellipse_3263" data-name="Ellipse 3263" cx="2.945" cy="2.945" r="2.945" transform="translate(39.272 43.199)" fill="#f7b030"/>
      <circle id="Ellipse_3264" data-name="Ellipse 3264" cx="2.945" cy="2.945" r="2.945" transform="translate(30.436)" fill="#f7b030"/>
    </g>
  </g>
</svg>
