<svg id="politics" xmlns="http://www.w3.org/2000/svg" width="58.361" height="60.049" viewBox="0 0 58.361 60.049">
  <path id="Path_57453" data-name="Path 57453" d="M84.779,124.759l-3.52,4.4-2.022,2.528a6.825,6.825,0,0,1-10.155.562l-3.09-3.09v9.16H45.637v-9.16l-3.09,3.09a6.825,6.825,0,0,1-10.155-.562L30.37,129.16l-3.52-4.4a.985.985,0,0,1,1.008-1.571l3.53.883.67-1.34a1.258,1.258,0,0,1,2.383.562v2.813l3.053,2.036,6.056-6.056A7.124,7.124,0,0,1,48.588,120H63.041a7.124,7.124,0,0,1,5.039,2.087l6.055,6.055,3.053-2.036v-2.813a1.258,1.258,0,0,1,2.383-.562l.67,1.34,3.53-.883a.952.952,0,0,1,.238-.029.985.985,0,0,1,.77,1.6Z" transform="translate(-26.634 -107.787)" fill="#ffceb6"/>
  <path id="Path_57454" data-name="Path 57454" d="M106.889,129.16l-2.022,2.528a6.825,6.825,0,0,1-10.155.562l-3.09-3.09v9.16H71.267v-9.16l-3.09,3.09a6.825,6.825,0,0,1-10.155-.562L56,129.16l4.071-3.053,3.053,2.036,6.056-6.056A7.124,7.124,0,0,1,74.218,120H88.671a7.124,7.124,0,0,1,5.039,2.087l6.055,6.055,3.053-2.036Z" transform="translate(-52.264 -107.787)" fill="#548aff"/>
  <path id="Path_57455" data-name="Path 57455" d="M226.178,120v6.107l-5.089,6.107L216,126.107V120Z" transform="translate(-191.908 -107.787)" fill="#91c0ff"/>
  <path id="Path_57456" data-name="Path 57456" d="M228.071,65.16A4.071,4.071,0,0,1,224,61.089V59.053L227.053,56h5.089v5.089A4.071,4.071,0,0,1,228.071,65.16Z" transform="translate(-198.891 -51.929)" fill="#ffceb6"/>
  <path id="Path_57457" data-name="Path 57457" d="M232.142,28.071l.992-.5A1.887,1.887,0,0,0,232.291,24h-4.22A4.071,4.071,0,0,0,224,28.071v3.053l3.053-3.053Z" transform="translate(-198.891 -24)" fill="#c47220"/>
  <path id="Path_57458" data-name="Path 57458" d="M226.178,133.089l-2.936,3.523-2.153,2.584-2.153-2.584L216,133.089,221.089,128Z" transform="translate(-191.908 -114.769)" fill="#7dafff"/>
  <path id="Path_57459" data-name="Path 57459" d="M242.25,160l1.135,4.541-2.153,2.584-2.153-2.584L240.215,160Z" transform="translate(-212.052 -142.698)" fill="#ef5e3b"/>
  <path id="Path_57460" data-name="Path 57460" d="M241.018,132.071,240,130.036,242.036,128l2.036,2.036-1.018,2.036Z" transform="translate(-212.855 -114.769)" fill="#e04f2b"/>
  <path id="Path_57461" data-name="Path 57461" d="M104,264h38.676v4.071H104Z" transform="translate(-94.157 -233.467)" fill="#ea964b"/>
  <path id="Path_57462" data-name="Path 57462" d="M154.6,296v3.053l-5.089,7.124H125.089L120,299.053V296Z" transform="translate(-108.122 -261.396)" fill="#c47220"/>
  <path id="Path_57463" data-name="Path 57463" d="M160,376h24.427v15.267H160Z" transform="translate(-143.033 -331.218)" fill="#db8638"/>
  <path id="Path_57464" data-name="Path 57464" d="M192,408h16.284v11.2H192Z" transform="translate(-170.962 -359.147)" fill="#f7a156"/>
</svg>
