<svg xmlns="http://www.w3.org/2000/svg" width="60" height="60.049" viewBox="0 0 60 60.049">
  <g id="zoology" transform="translate(0 -0.971)">
    <g id="Icons" transform="translate(11 1)">
      <path id="Shape" d="M27.81,12.35H10.19c.15-2.1.07-1,.4-5.7l3.27-5C15.54.82,16.31,1,21.41,1a6.1,6.1,0,0,1,2.73.65l3.27,5C27.75,11.53,27.66,10.21,27.81,12.35Z" fill="#3f51b5"/>
      <circle id="Oval" cx="3" cy="3" r="3" transform="translate(9 1)" fill="#f5f5f5"/>
      <circle id="Oval-2" data-name="Oval" cx="3" cy="3" r="3" transform="translate(23 1)" fill="#f5f5f5"/>
      <path id="Shape-2" data-name="Shape" d="M37.89,17.76,35.46,35.07c-.26,0-10.9,7.76-16.46-7.07C14.32,40.48,6,37.15,2.55,35.07L.11,17.76a1,1,0,0,1,.6-1.06c5.67-2.39,13.14-6.12,17.86-8.48a.93.93,0,0,1,.86,0C21.55,9.29,31,14.06,37.29,16.7A1,1,0,0,1,37.89,17.76Z" fill="#549414"/>
      <path id="Shape-3" data-name="Shape" d="M34.89,17.76,32.25,36.55c-4,1.28-9.7.93-13.25-8.55C14.32,40.48,6,37.15,2.55,35.07L.11,17.76a1,1,0,0,1,.6-1.06c5.5-2.32,13.5-6.29,16.79-7.93,3.29,1.64,11.29,5.61,16.79,7.93a1,1,0,0,1,.6,1.06Z" fill="#88b35d"/>
      <path id="Shape-4" data-name="Shape" d="M35.46,35.07,35,38.66a19.15,19.15,0,0,1-6.18,11.55L19,59,9.23,50.21A19.15,19.15,0,0,1,3.05,38.66l-.51-3.59C6,37.14,14.32,40.49,19,28,23.68,40.49,32,37.14,35.46,35.07Z" fill="#318331"/>
      <path id="Shape-5" data-name="Shape" d="M35.46,35.07,35,38.66a19.15,19.15,0,0,1-6.18,11.55L19,59l-1.5-1.35,8.27-7.44A19.15,19.15,0,0,0,32,38.66l.3-2.11a15.62,15.62,0,0,0,3.16-1.48Z" fill="#007900"/>
    </g>
    <g id="Layer_10">
      <path id="Shape-6" data-name="Shape" d="M54.8,47a1,1,0,0,0,1.2-.8l.56-2.81L58.2,45.6a1,1,0,0,0,1.6-1.2l-2.93-3.9-2.6-6.07a3,3,0,0,0-1.81-1.66l-4.33-1.45L50,18.14a1,1,0,0,0-.61-1.06l-1.09-.46,1.27-1.7c.49-.64.31-.3,2.34-8.41l2.81-2.8A1,1,0,0,0,53.3,2.29L51.54,4,51,1.76a1.028,1.028,0,1,0-2,.48L50,6c-2,8-1.84,7.49-2,7.72l-1.55,2.07c-2.12-.95-4.44-2-6.64-3.09l-.32-4.56a4,4,0,0,0-4.44-6.61C33.29.82,32.29,1,27.59,1A6.91,6.91,0,0,0,25,1.53,3.93,3.93,0,0,0,23,1a4,4,0,0,0-2.45,7.14l-.32,4.56c-2.2,1.06-4.52,2.14-6.64,3.09-1.66-2.22-1.65-2.16-1.72-2.42L10,6l1-3.76a1.028,1.028,0,0,0-2-.48L8.46,4,6.71,2.29A1,1,0,1,0,5.29,3.71L8.1,6.51l1.83,7.34c.2.81.59,1.17,1.78,2.77l-1.09.46A1,1,0,0,0,10,18.14l1.86,13.18L7.54,32.77a3,3,0,0,0-1.81,1.66L3.13,40.5.2,44.4a1,1,0,1,0,1.6,1.2l1.66-2.21L4,46.2a1.02,1.02,0,0,0,2-.4L5,41.11l2.53-5.89a1,1,0,0,1,.6-.56l4-1.32c.91,6.43,1,9.52,3.52,13.84-3.1,2.76-2.17,1.38-4.55,7.33L8.2,58.4a1,1,0,1,0,1.6,1.2l1.66-2.21L12,60.2a1.02,1.02,0,1,0,2-.4l-1-4.7c1.74-4.36,1.7-4.42,2-4.67l1.77-1.57A19.75,19.75,0,0,0,19.56,52c10.64,9.57,9.9,9,10.44,9s-.18.5,10.44-9a19.75,19.75,0,0,0,2.77-3.09L45,50.43c.25.22.13,0,2,4.67l-1,4.7a1.02,1.02,0,0,0,2,.4l.56-2.81L50.2,59.6a1,1,0,0,0,1.6-1.2l-2.92-3.89C47,49.69,47,49.58,46.31,48.94l-2-1.76c2.56-4.33,2.61-7.41,3.52-13.84l4,1.32a1,1,0,0,1,.6.56L55,41.11,54,45.8a1,1,0,0,0,.8,1.2ZM30,19a1,1,0,0,0-1,1v8.8c-2.86,7.49-7.76,10.46-14.53,6.65L12.1,18.62c6.22-2.62,15.72-7.4,17.9-8.5,2.18,1.1,11.68,5.87,17.9,8.5L45.53,35.45c-6.76,3.8-11.67.86-14.53-6.65V20a1,1,0,0,0-1-1ZM39,5a2,2,0,1,1-2-2A2,2,0,0,1,39,5ZM23,3a2,2,0,1,1-2,2A2,2,0,0,1,23,3Zm-.5,6a4,4,0,0,0,4-5.83A5,5,0,0,1,27.59,3c5.2,0,5.15,0,5.9.12A4,4,0,0,0,37.5,9l.19,2.75c-4-1.95-7.18-3.56-7.24-3.59a1,1,0,0,0-.9,0c-.06,0-3.24,1.64-7.24,3.59ZM39.1,50.47,30,58.65l-9.1-8.18A18.13,18.13,0,0,1,15,39.52l-.23-1.66c5.61,2.54,10.7,1.22,14.19-4.49V54a1,1,0,0,0,2,0V33.37c3.49,5.7,8.57,7,14.19,4.49L45,39.52a18.13,18.13,0,0,1-5.9,10.95Z"/>
      <path id="Shape-7" data-name="Shape" d="M31,14a1,1,0,0,0-2,0v2a1,1,0,0,0,2,0Z"/>
    </g>
  </g>
</svg>
