<svg xmlns="http://www.w3.org/2000/svg" width="21.604" height="21.604" viewBox="0 0 21.604 21.604">
  <g id="booking" transform="translate(-17.05 -17.05)">
    <path id="Path_59330" data-name="Path 59330" d="M35.9,19.206v-.5a1.454,1.454,0,0,0-2.907,0v.478H31.5V18.7a1.453,1.453,0,1,0-2.905,0v.478H27.108V18.7a1.453,1.453,0,1,0-2.905,0v.478H22.715V18.7a1.454,1.454,0,0,0-2.907,0v.5a2.915,2.915,0,0,0-2.558,2.888V35.542a2.915,2.915,0,0,0,2.912,2.912h15.38a2.915,2.915,0,0,0,2.912-2.912V22.094A2.915,2.915,0,0,0,35.9,19.206Zm-2.114-.5a.66.66,0,1,1,1.32,0v1.751a.66.66,0,1,1-1.32,0Zm-4.393,0a.659.659,0,1,1,1.318,0v1.751a.659.659,0,0,1-1.318,0ZM25,18.7a.659.659,0,1,1,1.318,0v1.751a.659.659,0,1,1-1.318,0Zm-4.395,0a.66.66,0,1,1,1.32,0v1.751a.66.66,0,1,1-1.32,0Zm-.794,1.3v.447a1.454,1.454,0,1,0,2.907,0v-.478H24.2v.478a1.453,1.453,0,1,0,2.905,0v-.478H28.6v.478a1.453,1.453,0,1,0,2.905,0v-.478h1.488v.478a1.454,1.454,0,1,0,2.907,0v-.447a2.12,2.12,0,0,1,1.764,2.086v1.194H18.044V22.094a2.12,2.12,0,0,1,1.764-2.086ZM35.542,37.66H20.162a2.121,2.121,0,0,1-2.118-2.118V24.083H37.66V35.542A2.121,2.121,0,0,1,35.542,37.66Z" transform="translate(0 0)" fill="#82296e" stroke="#82296e" stroke-width="0.4"/>
    <path id="Path_59331" data-name="Path 59331" d="M32.633,56.135h-1.6a1.054,1.054,0,0,0-1.052,1.052v1.6a1.054,1.054,0,0,0,1.052,1.052h1.6a1.054,1.054,0,0,0,1.052-1.052v-1.6a1.054,1.054,0,0,0-1.052-1.052Zm.259,2.655a.259.259,0,0,1-.259.259h-1.6a.259.259,0,0,1-.259-.259v-1.6a.259.259,0,0,1,.259-.259h1.6a.259.259,0,0,1,.259.259Z" transform="translate(-9.842 -30.067)" fill="#82296e" stroke="#82296e" stroke-width="0.4"/>
    <path id="Path_59332" data-name="Path 59332" d="M58.482,56.135h-1.6a1.054,1.054,0,0,0-1.052,1.052v1.6a1.054,1.054,0,0,0,1.052,1.052h1.6a1.054,1.054,0,0,0,1.052-1.052v-1.6A1.054,1.054,0,0,0,58.482,56.135Zm.259,2.655a.259.259,0,0,1-.259.259h-1.6a.259.259,0,0,1-.259-.259v-1.6a.259.259,0,0,1,.259-.259h1.6a.259.259,0,0,1,.259.259Z" transform="translate(-29.829 -30.067)" fill="#82296e" stroke="#82296e" stroke-width="0.4"/>
    <path id="Path_59333" data-name="Path 59333" d="M84.366,58.13l-1.78,1.779-.852-.852a.4.4,0,1,0-.561.561l1.132,1.132a.4.4,0,0,0,.561,0l2.061-2.061a.4.4,0,0,0-.561-.561Z" transform="translate(-49.337 -31.518)" fill="#82296e" stroke="#82296e" stroke-width="0.4"/>
    <path id="Path_59334" data-name="Path 59334" d="M32.633,80.241h-1.6a1.054,1.054,0,0,0-1.052,1.052v1.6a1.054,1.054,0,0,0,1.052,1.052h1.6A1.054,1.054,0,0,0,33.685,82.9v-1.6a1.054,1.054,0,0,0-1.052-1.052Zm.259,2.655a.259.259,0,0,1-.259.259h-1.6a.259.259,0,0,1-.259-.259v-1.6a.259.259,0,0,1,.259-.259h1.6a.259.259,0,0,1,.259.259Z" transform="translate(-9.842 -48.706)" fill="#82296e" stroke="#82296e" stroke-width="0.4"/>
    <path id="Path_59335" data-name="Path 59335" d="M58.482,80.241h-1.6a1.054,1.054,0,0,0-1.052,1.052v1.6a1.054,1.054,0,0,0,1.052,1.052h1.6A1.054,1.054,0,0,0,59.534,82.9v-1.6A1.054,1.054,0,0,0,58.482,80.241ZM58.74,82.9a.259.259,0,0,1-.259.259h-1.6a.259.259,0,0,1-.259-.259v-1.6a.259.259,0,0,1,.259-.259h1.6a.259.259,0,0,1,.259.259Z" transform="translate(-29.829 -48.706)" fill="#82296e" stroke="#82296e" stroke-width="0.4"/>
    <path id="Path_59336" data-name="Path 59336" d="M84.331,80.241h-1.6a1.054,1.054,0,0,0-1.052,1.052v1.6a1.054,1.054,0,0,0,1.052,1.052h1.6A1.054,1.054,0,0,0,85.383,82.9v-1.6A1.054,1.054,0,0,0,84.331,80.241Zm.259,2.655a.259.259,0,0,1-.259.259h-1.6a.259.259,0,0,1-.259-.259v-1.6a.259.259,0,0,1,.259-.259h1.6a.259.259,0,0,1,.259.259Z" transform="translate(-49.816 -48.706)" fill="#82296e" stroke="#82296e" stroke-width="0.4"/>
  </g>
</svg>
