<svg id="dashboard" xmlns="http://www.w3.org/2000/svg" width="20.839" height="20.839" viewBox="0 0 20.839 20.839">
  <path id="Path_59304" data-name="Path 59304" d="M8.032,6.946H1.519A1.521,1.521,0,0,1,0,5.427V1.52A1.521,1.521,0,0,1,1.519,0H8.032A1.521,1.521,0,0,1,9.551,1.52V5.427A1.521,1.521,0,0,1,8.032,6.946ZM1.519,1.3A.217.217,0,0,0,1.3,1.52V5.427a.217.217,0,0,0,.217.217H8.032a.217.217,0,0,0,.217-.217V1.52A.217.217,0,0,0,8.032,1.3Zm0,0" transform="translate(0 0)" fill="#82296e"/>
  <path id="Path_59305" data-name="Path 59305" d="M8.032,225.488H1.519A1.521,1.521,0,0,1,0,223.969v-9.117a1.521,1.521,0,0,1,1.519-1.52H8.032a1.521,1.521,0,0,1,1.52,1.52v9.117A1.521,1.521,0,0,1,8.032,225.488ZM1.519,214.635a.217.217,0,0,0-.217.217v9.117a.217.217,0,0,0,.217.217H8.032a.217.217,0,0,0,.217-.217v-9.117a.217.217,0,0,0-.217-.217Zm0,0" transform="translate(0 -204.649)" fill="#82296e"/>
  <path id="Path_59306" data-name="Path 59306" d="M285.364,348.278h-6.512a1.521,1.521,0,0,1-1.52-1.519v-3.907a1.521,1.521,0,0,1,1.52-1.52h6.512a1.521,1.521,0,0,1,1.519,1.52v3.907A1.521,1.521,0,0,1,285.364,348.278Zm-6.512-5.644a.217.217,0,0,0-.217.217v3.907a.217.217,0,0,0,.217.217h6.512a.217.217,0,0,0,.217-.217v-3.907a.217.217,0,0,0-.217-.217Zm0,0" transform="translate(-266.044 -327.44)" fill="#82296e"/>
  <path id="Path_59307" data-name="Path 59307" d="M285.364,12.156h-6.512a1.521,1.521,0,0,1-1.52-1.52V1.52A1.521,1.521,0,0,1,278.852,0h6.512a1.521,1.521,0,0,1,1.519,1.519v9.117A1.521,1.521,0,0,1,285.364,12.156ZM278.852,1.3a.217.217,0,0,0-.217.217v9.117a.217.217,0,0,0,.217.217h6.512a.217.217,0,0,0,.217-.217V1.52a.217.217,0,0,0-.217-.217Zm0,0" transform="translate(-266.044 0)" fill="#82296e"/>
</svg>
