<svg id="dollar" xmlns="http://www.w3.org/2000/svg" width="20.839" height="20.839" viewBox="0 0 20.839 20.839">
  <g id="Group_66820" data-name="Group 66820">
    <g id="Group_66819" data-name="Group 66819">
      <path id="Path_59311" data-name="Path 59311" d="M10.419,0A10.419,10.419,0,1,0,20.839,10.419,10.432,10.432,0,0,0,10.419,0Zm0,19.536a9.117,9.117,0,1,1,9.117-9.117A9.127,9.127,0,0,1,10.419,19.536Z" fill="#82296e"/>
    </g>
  </g>
  <g id="Group_66822" data-name="Group 66822" transform="translate(7.163 4.559)">
    <g id="Group_66821" data-name="Group 66821">
      <path id="Path_59312" data-name="Path 59312" d="M179.256,117.21c-1.059,0-1.954-.6-1.954-1.3s.895-1.3,1.954-1.3a2.311,2.311,0,0,1,1.521.513.651.651,0,1,0,.865-.974,3.447,3.447,0,0,0-1.735-.787v-.706a.651.651,0,1,0-1.3,0v.7a2.833,2.833,0,0,0-2.6,2.553c0,1.437,1.461,2.6,3.256,2.6,1.059,0,1.954.6,1.954,1.3s-.895,1.3-1.954,1.3a2.311,2.311,0,0,1-1.521-.513.651.651,0,0,0-.865.974,3.448,3.448,0,0,0,1.735.788v.7a.651.651,0,0,0,1.3,0v-.7a2.833,2.833,0,0,0,2.6-2.553C182.512,118.378,181.051,117.21,179.256,117.21Z" transform="translate(-176 -112)" fill="#82296e"/>
    </g>
  </g>
</svg>
