<svg id="notification" xmlns="http://www.w3.org/2000/svg" width="18.315" height="20.839" viewBox="0 0 18.315 20.839">
  <path id="Path_59315" data-name="Path 59315" d="M46.465,10.7V8.751a6.32,6.32,0,0,0-4.477-6.037V1.832a1.832,1.832,0,0,0-3.663,0v.882a6.32,6.32,0,0,0-4.477,6.037V10.7a9.586,9.586,0,0,1-2.679,6.665.611.611,0,0,0,.441,1.033h5.556a3.053,3.053,0,0,0,5.982,0H48.7a.611.611,0,0,0,.441-1.033A9.586,9.586,0,0,1,46.465,10.7ZM39.546,1.832a.611.611,0,0,1,1.221,0v.64c-.2-.019-.4-.03-.611-.03s-.41.01-.611.03Zm.611,17.786A1.834,1.834,0,0,1,38.43,18.4h3.453A1.834,1.834,0,0,1,40.157,19.618Zm-7.231-2.442A10.794,10.794,0,0,0,35.069,10.7V8.751a5.088,5.088,0,0,1,10.175,0V10.7a10.794,10.794,0,0,0,2.144,6.477Z" transform="translate(-30.999)" fill="#82296e"/>
  <path id="Path_59316" data-name="Path 59316" d="M392,58.161a.611.611,0,1,0,1.221,0,9.1,9.1,0,0,0-2.682-6.476.611.611,0,1,0-.863.863A7.885,7.885,0,0,1,392,58.161Z" transform="translate(-374.901 -49.41)" fill="#82296e"/>
  <path id="Path_59317" data-name="Path 59317" d="M31.611,58.772a.611.611,0,0,0,.611-.611,7.885,7.885,0,0,1,2.325-5.612.611.611,0,0,0-.863-.863A9.1,9.1,0,0,0,31,58.162.611.611,0,0,0,31.611,58.772Z" transform="translate(-31 -49.411)" fill="#82296e"/>
</svg>
