<svg xmlns="http://www.w3.org/2000/svg" width="25.858" height="20.875" viewBox="0 0 25.858 20.875">
  <g id="online-class_1_" data-name="online-class (1)" transform="translate(0 -49.333)" fill="#82296e">
    <path d="M 20.87491607666016 70.00788879394531 L 4.983066558837891 70.00788879394531 C 2.345686435699463 70.00788879394531 0.2000265270471573 67.86222076416016 0.2000265270471573 65.22483825683594 C 0.2000265270471573 64.77816009521484 0.5634264945983887 64.41475677490234 1.010096549987793 64.41475677490234 L 1.952846527099609 64.41475677490234 L 2.152846574783325 64.41475677490234 L 2.152846574783325 64.21475982666016 L 2.152846574783325 52.36322021484375 C 2.152846574783325 50.80262756347656 3.422476530075073 49.53298950195312 4.983066558837891 49.53298950195312 L 20.8748664855957 49.53298950195312 C 22.43545722961426 49.53298950195312 23.70508575439453 50.80262756347656 23.70508575439453 52.36322021484375 L 23.70508575439453 64.21475982666016 L 23.70508575439453 64.41475677490234 L 23.90508651733398 64.41475677490234 L 24.84783744812012 64.41475677490234 C 25.29450607299805 64.41475677490234 25.65790557861328 64.77816009521484 25.65790557861328 65.22483825683594 C 25.65790557861328 67.86222076416016 23.51226615905762 70.00788879394531 20.87491607666016 70.00788879394531 Z M 1.911936521530151 66.034912109375 L 2.009526491165161 66.30326843261719 C 2.462976455688477 67.550048828125 3.657946586608887 68.38774108886719 4.983066558837891 68.38774108886719 L 20.8748664855957 68.38774108886719 C 22.1999568939209 68.38774108886719 23.39494705200195 67.55005645751953 23.84844589233398 66.30326843261719 L 23.94606590270996 66.034912109375 L 23.66049575805664 66.034912109375 L 2.197486639022827 66.034912109375 L 1.911936521530151 66.034912109375 Z M 12.9289665222168 55.02108001708984 C 14.342116355896 55.02108001708984 15.57439613342285 55.83002090454102 16.14490699768066 57.13221740722656 C 16.7149772644043 58.43339920043945 16.47409629821777 59.88692855834961 15.51625633239746 60.92557907104492 L 15.35666656494141 61.09864807128906 L 15.55324649810791 61.22817993164062 C 16.60846710205078 61.92348098754883 17.35928726196289 63.02679824829102 17.6131763458252 64.25524139404297 L 17.64614677429199 64.41475677490234 L 17.80903625488281 64.41475677490234 L 21.88498687744141 64.41475677490234 L 22.08498573303223 64.41475677490234 L 22.08498573303223 64.21475982666016 L 22.08498573303223 52.36322021484375 C 22.08498573303223 51.69598007202148 21.54214668273926 51.15314102172852 20.87491607666016 51.15314102172852 L 4.983066558837891 51.15314102172852 C 4.315836429595947 51.15314102172852 3.772996425628662 51.69598007202148 3.772996425628662 52.36322021484375 L 3.772996425628662 64.21475982666016 L 3.772996425628662 64.41475677490234 L 3.972996473312378 64.41475677490234 L 8.048946380615234 64.41475677490234 L 8.211836814880371 64.41475677490234 L 8.244806289672852 64.25524139404297 C 8.498706817626953 63.02679061889648 9.249526977539062 61.92346954345703 10.30473613739014 61.22817993164062 L 10.50131607055664 61.09864807128906 L 10.34171676635742 60.92557907104492 C 9.383686065673828 59.8867301940918 9.142806053161621 58.43278884887695 9.713066101074219 57.13116073608398 C 10.28328609466553 55.82960891723633 11.51554679870605 55.02108001708984 12.9289665222168 55.02108001708984 Z M 12.9289665222168 62.06193923950195 C 11.6040563583374 62.06193923950195 10.40916633605957 62.89962005615234 9.955636978149414 64.14639282226562 L 9.858016967773438 64.41475677490234 L 10.14358615875244 64.41475677490234 L 15.71434688568115 64.41475677490234 L 15.99991607666016 64.41475677490234 L 15.90229606628418 64.14639282226562 C 15.44876670837402 62.89962005615234 14.25387668609619 62.06193923950195 12.9289665222168 62.06193923950195 Z M 12.9289665222168 56.64122772216797 C 11.88113689422607 56.64122772216797 11.02865695953369 57.49369812011719 11.02865695953369 58.54153060913086 C 11.02865695953369 59.58934020996094 11.88113689422607 60.44178771972656 12.9289665222168 60.44178771972656 C 13.97679615020752 60.44178771972656 14.8292760848999 59.58934020996094 14.8292760848999 58.54153060913086 C 14.8292760848999 57.49369812011719 13.97679615020752 56.64122772216797 12.9289665222168 56.64122772216797 Z" stroke="none"/>
    <path d="M 20.87491607666016 69.80789184570312 C 23.40198707580566 69.80789184570312 25.45790672302246 67.75193786621094 25.45790672302246 65.22483825683594 C 25.45790672302246 64.88843536376953 25.18422698974609 64.61476135253906 24.84783744812012 64.61476135253906 L 23.50508689880371 64.61476135253906 L 23.50508689880371 52.36322021484375 C 23.50508689880371 50.91291046142578 22.32517623901367 49.73299026489258 20.8748664855957 49.73299026489258 L 4.983066558837891 49.73299026489258 C 3.532756567001343 49.73299026489258 2.352846622467041 50.91291046142578 2.352846622467041 52.36322021484375 L 2.352846622467041 64.61476135253906 L 1.010096549987793 64.61476135253906 C 0.6737065315246582 64.61476135253906 0.4000265300273895 64.88843536376953 0.4000265300273895 65.22483825683594 C 0.4000265300273895 67.75193786621094 2.455966472625732 69.80789184570312 4.983066558837891 69.80789184570312 L 20.87491607666016 69.80789184570312 M 1.626376509666443 65.83490753173828 L 24.23162651062012 65.83490753173828 L 24.03640747070312 66.37163543701172 C 23.55426597595215 67.69715881347656 22.28374671936035 68.58773803710938 20.8748664855957 68.58773803710938 L 4.983066558837891 68.58773803710938 C 3.574166536331177 68.58773803710938 2.303656578063965 67.69715118408203 1.821576476097107 66.37162780761719 L 1.626376509666443 65.83490753173828 M 12.9289665222168 55.2210807800293 C 11.59618663787842 55.2210807800293 10.43412685394287 55.98373031616211 9.896256446838379 57.21141052246094 C 9.358356475830078 58.43918991088867 9.585376739501953 59.81042098999023 10.48874664306641 60.79000091552734 L 10.807936668396 61.1361198425293 L 10.41477680206299 61.39517974853516 C 9.40346622467041 62.06155014038086 8.683926582336426 63.11875915527344 8.440666198730469 64.29572296142578 L 8.374726295471191 64.61476135253906 L 3.572996616363525 64.61476135253906 L 3.572996616363525 52.36322021484375 C 3.572996616363525 51.58570098876953 4.205546379089355 50.95314025878906 4.983066558837891 50.95314025878906 L 20.87491607666016 50.95314025878906 C 21.65243721008301 50.95314025878906 22.28498649597168 51.58570098876953 22.28498649597168 52.36322021484375 L 22.28498649597168 64.61476135253906 L 17.48325729370117 64.61476135253906 L 17.41731643676758 64.29572296142578 C 17.1740665435791 63.11875915527344 16.45452690124512 62.06155776977539 15.44320678710938 61.39517974853516 L 15.05004692077637 61.1361198425293 L 15.36923694610596 60.79000091552734 C 16.27240562438965 59.81063079833984 16.49942588806152 58.43980026245117 15.9617166519165 57.21247863769531 C 15.4235668182373 55.98413848876953 14.26147651672363 55.2210807800293 12.9289665222168 55.2210807800293 M 12.9289665222168 61.8619384765625 C 14.33765697479248 61.8619384765625 15.60807609558105 62.75251007080078 16.09024620056152 64.07801818847656 L 16.28549575805664 64.61476135253906 L 9.572436332702637 64.61476135253906 L 9.76768684387207 64.07801818847656 C 10.24985694885254 62.75251007080078 11.52027606964111 61.8619384765625 12.9289665222168 61.8619384765625 M 12.9289665222168 56.44123077392578 C 14.08707618713379 56.44123077392578 15.02927684783936 57.38341903686523 15.02927684783936 58.54153060913086 C 15.02927684783936 59.69961929321289 14.08707618713379 60.64178848266602 12.9289665222168 60.64178848266602 C 11.7708568572998 60.64178848266602 10.82865619659424 59.69961929321289 10.82865619659424 58.54153060913086 C 10.82865619659424 57.38341903686523 11.7708568572998 56.44123077392578 12.9289665222168 56.44123077392578 M 20.87491607666016 70.2078857421875 L 4.983066558837891 70.2078857421875 C 2.235416412353516 70.2078857421875 2.652221701282542e-05 67.97249603271484 2.652221701282542e-05 65.22483825683594 C 2.652221701282542e-05 64.66697692871094 0.452236533164978 64.21475982666016 1.010096549987793 64.21475982666016 L 1.952846527099609 64.21475982666016 L 1.952846527099609 52.36322021484375 C 1.952846527099609 50.69234848022461 3.312206506729126 49.33298873901367 4.983066558837891 49.33298873901367 L 20.8748664855957 49.33298873901367 C 22.54572677612305 49.33298873901367 23.90508651733398 50.69234848022461 23.90508651733398 52.36322021484375 L 23.90508651733398 64.21475982666016 L 24.84783744812012 64.21475982666016 C 25.40569686889648 64.21475982666016 25.85790634155273 64.66697692871094 25.85790634155273 65.22483825683594 C 25.85790634155273 67.97249603271484 23.62251663208008 70.2078857421875 20.87491607666016 70.2078857421875 Z M 2.197486639022827 66.23490905761719 C 2.611366510391235 67.37290954589844 3.703816413879395 68.18773651123047 4.983066558837891 68.18773651123047 L 20.8748664855957 68.18773651123047 C 22.15412712097168 68.18773651123047 23.24656677246094 67.37290954589844 23.66049575805664 66.23490905761719 L 2.197486639022827 66.23490905761719 Z M 12.9289665222168 54.82107925415039 C 16.15559577941895 54.82107925415039 17.8535270690918 58.68613052368164 15.66328620910645 61.0611686706543 C 16.74744606018066 61.77553939819336 17.53757667541504 62.90131759643555 17.80903625488281 64.21475982666016 L 21.88498687744141 64.21475982666016 L 21.88498687744141 52.36322021484375 C 21.88498687744141 51.80625915527344 21.43186569213867 51.3531379699707 20.87491607666016 51.3531379699707 L 4.983066558837891 51.3531379699707 C 4.426116466522217 51.3531379699707 3.972996473312378 51.80625915527344 3.972996473312378 52.36322021484375 L 3.972996473312378 64.21475982666016 L 8.048946380615234 64.21475982666016 C 8.320406913757324 62.90137100219727 9.110536575317383 61.77553939819336 10.1946964263916 61.0611686706543 C 8.005966186523438 58.68778991699219 9.698906898498535 54.82107925415039 12.9289665222168 54.82107925415039 Z M 15.71434688568115 64.21475982666016 C 15.30041694641113 63.07685852050781 14.20812606811523 62.26194000244141 12.9289665222168 62.26194000244141 C 11.64980697631836 62.26194000244141 10.55751609802246 63.07685852050781 10.14358615875244 64.21475982666016 L 15.71434688568115 64.21475982666016 Z M 12.9289665222168 56.84122848510742 C 11.99141693115234 56.84122848510742 11.22865676879883 57.60398101806641 11.22865676879883 58.54153060913086 L 11.22865676879883 58.54153823852539 C 11.22865676879883 59.47908020019531 11.99141693115234 60.24179077148438 12.9289665222168 60.24179077148438 C 13.86651611328125 60.24179077148438 14.62927627563477 59.47908020019531 14.62927627563477 58.54153060913086 C 14.62927627563477 57.60398101806641 13.86651611328125 56.84122848510742 12.9289665222168 56.84122848510742 Z" stroke="none" fill="#f6f6f6"/>
  </g>
</svg>
