<svg xmlns="http://www.w3.org/2000/svg" width="20.84" height="20.84" viewBox="0 0 20.84 20.84">
  <g id="user" transform="translate(0)">
    <g id="Group_66828" data-name="Group 66828" transform="translate(0)">
      <g id="Path_59327" data-name="Path 59327" transform="translate(0)" fill="#82296e">
        <path d="M 18.37034034729004 20.74046516418457 L 2.470820903778076 20.74046516418457 C 1.754990935325623 20.74046516418457 1.085500836372375 20.42205429077148 0.6340008974075317 19.86687469482422 C 0.1801508963108063 19.30878448486328 0.004140891134738922 18.58392524719238 0.1511008888483047 17.87815475463867 C 0.6350308656692505 15.55357456207275 1.917070865631104 13.43805503845215 3.761040925979614 11.92129421234131 C 4.763170719146729 11.09700489044189 5.899981021881104 10.47206497192383 7.139900684356689 10.06384468078613 L 7.322140693664551 10.00385475158691 L 7.168581008911133 9.888824462890625 C 5.78079080581665 8.849305152893066 4.984850883483887 7.262674808502197 4.984850883483887 5.535744667053223 C 4.984850883483887 2.538464784622192 7.423320770263672 0.100004680454731 10.42060089111328 0.100004680454731 C 13.41788101196289 0.100004680454731 15.85635089874268 2.538464784622192 15.85635089874268 5.535744667053223 C 15.85635089874268 7.261484622955322 15.06130123138428 8.847455024719238 13.67506122589111 9.886994361877441 L 13.52164077758789 10.00203514099121 L 13.70379066467285 10.06198501586914 C 15.91018104553223 10.78817462921143 17.84046173095703 12.25472450256348 19.13906097412109 14.19147491455078 C 19.24529075622559 14.34988498687744 19.28347015380859 14.54018497467041 19.24656105041504 14.72731494903564 C 19.20964050292969 14.91444492340088 19.10207176208496 15.07599449157715 18.94365119934082 15.18221473693848 C 18.82550048828125 15.26141452789307 18.68823051452637 15.3032751083374 18.54668045043945 15.3032751083374 C 18.30772018432617 15.3032751083374 18.08573150634766 15.18496513366699 17.95286178588867 14.98677444458008 C 16.31253051757812 12.54043483734131 13.57861042022705 11.03783512115479 10.6396312713623 10.96733474731445 L 10.63650131225586 10.96725463867188 L 10.63338088989258 10.96737480163574 C 10.56250095367432 10.97011470794678 10.49091053009033 10.97149467468262 10.42060089111328 10.97149467468262 C 10.34986114501953 10.97149467468262 10.27855110168457 10.97012424468994 10.20866107940674 10.96741485595703 L 10.20551109313965 10.96729469299316 L 10.20237064361572 10.96737480163574 C 6.036251068115234 11.06813430786133 2.397090911865234 14.09695434570312 1.549270868301392 18.16923522949219 C 1.490320920944214 18.4523754119873 1.5605708360672 18.74271392822266 1.742010831832886 18.9658145904541 C 1.847270846366882 19.09521484375 2.081920862197876 19.31230545043945 2.470820903778076 19.31230545043945 L 18.37038993835449 19.31230545043945 C 18.75937080383301 19.31230545043945 18.99397087097168 19.09521484375 19.09920120239258 18.96580505371094 C 19.28062057495117 18.74260520935059 19.35086059570312 18.45227432250977 19.29193115234375 18.16923522949219 C 19.2530403137207 17.98250389099121 19.2892017364502 17.79182434082031 19.39374160766602 17.63229560852051 C 19.498291015625 17.47275543212891 19.65871047973633 17.36349487304688 19.8454418182373 17.32462501525879 C 19.89375114440918 17.3145751953125 19.9430103302002 17.30947494506836 19.99185180664062 17.30947494506836 C 20.32785034179688 17.30947494506836 20.62151145935059 17.54863548278809 20.69010162353516 17.87813377380371 C 20.83707046508789 18.58397483825684 20.66105079650879 19.30883407592773 20.20716094970703 19.86686515808105 C 19.75570106506348 20.42205429077148 19.08621025085449 20.74046516418457 18.37034034729004 20.74046516418457 Z M 10.42060089111328 1.528164625167847 C 8.210810661315918 1.528164625167847 6.413011074066162 3.325954675674438 6.413011074066162 5.535744667053223 C 6.413011074066162 7.673704624176025 8.084630966186523 9.43183422088623 10.2186107635498 9.538294792175293 L 10.22203063964844 9.538464546203613 L 10.22545051574707 9.538394927978516 C 10.29045104980469 9.537184715270996 10.3555212020874 9.536544799804688 10.42060089111328 9.536544799804688 C 10.48600101470947 9.536544799804688 10.55132102966309 9.537144660949707 10.616530418396 9.538354873657227 L 10.61996078491211 9.538424491882324 L 10.62338066101074 9.538244247436523 C 12.75692081451416 9.431374549865723 14.42819118499756 7.673264503479004 14.42819118499756 5.535744667053223 C 14.42819118499756 3.325954675674438 12.63039112091064 1.528164625167847 10.42060089111328 1.528164625167847 Z" stroke="none"/>
        <path d="M 18.37034034729004 20.64046478271484 C 19.05597114562988 20.64046478271484 19.69719123840332 20.33550453186035 20.12958145141602 19.80376434326172 C 20.56439018249512 19.26919555664062 20.73301124572754 18.57476425170898 20.59220123291016 17.89851379394531 C 20.53321075439453 17.61514472961426 20.28073120117188 17.40947532653809 19.99185180664062 17.40947532653809 C 19.9498405456543 17.40947532653809 19.90743064880371 17.41386413574219 19.86582183837891 17.42252540588379 C 19.70524024963379 17.45595550537109 19.56729125976562 17.5499153137207 19.47738075256348 17.68710517883301 C 19.38748168945312 17.82429504394531 19.35638999938965 17.9882640838623 19.38983154296875 18.14884376525879 C 19.45492172241211 18.46147537231445 19.37728118896484 18.78222465515137 19.17679023742676 19.02889442443848 C 19.06035041809082 19.17208480834961 18.80076026916504 19.41230392456055 18.37038993835449 19.41230392456055 L 2.470820903778076 19.41230392456055 C 2.040530920028687 19.41230392456055 1.780900835990906 19.17210388183594 1.664430856704712 19.02890396118164 C 1.463910937309265 18.7823543548584 1.386260867118835 18.46158409118652 1.45137083530426 18.14885520935059 C 2.308560848236084 14.03156471252441 5.987880706787109 10.96927452087402 10.199951171875 10.86740493774414 L 10.2062406539917 10.86725425720215 L 10.21252059936523 10.86749458312988 C 10.34933662414551 10.87277793884277 10.48989677429199 10.87283039093018 10.62953090667725 10.86745452880859 L 10.63578128814697 10.86721515655518 L 10.64203071594238 10.86736488342285 C 13.61344051361084 10.93864440917969 16.37751007080078 12.45779514312744 18.03592109680176 14.93109512329102 C 18.15018081665039 15.10152435302734 18.34112167358398 15.20327472686768 18.54668045043945 15.20327472686768 C 18.66833114624023 15.20327472686768 18.78635025024414 15.16726493835449 18.88796043395996 15.09915447235107 C 19.02420043945312 15.00781440734863 19.11670112609863 14.8688850402832 19.14845085144043 14.70796489715576 C 19.18019104003906 14.54704475402832 19.14736175537109 14.38339424133301 19.05600166320801 14.24716472625732 C 17.76975059509277 12.32882499694824 15.85786056518555 10.87623500823975 13.67252063751221 10.15696430206299 L 13.30824089050293 10.03707504272461 L 13.61506080627441 9.806984901428223 C 14.97588062286377 8.786514282226562 15.75635051727295 7.229704856872559 15.75635051727295 5.535744667053223 C 15.75635051727295 2.593604564666748 13.3627405166626 0.2000046819448471 10.42060089111328 0.2000046819448471 C 7.478460788726807 0.2000046819448471 5.084850788116455 2.593604564666748 5.084850788116455 5.535744667053223 C 5.084850788116455 7.230874538421631 5.866190910339355 8.788334846496582 7.228530883789062 9.808794975280762 L 7.535650730133057 10.03883457183838 L 7.171170711517334 10.15883445739746 C 5.943060874938965 10.56316471099854 4.81709098815918 11.18212509155273 3.824560880661011 11.99852466583252 C 1.998130917549133 13.50086498260498 0.7283108830451965 15.59619426727295 0.2490008920431137 17.89853477478027 C 0.1082008928060532 18.57471466064453 0.276810884475708 19.26915550231934 0.7115908861160278 19.80377388000488 C 1.144010901451111 20.33550453186035 1.785220861434937 20.64046478271484 2.470820903778076 20.64046478271484 L 18.37034034729004 20.64046478271484 M 10.42060089111328 1.428164720535278 C 12.68553066253662 1.428164720535278 14.52819061279297 3.270814657211304 14.52819061279297 5.535744667053223 C 14.52819061279297 7.7265944480896 12.8151912689209 9.52857494354248 10.62839126586914 9.638124465942383 L 10.62153053283691 9.63846492767334 L 10.614670753479 9.638344764709473 C 10.48582935333252 9.635951042175293 10.35638999938965 9.635978698730469 10.22731113433838 9.638384819030762 L 10.22046089172363 9.638504981994629 L 10.21363067626953 9.638164520263672 C 8.026360511779785 9.529054641723633 6.313010692596436 7.727054595947266 6.313010692596436 5.535744667053223 C 6.313010692596436 3.270814657211304 8.155671119689941 1.428164720535278 10.42060089111328 1.428164720535278 M 18.37034034729004 20.8404655456543 L 2.470820903778076 20.8404655456543 C 1.724790930747986 20.8404655456543 1.027000904083252 20.50861549377441 0.5564208626747131 19.92996406555176 C 0.08352088928222656 19.34846496582031 -0.09992910921573639 18.59315490722656 0.05320088937878609 17.85776519775391 C 0.541770875453949 15.51092433929443 1.836040854454041 13.37522506713867 3.697510957717896 11.84406471252441 C 4.712670803070068 11.00905513763428 5.872530937194824 10.37582492828369 7.108630657196045 9.968864440917969 C 5.759500980377197 8.958304405212402 4.884850978851318 7.347244739532471 4.884850978851318 5.535744667053223 C 4.884850978851318 2.483354568481445 7.368160724639893 4.680175607063575e-06 10.42060089111328 4.680175607063575e-06 C 13.47304058074951 4.680175607063575e-06 15.9563512802124 2.483354568481445 15.9563512802124 5.535744667053223 C 15.9563512802124 7.346144676208496 15.08276081085205 8.956355094909668 13.73505115509033 9.966994285583496 C 15.9466609954834 10.69490432739258 17.88633155822754 12.14356422424316 19.22212028503418 14.13578510284424 C 19.47253036499023 14.50919437408447 19.37276077270508 15.01490497589111 18.99934005737305 15.26527500152588 C 18.62584495544434 15.51564025878906 18.12018203735352 15.41592502593994 17.86980056762695 15.04246425628662 C 16.24005126953125 12.61190509796143 13.54887104034424 11.1371545791626 10.63723087310791 11.06730461120605 C 10.49368762969971 11.07283592224121 10.34822750091553 11.07289409637451 10.20479106903076 11.06734466552734 C 6.071331024169922 11.16731452941895 2.492020845413208 14.13162422180176 1.647170901298523 18.18961524963379 C 1.594380855560303 18.44316482543945 1.657220840454102 18.70306396484375 1.819590926170349 18.90271377563477 C 1.913620948791504 19.01831436157227 2.123281002044678 19.21230506896973 2.470820903778076 19.21230506896973 L 18.37038993835449 19.21230506896973 C 18.71791076660156 19.21230506896973 18.92758178710938 19.01835441589355 19.02161026000977 18.90271377563477 C 19.18393135070801 18.7030143737793 19.2468204498291 18.44316482543945 19.19403076171875 18.18961524963379 C 19.10236167907715 17.74948501586914 19.38489151000977 17.31834411621094 19.8250617980957 17.22672462463379 C 20.26535034179688 17.13509368896484 20.69638061523438 17.41762542724609 20.78800010681152 17.85775375366211 C 20.94113159179688 18.59315490722656 20.75772094726562 19.34846496582031 20.28474044799805 19.92996406555176 C 19.81420135498047 20.50861549377441 19.11641120910645 20.8404655456543 18.37034034729004 20.8404655456543 Z M 10.42060089111328 1.628164649009705 C 8.265931129455566 1.628164649009705 6.51301097869873 3.381084680557251 6.51301097869873 5.535744667053223 C 6.51301097869873 7.624354839324951 8.160100936889648 9.335474967956543 10.22359085083008 9.438414573669434 C 10.35515213012695 9.435969352722168 10.487060546875 9.435940742492676 10.61838054656982 9.438374519348145 C 12.68151092529297 9.335024833679199 14.32819080352783 7.624074459075928 14.32819080352783 5.535744667053223 C 14.32819080352783 3.381084680557251 12.575270652771 1.628164649009705 10.42060089111328 1.628164649009705 Z" stroke="none" fill="#fff"/>
      </g>
    </g>
  </g>
</svg>
