<svg xmlns="http://www.w3.org/2000/svg" width="38" height="38" viewBox="0 0 38 38">
  <g id="chat" transform="translate(-33 -753)">
    <rect id="Rectangle_4061" data-name="Rectangle 4061" width="38" height="38" rx="10" transform="translate(33 753)" fill="#ffd594"/>
    <g id="message" transform="translate(41.723 763.51)">
      <path id="Path_24528" data-name="Path 24528" d="M16.391.5H4.229A4.233,4.233,0,0,0,0,4.728V11.26a4.16,4.16,0,0,0,2.992,4L5.034,17.3a.6.6,0,0,0,.854,0l1.873-1.874h8.629A4.233,4.233,0,0,0,20.62,11.2V4.728A4.233,4.233,0,0,0,16.391.5Zm3.02,10.7a3.024,3.024,0,0,1-3.02,3.02H7.512a.6.6,0,0,0-.427.177L5.461,16.02,3.732,14.291a.6.6,0,0,0-.281-.159A2.954,2.954,0,0,1,1.208,11.26V4.728a3.024,3.024,0,0,1,3.02-3.02H16.391a3.024,3.024,0,0,1,3.02,3.02Zm0,0" transform="translate(0 -0.5)"/>
      <path id="Path_24529" data-name="Path 24529" d="M154.033,144.328h-7.671a.6.6,0,1,0,0,1.208h7.671a.6.6,0,1,0,0-1.208Zm0,0" transform="translate(-139.888 -138.536)"/>
      <path id="Path_24530" data-name="Path 24530" d="M154.033,197.352h-7.671a.6.6,0,0,0,0,1.208h7.671a.6.6,0,1,0,0-1.208Zm0,0" transform="translate(-139.888 -189.424)"/>
    </g>
  </g>
</svg>
