<svg id="clock" xmlns="http://www.w3.org/2000/svg" width="20.878" height="20.878" viewBox="0 0 20.878 20.878">
  <path id="Path_24519" data-name="Path 24519" d="M18.681,5.493a.87.87,0,0,0-.4,1.162,8.61,8.61,0,0,1,.861,3.784,8.7,8.7,0,1,1-8.7-8.7,8.594,8.594,0,0,1,5.4,1.877.87.87,0,1,0,1.082-1.362,10.44,10.44,0,1,0,3.956,8.184A10.332,10.332,0,0,0,19.843,5.9a.869.869,0,0,0-1.162-.4Zm0,0" transform="translate(0 0)" fill="#924781"/>
  <path id="Path_24520" data-name="Path 24520" d="M176.87,64a.87.87,0,0,0-.87.87v6.089a.87.87,0,0,0,.87.87h4.349a.87.87,0,0,0,0-1.74h-3.48V64.87A.87.87,0,0,0,176.87,64Zm0,0" transform="translate(-166.431 -60.52)" fill="#924781"/>
</svg>
