<svg id="_002-email" data-name="002-email" xmlns="http://www.w3.org/2000/svg" width="17.287" height="11.885" viewBox="0 0 17.287 11.885">
  <g id="Group_14944" data-name="Group 14944" transform="translate(11.459 2.191)">
    <g id="Group_14943" data-name="Group 14943">
      <path id="Path_26531" data-name="Path 26531" d="M339.392,148.736l5.828,3.684V144.9Z" transform="translate(-339.392 -144.896)" fill="#924781"/>
    </g>
  </g>
  <g id="Group_14946" data-name="Group 14946" transform="translate(0 2.191)">
    <g id="Group_14945" data-name="Group 14945">
      <path id="Path_26532" data-name="Path 26532" d="M0,144.9v7.524l5.828-3.684Z" transform="translate(0 -144.896)" fill="#924781"/>
    </g>
  </g>
  <g id="Group_14948" data-name="Group 14948" transform="translate(0.032)">
    <g id="Group_14947" data-name="Group 14947">
      <path id="Path_26533" data-name="Path 26533" d="M17.134,80H2.008a1.067,1.067,0,0,0-1.048.919l8.611,5.673,8.611-5.673A1.067,1.067,0,0,0,17.134,80Z" transform="translate(-0.96 -80)" fill="#924781"/>
    </g>
  </g>
  <g id="Group_14950" data-name="Group 14950" transform="translate(0.035 6.682)">
    <g id="Group_14949" data-name="Group 14949">
      <path id="Path_26534" data-name="Path 26534" d="M11.459,277.921,9.93,278.928a.543.543,0,0,1-.594,0L7.807,277.92l-6.783,4.29a1.065,1.065,0,0,0,1.046.912H17.2a1.065,1.065,0,0,0,1.046-.912Z" transform="translate(-1.024 -277.92)" fill="#924781"/>
    </g>
  </g>
</svg>
