<svg version="1.0" id="Layer_1" xmlns="http://www.w3.org/2000/svg" x="0" y="0" style="enable-background:new 0 0 841.9 595.3" xml:space="preserve" viewBox="203.6 190.6 434.7 214"><style>.st5{fill:#462812}.st13{fill:#222933}.st14{fill:#fff}.st15{opacity:.6;fill:#cb78ae}.st16{fill:#5b194a}</style><linearGradient id="SVGID_1_" gradientUnits="userSpaceOnUse" x1="402.421" y1="383.585" x2="414.283" y2="391.493" gradientTransform="translate(-167.994)"><stop offset="0" style="stop-color:#f9e929"/><stop offset=".66" style="stop-color:#7ec254"/><stop offset="1" style="stop-color:#44b069"/></linearGradient><path d="M249.1 391.4s-.8-4.7-6.6-4c0 0-1.7.5-3.3-.1 0 0 1.5 8.1 8.9 5.9 0 0-4-2.1-4.8-3.2 0 0 4.1 2.6 5.8 1.4z" style="fill:url(#SVGID_1_)" data-index="0"/><linearGradient id="SVGID_2_" gradientUnits="userSpaceOnUse" x1="419.759" y1="424.464" x2="419.759" y2="390.29" gradientTransform="translate(-167.994)"><stop offset="0" style="stop-color:#f9e929"/><stop offset=".66" style="stop-color:#7ec254"/><stop offset="1" style="stop-color:#44b069"/></linearGradient><path d="M250.9 392.9s-4.1 2.2-1.5 6.6c0 0 1.7 2.1 1.1 5.1 0 0 8-6.3 2.3-11.8 0 0 .4 4.5-.8 5.9.1.1 1-5.7-1.1-5.8z" style="fill:url(#SVGID_2_)" data-index="1"/><linearGradient id="SVGID_3_" gradientUnits="userSpaceOnUse" x1="450.835" y1="403.65" x2="433.325" y2="383.598" gradientTransform="translate(-167.994)"><stop offset="0" style="stop-color:#f9e929"/><stop offset=".66" style="stop-color:#7ec254"/><stop offset="1" style="stop-color:#44b069"/></linearGradient><path d="M263.7 382.9s-1.4 4.4 3.9 6c0 0 1.8-.1 2.3 3.2 0 0 3.2-9.9-5.2-10.5 0 0 2.6 1.3 2.7 4.3.1 0-1.6-3.8-3.7-3z" style="fill:url(#SVGID_3_)" data-index="2"/><linearGradient id="SVGID_4_" gradientUnits="userSpaceOnUse" x1="447.798" y1="336.407" x2="421.532" y2="369.451" gradientTransform="translate(-167.994)"><stop offset="0" style="stop-color:#f9e929"/><stop offset=".66" style="stop-color:#7ec254"/><stop offset="1" style="stop-color:#44b069"/></linearGradient><path d="M266.5 353.8s-2.7 1.2-2.5 4.4c0 0 1 7.3-5.7 8.6 0 0 .5-4.7 2.4-5.6 0 0-3.1 1.8-3.4 4.9 0 0-2.2-2.6.4-7.9 1.2-2.2 3.8-4.1 8.8-4.4z" style="fill:url(#SVGID_4_)" data-index="3"/><linearGradient id="SVGID_5_" gradientUnits="userSpaceOnUse" x1="395.166" y1="326.925" x2="412.959" y2="363.923" gradientTransform="translate(-167.994)"><stop offset="0" style="stop-color:#f9e929"/><stop offset=".661" style="stop-color:#7ec254"/><stop offset="1" style="stop-color:#43af69"/></linearGradient><path d="M254.7 368.6s2.8-14.8-11.2-20.4c0 0-12-3.1-14-9.9 0 0-3.9 19.9 7.3 28.5 0 0 9.2 4.5 14.4 3.3 0 0-5.9-6.1-8.4-13.1.1 0 6.9 8.5 11.9 11.6z" style="fill:url(#SVGID_5_)" data-index="4"/><path class="st5" d="M308.1 364c-36.5 2.4-75.2 8.8-104.5 23.4 0 0 20.6-8.4 63.2-13.7 0 0-9 5.9-15.8 17.3 0 0 16.2-16 28.4-18.7 8.8-.9 18.3-1.1 28.6-1.6V364zM351.8 362.9c43-2.1 67.7-1.1 67.7-1.1v8c-31.6.4-45.3.2-67.8.1l.1-7zM334.7 362.9c-3.2.1-6.5.1-9.8.2v6.9c3.2-.1 6.4-.1 9.8-.1v-7z" data-index="5"/><g><linearGradient id="SVGID_6_" gradientUnits="userSpaceOnUse" x1="533.872" y1="175.939" x2="533.872" y2="1240.649" gradientTransform="translate(-167.994)"><stop offset="0" style="stop-color:#f8b100"/><stop offset=".104" style="stop-color:#eecb60"/><stop offset=".169" style="stop-color:#d02d53"/><stop offset=".61" style="stop-color:#943d79"/><stop offset=".646" style="stop-color:#8e3e7c"/><stop offset="1" style="stop-color:#544294"/></linearGradient><path d="M364 307.3c10-7 17.1-16.2 21.8-24.1.9 11.1 2.1 59.2-40.3 69.5.1 0 32.1-18.1 18.5-45.4z" style="fill:url(#SVGID_6_)" data-index="6"/><linearGradient id="SVGID_7_" gradientUnits="userSpaceOnUse" x1="460.187" y1="175.939" x2="460.187" y2="1240.649" gradientTransform="translate(-167.994)"><stop offset="0" style="stop-color:#f8b100"/><stop offset=".104" style="stop-color:#eecb60"/><stop offset=".169" style="stop-color:#d02d53"/><stop offset=".61" style="stop-color:#943d79"/><stop offset=".646" style="stop-color:#8e3e7c"/><stop offset="1" style="stop-color:#544294"/></linearGradient><path d="M272.2 283.2c4.7 7.9 11.8 17.1 21.8 24.1-13.6 27.3 18.4 45.4 18.4 45.4-42.3-10.3-41.1-58.4-40.2-69.5z" style="fill:url(#SVGID_7_)" data-index="7"/></g><g><path class="st5" d="M309.8 357.7c1.1.7 2.4 1.3 3.7 1.9v11.7c0 1-.8 1.9-1.9 1.9-1 0-1.9-.8-1.9-1.9l.1-13.6M318.2 371.2c0 1-.8 1.9-1.9 1.9-1 0-1.9-.8-1.9-1.9v-11.3c1.2.4 2.4.8 3.7 1.2v10.1zM322.8 371.2c0 1-.8 1.9-1.9 1.9-1 0-1.9-.8-1.9-1.9v-9.9c1.2.3 2.4.5 3.7.7l.1 9.2z" data-index="8"/><g><path class="st5" d="M349.4 357.7c-1.1.7-2.4 1.3-3.7 1.9v11.7c0 1 .8 1.9 1.9 1.9 1 0 1.9-.8 1.9-1.9l-.1-13.6M341.1 371.2c0 1 .8 1.9 1.9 1.9 1 0 1.9-.8 1.9-1.9v-11.3c-1.2.4-2.4.8-3.7 1.2l-.1 10.1zM336.4 371.2c0 1 .8 1.9 1.9 1.9 1 0 1.9-.8 1.9-1.9v-9.9c-1.2.3-2.4.5-3.7.7l-.1 9.2z" data-index="9"/></g></g><g><linearGradient id="SVGID_8_" gradientUnits="userSpaceOnUse" x1="497.029" y1="89.527" x2="497.029" y2="1320.291" gradientTransform="translate(-167.994)"><stop offset="0" style="stop-color:#f8b100"/><stop offset=".104" style="stop-color:#eecb60"/><stop offset=".169" style="stop-color:#d02d53"/><stop offset=".61" style="stop-color:#943d79"/><stop offset=".646" style="stop-color:#8e3e7c"/><stop offset="1" style="stop-color:#544294"/></linearGradient><path d="M329 273.8s-1.8-10.4-10.7-15c0 0 6-8.2 5.5-27.4 0 0 0-18.5-25.3-18.3 0 0-43.8 1-41.4-22.5-4.4 24.4 10.5 28.3 10.5 28.3-5.1 9.2 3.7 33.8 3.7 33.8 16.2 47.8 57.6 45.2 57.6 45.2s41.5 2.6 57.6-45.2c0 0 8.8-24.6 3.7-33.8 0 0 15-3.9 10.5-28.3 2.4 23.5-41.4 22.5-41.4 22.5-25.3-.2-25.3 18.3-25.3 18.3-.5 19.2 5.5 27.4 5.5 27.4-8.7 4.6-10.5 15-10.5 15z" style="fill:url(#SVGID_8_)" data-index="10"/><linearGradient id="SVGID_9_" gradientUnits="userSpaceOnUse" x1="4812.306" y1="240.044" x2="4854.216" y2="240.044" gradientTransform="matrix(-1 0 0 1 5190.513 0)"><stop offset=".001" style="stop-color:#a699bc"/><stop offset=".993" style="stop-color:#432a37"/></linearGradient><circle cx="357.3" cy="240" r="21" style="fill:url(#SVGID_9_)"/><linearGradient id="SVGID_10_" gradientUnits="userSpaceOnUse" x1="4812.716" y1="240.044" x2="4853.807" y2="240.044" gradientTransform="matrix(-1 0 0 1 5190.513 0)"><stop offset="0" style="stop-color:#ece1f0"/><stop offset=".996" style="stop-color:#bdc6e6"/></linearGradient><circle cx="357.3" cy="240" r="20.5" style="fill:url(#SVGID_10_)"/><linearGradient id="SVGID_11_" gradientUnits="userSpaceOnUse" x1="-4300.914" y1="250.273" x2="-4300.914" y2="229.815" gradientTransform="translate(4658.166)"><stop offset="0" style="stop-color:#48204c"/><stop offset="1" style="stop-color:#2f173a"/></linearGradient><circle cx="357.3" cy="240" r="10.2" style="fill:url(#SVGID_11_)"/><linearGradient id="SVGID_12_" gradientUnits="userSpaceOnUse" x1="-4300.914" y1="249.674" x2="-4300.914" y2="230.414" gradientTransform="translate(4658.166)"><stop offset="0" style="stop-color:#57335b"/><stop offset="1" style="stop-color:#2f173a"/></linearGradient><circle cx="357.3" cy="240" r="9.6" style="fill:url(#SVGID_12_)"/><circle class="st13" cx="357.3" cy="240" r="6.2"/><path class="st14" d="M364 237.8c-.8 1.1 2.8 1.3 5.4-.3 2.4-1.5 3.5-3.9 3.3-4.3-.2-.4-5.7.4-8.7 4.6zM362.7 238.8c-1-.3-2.2.2-2.2.7s1.2 1.2 1.8 1c.6-.2 1-1.5.4-1.7z" data-index="11"/><g><path class="st15" d="M338.4 231.8s15.3-14.3 34.8-4.6l-1.2-1.3s-6.6-7.3-16-6.9c-13.5.4-17.6 12.8-17.6 12.8z" data-index="12"/><path class="st16" d="M364.1 220.1c-2.7-.7-17.2-5.3-24.8 9.7 0 0 4.7-8.3 15.8-9.2s15.7 4 15.7 4-2.1-2.5-6.7-4.5z" data-index="13"/></g><linearGradient id="SVGID_13_" gradientUnits="userSpaceOnUse" x1="497.029" y1="156.903" x2="497.029" y2="1704.237" gradientTransform="translate(-167.994)"><stop offset="0" style="stop-color:#f8b100"/><stop offset=".104" style="stop-color:#eecb60"/><stop offset=".169" style="stop-color:#d02d53"/><stop offset=".61" style="stop-color:#943d79"/><stop offset=".646" style="stop-color:#8e3e7c"/><stop offset="1" style="stop-color:#544294"/></linearGradient><path d="M329 270.1s1.8-6.7 10.7-11.3c0 0-7.4-8.2-6.9-27.4 0 0 .4-21 25.6-20.8 0 0 44.8 3.5 42.4-20 0 0-4.7 12.3-28.1 7 0 0-30.9-9.7-43.8 6.7-12.9-16.5-43.8-6.7-43.8-6.7-23.4 5.2-28.1-7-28.1-7-2.4 23.5 42.4 20 42.4 20 25.3-.2 25.6 20.8 25.6 20.8.5 19.2-6.9 27.4-6.9 27.4 9.2 4.6 10.9 11.3 10.9 11.3z" style="fill:url(#SVGID_13_)" data-index="14"/><g><linearGradient id="SVGID_14_" gradientUnits="userSpaceOnUse" x1="447.858" y1="240.044" x2="489.767" y2="240.044" gradientTransform="translate(-167.994)"><stop offset=".001" style="stop-color:#a699bc"/><stop offset=".993" style="stop-color:#432a37"/></linearGradient><circle cx="300.8" cy="240" r="21" style="fill:url(#SVGID_14_)"/><linearGradient id="SVGID_15_" gradientUnits="userSpaceOnUse" x1="448.267" y1="240.044" x2="489.358" y2="240.044" gradientTransform="translate(-167.994)"><stop offset="0" style="stop-color:#ece1f0"/><stop offset=".996" style="stop-color:#bdc6e6"/></linearGradient><circle cx="300.8" cy="240" r="20.5" style="fill:url(#SVGID_15_)"/><linearGradient id="SVGID_16_" gradientUnits="userSpaceOnUse" x1="63.535" y1="250.273" x2="63.535" y2="229.815" gradientTransform="matrix(-1 0 0 1 364.353 0)"><stop offset="0" style="stop-color:#48204c"/><stop offset="1" style="stop-color:#2f173a"/></linearGradient><circle cx="300.8" cy="240" r="10.2" style="fill:url(#SVGID_16_)"/><linearGradient id="SVGID_17_" gradientUnits="userSpaceOnUse" x1="63.535" y1="249.674" x2="63.535" y2="230.414" gradientTransform="matrix(-1 0 0 1 364.353 0)"><stop offset="0" style="stop-color:#57335b"/><stop offset="1" style="stop-color:#2f173a"/></linearGradient><circle cx="300.8" cy="240" r="9.6" style="fill:url(#SVGID_17_)"/><circle class="st13" cx="300.8" cy="240" r="6.2"/><path class="st14" d="M294 237.8c.8 1.1-2.8 1.3-5.4-.3-2.4-1.5-3.5-3.9-3.3-4.3.3-.4 5.7.4 8.7 4.6zM295.3 238.8c1-.3 2.2.2 2.2.7 0 .5-1.2 1.2-1.8 1-.5-.2-.9-1.5-.4-1.7z" data-index="15"/><g><path class="st15" d="M319.6 231.8s-15.3-14.3-34.8-4.6l1.2-1.3s6.6-7.3 16-6.9c13.6.4 17.6 12.8 17.6 12.8z" data-index="16"/><path class="st16" d="M294 220.1c2.7-.7 17.2-5.3 24.8 9.7 0 0-4.7-8.3-15.8-9.2s-15.7 4-15.7 4 2.1-2.5 6.7-4.5z" data-index="17"/></g></g><linearGradient id="SVGID_18_" gradientUnits="userSpaceOnUse" x1="497.029" y1="252.822" x2="497.029" y2="265.837" gradientTransform="translate(-167.994)"><stop offset="0" style="stop-color:#57335b;stop-opacity:.2"/><stop offset="1" style="stop-color:#2f173a"/></linearGradient><path d="M329 273.8s-1.8-10.4-10.7-15l-1.9 1.3s8.8 5.7 12.6 17.1c3.9-11.3 12.6-17.1 12.6-17.1l-1.9-1.3c-8.9 4.6-10.7 15-10.7 15z" style="opacity:.71;fill:url(#SVGID_18_)" data-index="18"/><linearGradient id="SVGID_19_" gradientUnits="userSpaceOnUse" x1="525.168" y1="319.82" x2="525.168" y2="319.82" gradientTransform="translate(-167.994)"><stop offset="0" style="stop-color:#57335b;stop-opacity:.2"/><stop offset="1" style="stop-color:#2f173a"/></linearGradient></g><g><linearGradient id="SVGID_20_" gradientUnits="userSpaceOnUse" x1="497.029" y1="256.058" x2="497.029" y2="427.156" gradientTransform="translate(-167.994)"><stop offset="0" style="stop-color:#f8b100"/><stop offset=".104" style="stop-color:#eecb60"/><stop offset=".169" style="stop-color:#d02d53"/><stop offset=".61" style="stop-color:#943d79"/><stop offset=".646" style="stop-color:#8e3e7c"/><stop offset="1" style="stop-color:#544294"/></linearGradient><path d="M299.3 310.6c8.2 4.6 18 7.6 29.7 7.6s21.6-3 29.7-7.6c1.7 3.9 2.8 8.5 2.4 14.1 0 0-.7 28.5-32.1 32.8-31.4-4.3-32.1-32.8-32.1-32.8-.4-5.6.7-10.3 2.4-14.1z" style="fill:url(#SVGID_20_)" data-index="19"/><linearGradient id="SVGID_21_" gradientUnits="userSpaceOnUse" x1="497.027" y1="190.64" x2="497.027" y2="653.201" gradientTransform="translate(-167.994)"><stop offset="0" style="stop-color:#f8b100"/><stop offset=".104" style="stop-color:#eecb60"/><stop offset=".169" style="stop-color:#d02d53"/><stop offset=".61" style="stop-color:#943d79"/><stop offset=".646" style="stop-color:#8e3e7c"/><stop offset="1" style="stop-color:#544294"/></linearGradient><path d="M329 313c-48.8 0-64.7-51.9-64.7-51.9-8.9-31.7 3.4-42.2 3.4-42.2-6.6 9.5 1.4 36.2 1.4 36.2 15.7 47.9 59.9 47.2 59.9 47.2s44.2.8 59.9-47.2c0 0 8-26.8 1.4-36.2 0 0 12.3 10.5 3.4 42.2.1 0-15.9 51.9-64.7 51.9z" style="fill:url(#SVGID_21_)" data-index="20"/></g><g><linearGradient id="SVGID_22_" gradientUnits="userSpaceOnUse" x1="606.888" y1="261.898" x2="606.888" y2="380.082" gradientTransform="translate(-167.994)"><stop offset="0" style="stop-color:#f8b100"/><stop offset=".104" style="stop-color:#eecb60"/><stop offset=".169" style="stop-color:#d02d53"/><stop offset=".61" style="stop-color:#943d79"/><stop offset=".646" style="stop-color:#8e3e7c"/><stop offset="1" style="stop-color:#544294"/></linearGradient><path d="M462.5 294.4H447v53c0 1-.9 1.8-1.9 1.8h-12.5c-1 0-1.9-.8-1.9-1.8v-53h-15.6c-1 0-1.9-.7-1.9-1.7v-9.4c0-1 .9-1.7 1.9-1.7h47.3c1 0 2 .7 2 1.7v9.4c.1 1-.8 1.7-1.9 1.7z" style="fill:url(#SVGID_22_)" data-index="21"/><linearGradient id="SVGID_23_" gradientUnits="userSpaceOnUse" x1="664.476" y1="261.898" x2="664.476" y2="380.082" gradientTransform="translate(-167.994)"><stop offset="0" style="stop-color:#f8b100"/><stop offset=".104" style="stop-color:#eecb60"/><stop offset=".169" style="stop-color:#d02d53"/><stop offset=".61" style="stop-color:#943d79"/><stop offset=".646" style="stop-color:#8e3e7c"/><stop offset="1" style="stop-color:#544294"/></linearGradient><path d="M518.2 348.6c-3.8.5-15.7 1.5-20.8 1.5-16.9 0-28.4-5.3-28.4-26.1v-40.7c0-1 .9-1.7 1.9-1.7h12.5c1 0 1.9.7 1.9 1.7V324c0 9.3 2.6 13 11.2 13 3.2 0 7.9-.3 11.2-.6v-53.1c0-1 .9-1.7 1.9-1.7H522c1 0 2 .7 2 1.7v59c0 4.4-1.7 5.7-5.8 6.3z" style="fill:url(#SVGID_23_)" data-index="22"/><linearGradient id="SVGID_24_" gradientUnits="userSpaceOnUse" x1="720.723" y1="261.898" x2="720.723" y2="380.082" gradientTransform="translate(-167.994)"><stop offset="0" style="stop-color:#f8b100"/><stop offset=".104" style="stop-color:#eecb60"/><stop offset=".169" style="stop-color:#d02d53"/><stop offset=".61" style="stop-color:#943d79"/><stop offset=".646" style="stop-color:#8e3e7c"/><stop offset="1" style="stop-color:#544294"/></linearGradient><path d="M550.7 350.1c-7.5 0-13.2-.8-18-2-1-.3-1.9-.8-1.9-1.8v-8.9c0-1.3.8-1.7 1.7-1.7h.3c3.9.4 14.4 1.1 18.1 1.1 6.6 0 8.5-2 8.5-6.4 0-2.6-1.3-4.1-6.3-6.9l-13.2-7.5c-8.9-5-11.3-10.8-11.3-17.4 0-10 5.9-17.8 24.4-17.8 7 0 16.6 1.1 20.2 2 .8.2 1.4.6 1.4 1.6v9.2c0 .8-.4 1.5-1.6 1.5h-.2c-2.7-.2-13.7-1-20.2-1-5.4 0-7.4 1.5-7.4 4.8 0 2.6 1.2 3.7 6.4 6.4l12.2 6.3c9.9 5.1 12.9 11.1 12.9 18.5.1 9.7-6.6 20-26 20z" style="fill:url(#SVGID_24_)" data-index="23"/><linearGradient id="SVGID_25_" gradientUnits="userSpaceOnUse" x1="776.972" y1="261.898" x2="776.972" y2="380.082" gradientTransform="translate(-167.994)"><stop offset="0" style="stop-color:#f8b100"/><stop offset=".104" style="stop-color:#eecb60"/><stop offset=".169" style="stop-color:#d02d53"/><stop offset=".61" style="stop-color:#943d79"/><stop offset=".646" style="stop-color:#8e3e7c"/><stop offset="1" style="stop-color:#544294"/></linearGradient><path d="M630.7 348.6c-3.8.5-15.7 1.5-20.8 1.5-16.9 0-28.4-5.3-28.4-26.1v-40.7c0-1 .9-1.7 1.9-1.7h12.5c1 0 1.9.7 1.9 1.7V324c0 9.3 2.6 13 11.2 13 3.2 0 7.9-.3 11.2-.6v-53.1c0-1 .9-1.7 1.9-1.7h12.4c1 0 2 .7 2 1.7v59c0 4.4-1.8 5.7-5.8 6.3z" style="fill:url(#SVGID_25_)" data-index="24"/><g><path class="st5" d="M436.7 370.6c-.4.1-1 .2-2.6.2-1.8 0-3.1-.5-3.1-2.6v-4.5c0-2.2 1.4-2.6 3.1-2.6 1.6 0 2.1.1 2.6.2.2 0 .3.1.3.3v.8c0 .1-.1.3-.3.3H434c-.8 0-1.1.3-1.1 1.1v1.4h3.7c.1 0 .3.1.3.3v.9c0 .1-.1.3-.3.3h-3.7v1.7c0 .9.3 1.1 1.1 1.1h2.8c.1 0 .3.1.3.3v.8c-.1-.1-.2 0-.4 0zM443 370.8c-1 0-2.3-.1-2.7-.2-.2 0-.4-.1-.4-.4v-8.7c0-.3.1-.4.4-.4.4-.1 1.7-.2 2.7-.2 2.7 0 4.2 1.4 4.2 4v1.9c0 2.6-1.5 4-4.2 4zm2.3-5.9c0-1.9-1-2.4-2.4-2.4h-1.1v6.7h1.1c1.4 0 2.4-.5 2.4-2.4v-1.9zM456.7 370.6c-.5.1-2.2.2-3 .2-2.2 0-3.7-.9-3.7-3.6v-5.8c0-.1.1-.2.3-.2h1.3c.1 0 .3.1.3.2v5.8c0 1.5.4 2.1 1.8 2.1.5 0 1.4-.1 1.9-.1v-7.9c0-.1.1-.2.3-.2h1.3c.1 0 .3.1.3.2v8.4c-.1.6-.3.8-.8.9zM466.3 370.6c-.2.1-1.1.2-2.1.2-1.6 0-3.8-.8-3.8-4v-1.9c0-3.2 2.2-4 3.8-4 1 0 1.9.2 2.1.2.2.1.3.1.3.3v.9c0 .2-.1.3-.3.3-.5 0-1.4-.1-2.1-.1-1.1 0-2 .6-2 2.4v1.9c0 1.8.8 2.4 2 2.4.7 0 1.6-.1 2.1-.1.2 0 .3.1.3.3v.9c0 .2-.1.2-.3.3zM476.2 370.7h-1.4c-.1 0-.2-.1-.2-.3V367h-3.4v3.4c0 .1-.1.3-.3.3h-1.4c-.1 0-.3-.1-.3-.3v-6.6c0-2.2 1.2-2.8 3.1-2.8h.9c1.9 0 3.1.6 3.1 2.8v6.6c.2.2 0 .3-.1.3zm-1.6-6.9c0-.9-.3-1.2-1.2-1.2h-.9c-.9 0-1.2.3-1.2 1.2v1.7h3.4v-1.7zM485.8 362.6h-2.4v7.8c0 .1-.1.3-.3.3h-1.3c-.1 0-.3-.1-.3-.3v-7.8h-2.4c-.1 0-.3-.1-.3-.2v-1c0-.1.1-.2.3-.2h6.6c.1 0 .3.1.3.2v1c.1.1 0 .2-.2.2zM490.2 370.7h-1.3c-.1 0-.3-.1-.3-.3v-9.1c0-.1.1-.2.3-.2h1.3c.1 0 .3.1.3.2v9.1c-.1.2-.2.3-.3.3zM497.2 370.8c-2.2 0-3.9-1.2-3.9-4V365c0-2.8 1.6-4 3.9-4s3.9 1.2 3.9 4v1.7c-.1 2.9-1.7 4.1-3.9 4.1zm1.9-5.8c0-1.7-.6-2.5-2-2.5s-2 .8-2 2.5v1.7c0 1.7.6 2.5 2 2.5s2-.8 2-2.5V365zM511.1 370.7h-1.4c-.1 0-.2-.1-.2-.3v-5.8c0-1.5-.5-2.1-1.8-2.1-.7 0-1.4.1-1.9.1v7.8c0 .1-.1.3-.3.3h-1.4c-.1 0-.3-.1-.3-.3v-8.6c0-.5.1-.6.6-.7.7-.1 2.2-.2 3-.2 2.5 0 3.9.9 3.9 3.6v5.8c.1.3 0 .4-.2.4zM527.4 370.7H526c-.1 0-.2-.1-.2-.3v-6.1l-.1.1-1.3 2.5c-.1.1-.3.2-.4.2h-1.4c-.2 0-.4-.1-.4-.2l-1.3-2.5-.1-.1v6.1c0 .1-.1.3-.2.3h-1.4c-.1 0-.2-.1-.2-.2v-8.9c0-.3.2-.5.5-.5h1.1c.2 0 .4.1.5.3l2 4c.1.1.1.2.1.2.1 0 .1-.1.1-.2l2-4c.1-.2.3-.3.5-.3h1.1c.3 0 .5.2.5.5v8.9c.2.1.1.2 0 .2zM537.7 370.7h-1.4c-.1 0-.2-.1-.2-.3V367h-3.4v3.4c0 .1-.1.3-.3.3H531c-.1 0-.3-.1-.3-.3v-6.6c0-2.2 1.2-2.8 3.1-2.8h.9c1.9 0 3.1.6 3.1 2.8v6.6c.1.2 0 .3-.1.3zm-1.6-6.9c0-.9-.3-1.2-1.2-1.2h-.9c-.9 0-1.2.3-1.2 1.2v1.7h3.4v-1.7zM544.1 370.8c-1 0-2.3-.1-2.7-.2-.2 0-.4-.1-.4-.4v-8.7c0-.3.1-.4.4-.4.4-.1 1.7-.2 2.7-.2 2.7 0 4.2 1.4 4.2 4v1.9c0 2.6-1.5 4-4.2 4zm2.4-5.9c0-1.9-1-2.4-2.4-2.4H543v6.7h1.1c1.4 0 2.4-.5 2.4-2.4v-1.9zM556.9 370.6c-.4.1-1 .2-2.6.2-1.8 0-3.1-.5-3.1-2.6v-4.5c0-2.2 1.4-2.6 3.1-2.6 1.6 0 2.1.1 2.6.2.2 0 .3.1.3.3v.8c0 .1-.1.3-.3.3h-2.8c-.8 0-1.1.3-1.1 1.1v1.4h3.7c.1 0 .3.1.3.3v.9c0 .1-.1.3-.3.3H553v1.7c0 .9.3 1.1 1.1 1.1h2.8c.1 0 .3.1.3.3v.8c0-.1-.1 0-.3 0zM570.3 370.6c-.4.1-1 .2-2.6.2-1.8 0-3.1-.5-3.1-2.6v-4.5c0-2.2 1.4-2.6 3.1-2.6 1.6 0 2.1.1 2.6.2.2 0 .3.1.3.3v.8c0 .1-.1.3-.3.3h-2.8c-.8 0-1.1.3-1.1 1.1v1.4h3.7c.1 0 .3.1.3.3v.9c0 .1-.1.3-.3.3h-3.7v1.7c0 .9.3 1.1 1.1 1.1h2.8c.1 0 .3.1.3.3v.8c0-.1-.1 0-.3 0zM580.4 370.7H579c-.1 0-.2-.1-.2-.3V367h-3.4v3.4c0 .1-.1.3-.3.3h-1.4c-.1 0-.3-.1-.3-.3v-6.6c0-2.2 1.2-2.8 3.1-2.8h.9c1.9 0 3.1.6 3.1 2.8v6.6c.2.2 0 .3-.1.3zm-1.6-6.9c0-.9-.3-1.2-1.2-1.2h-.9c-.9 0-1.2.3-1.2 1.2v1.7h3.4v-1.7zM586.3 370.8c-1 0-1.7-.1-2.4-.2-.1 0-.3-.1-.3-.3v-.9c0-.1.1-.2.3-.2.5.1 1.9.1 2.4.1 1.2 0 1.6-.4 1.6-1.2 0-.5-.3-.8-1.1-1.3l-1.8-1c-1.3-.7-1.6-1.5-1.6-2.4 0-1.4.9-2.5 3.4-2.5.9 0 2.1.1 2.6.2.1 0 .2.1.2.2v1c0 .1-.1.2-.2.2-.9-.1-1.8-.1-2.7-.1-1 0-1.4.3-1.4.9 0 .4.2.7 1.1 1.1l1.6.9c1.5.8 1.9 1.6 1.9 2.6 0 1.5-.9 2.9-3.6 2.9zM599.6 361.4l-2.9 5.5v3.6c0 .1-.1.3-.3.3H595c-.1 0-.2-.1-.2-.3v-3.6l-2.9-5.5v-.1c0-.1.1-.2.2-.2h1.5c.1 0 .2.1.2.2l1.9 3.8 1.9-3.8c.1-.1.1-.2.3-.2h1.5c.1 0 .2.1.2.2.1 0 .1 0 0 .1z" data-index="25"/></g><path class="st5" d="M610.8 360.9h27.5l-1.9 9.3c-8.9.5-16.3.4-25.6.4v-9.7z" data-index="26"/></g></svg>