<svg xmlns="http://www.w3.org/2000/svg" width="323.362" height="284.482" viewBox="0 0 323.362 284.482">
  <g id="payment_success" data-name="payment success" transform="translate(-23.955 -61.92)">
    <g id="Background_Complete" data-name="Background Complete" transform="translate(23.955 71.077)">
      <g id="Group_66851" data-name="Group 66851" transform="translate(209.087 6.554)">
        <path id="Path_59330" data-name="Path 59330" d="M419.256,89.294l.149,57.583a5.828,5.828,0,0,1-5.809,5.846l-91.331.237a5.828,5.828,0,0,1-5.839-5.815l-.149-57.583a5.423,5.423,0,0,1,5.409-5.437l92.132-.239A5.423,5.423,0,0,1,419.256,89.294Z" transform="translate(-316.278 -83.885)" fill="#c8c8c8"/>
        <g id="Group_66850" data-name="Group 66850" transform="translate(6.938 9.904)">
          <path id="Path_59331" data-name="Path 59331" d="M435.411,158.533a5.361,5.361,0,1,1-5.374-5.347A5.361,5.361,0,0,1,435.411,158.533Z" transform="translate(-354.085 -113.522)" fill="#a6a6a6"/>
          <path id="Path_59332" data-name="Path 59332" d="M444.639,158.509a5.361,5.361,0,1,1-5.374-5.347A5.361,5.361,0,0,1,444.639,158.509Z" transform="translate(-356.712 -113.515)" fill="#924781"/>
          <rect id="Rectangle_18155" data-name="Rectangle 18155" width="19.33" height="13.359" rx="4.202" transform="matrix(1, -0.003, 0.003, 1, 1.728, 0.214)" fill="#924781"/>
          <path id="Path_59333" data-name="Path 59333" d="M438.7,105.059l-8.745.023a3.665,3.665,0,0,1-3.674-3.654h0a3.663,3.663,0,0,1,3.654-3.673l8.746-.023a3.664,3.664,0,0,1,3.673,3.654h0A3.663,3.663,0,0,1,438.7,105.059Z" transform="translate(-354.539 -97.732)" fill="#fff"/>
          <g id="Group_66849" data-name="Group 66849" transform="translate(0 24.97)">
            <path id="Path_59334" data-name="Path 59334" d="M327.061,133.523l-.791.467a.2.2,0,0,1-.1.032.191.191,0,0,1-.168-.1.184.184,0,0,1,.071-.264l1.08-.66a.2.2,0,0,1,.265.072.236.236,0,0,1,.024.144l.013,5.151a.189.189,0,0,1-.191.192.2.2,0,0,1-.193-.192Z" transform="translate(-325.977 -132.738)" fill="#f8f8f8"/>
            <path id="Path_59335" data-name="Path 59335" d="M329.948,138.2l2.614-2.37a1.458,1.458,0,0,0,.478-1.075,1.446,1.446,0,0,0-1.446-1.43,1.457,1.457,0,0,0-.976.37l-.272.25a.193.193,0,0,1-.265-.28l.272-.257a1.881,1.881,0,0,1,1.24-.476,1.842,1.842,0,0,1,1.832,1.822,1.847,1.847,0,0,1-.6,1.363l-2.238,2.033,2.651-.007a.2.2,0,0,1,.192.2.194.194,0,0,1-.191.192l-3.125.008h-.031a.179.179,0,0,1-.144-.056A.21.21,0,0,1,329.948,138.2Z" transform="translate(-327.091 -132.725)" fill="#f8f8f8"/>
            <path id="Path_59336" data-name="Path 59336" d="M340.022,133.261l-1.446,1.494a1.9,1.9,0,0,1-.383,3.766,1.868,1.868,0,0,1-1.339-.557.2.2,0,0,1,.28-.281,1.5,1.5,0,0,0,2.561-1.072,1.5,1.5,0,0,0-1.5-1.493.21.21,0,0,1-.16-.08h-.008a.2.2,0,0,1,0-.289l1.39-1.437-2.147.006a.2.2,0,1,1,0-.4l2.619-.006a.2.2,0,0,1,.2.2.16.16,0,0,1-.024.088A.175.175,0,0,1,340.022,133.261Z" transform="translate(-329.057 -132.718)" fill="#f8f8f8"/>
            <path id="Path_59337" data-name="Path 59337" d="M346.607,137.355l-3.036.008h-.024a.166.166,0,0,1-.119-.04.185.185,0,0,1-.025-.273L346.635,133l.009-.008a.184.184,0,0,1,.272-.025.25.25,0,0,1,.064.1c0,.016.008.024.009.032v.024l.009,3.845h.377a.193.193,0,1,1,0,.385H347l0,.961a.2.2,0,0,1-.392,0Zm0-.385-.009-3.284-2.644,3.292Z" transform="translate(-330.925 -132.722)" fill="#f8f8f8"/>
            <path id="Path_59338" data-name="Path 59338" d="M357.7,137.918a.194.194,0,0,1,0-.28.2.2,0,0,1,.288,0,1.5,1.5,0,0,0,1.059.43,1.5,1.5,0,0,0,1.494-1.5,1.5,1.5,0,0,0-2.558-1.051.194.194,0,0,1-.28,0,.123.123,0,0,1-.049-.064v-.008a.031.031,0,0,1-.008-.024.159.159,0,0,1-.008-.064c0-.008.007-.024.007-.04l.267-2.26a.17.17,0,0,1,.079-.144.182.182,0,0,1,.128-.048l2.612-.007a.2.2,0,0,1,.2.2.194.194,0,0,1-.2.2l-2.443.006-.2,1.667a1.891,1.891,0,0,1,.953-.258,1.885,1.885,0,0,1,1.9,1.893,1.875,1.875,0,0,1-.549,1.347,1.947,1.947,0,0,1-1.345.556A1.9,1.9,0,0,1,357.7,137.918Z" transform="translate(-334.993 -132.703)" fill="#f8f8f8"/>
            <path id="Path_59339" data-name="Path 59339" d="M364.966,134.073a2.275,2.275,0,0,1,1.959-1.222.194.194,0,0,1,.2.183.21.21,0,0,1-.192.21,1.9,1.9,0,0,0-1.632,1.021,3.681,3.681,0,0,0-.4,1.123,1.843,1.843,0,1,1-.461,1.282,2.82,2.82,0,0,1-.016-.368A4.623,4.623,0,0,1,364.966,134.073Zm-.129,2.564a.4.4,0,0,0,.016.1.122.122,0,0,1-.008.057,1.492,1.492,0,1,0-.009-.192Z" transform="translate(-336.925 -132.701)" fill="#f8f8f8"/>
            <path id="Path_59340" data-name="Path 59340" d="M372.159,138.171l2.061-4.925-2.707.007a.192.192,0,0,1,0-.384l2.964-.008a.215.215,0,0,1,.12.007.224.224,0,0,1,.105.12.194.194,0,0,1,.016.064.162.162,0,0,1-.032.1l-2.157,5.164a.2.2,0,0,1-.176.121.146.146,0,0,1-.08-.016A.212.212,0,0,1,372.159,138.171Z" transform="translate(-338.889 -132.703)" fill="#f8f8f8"/>
            <path id="Path_59341" data-name="Path 59341" d="M379.5,132.808a1.164,1.164,0,0,1,.695,2.105,1.813,1.813,0,1,1-1.385,0,1.18,1.18,0,0,1-.467-.943A1.156,1.156,0,0,1,379.5,132.808Zm.014,5.223a1.434,1.434,0,1,0-1.438-1.431A1.428,1.428,0,0,0,379.513,138.031Zm-.008-3.269a.8.8,0,0,0,.783-.795.781.781,0,0,0-1.562,0A.792.792,0,0,0,379.5,134.762Z" transform="translate(-340.702 -132.689)" fill="#f8f8f8"/>
            <path id="Path_59342" data-name="Path 59342" d="M393.418,132.771a1.843,1.843,0,0,1,1.847,1.63c.009.016.009.024.016.039.009.152.017.313.017.481a4.644,4.644,0,0,1-.531,2.237,2.319,2.319,0,0,1-1.96,1.223H392.8a.191.191,0,0,1-.2-.185.2.2,0,0,1,.192-.208,1.9,1.9,0,0,0,1.632-1.021,3.559,3.559,0,0,0,.4-1.123,1.853,1.853,0,1,1-1.4-3.073Zm1.471,1.839a1.462,1.462,0,1,0-1.463,1.462A1.453,1.453,0,0,0,394.89,134.61Z" transform="translate(-344.655 -132.679)" fill="#f8f8f8"/>
            <path id="Path_59343" data-name="Path 59343" d="M398.751,135.562a3.568,3.568,0,0,1,.531-1.964,1.589,1.589,0,0,1,2.8-.008,3.65,3.65,0,0,1,.55,1.962,3.589,3.589,0,0,1-.54,1.956,1.582,1.582,0,0,1-2.8.008A3.526,3.526,0,0,1,398.751,135.562Zm.393,0a3.173,3.173,0,0,0,.477,1.737,1.192,1.192,0,0,0,2.146-.005,3.384,3.384,0,0,0-.009-3.477,1.193,1.193,0,0,0-2.147.006A3.175,3.175,0,0,0,399.144,135.56Z" transform="translate(-346.699 -132.673)" fill="#f8f8f8"/>
            <path id="Path_59344" data-name="Path 59344" d="M407.366,133.315l-.792.467a.189.189,0,0,1-.1.032.2.2,0,0,1-.169-.1.185.185,0,0,1,.072-.265l1.08-.659a.2.2,0,0,1,.265.072.23.23,0,0,1,.024.144l.014,5.151a.189.189,0,0,1-.192.192.2.2,0,0,1-.193-.191Z" transform="translate(-348.843 -132.679)" fill="#f8f8f8"/>
            <path id="Path_59345" data-name="Path 59345" d="M410.253,137.991l2.614-2.37a1.456,1.456,0,0,0,.478-1.074,1.446,1.446,0,0,0-1.446-1.431,1.455,1.455,0,0,0-.977.371l-.272.249a.193.193,0,0,1-.265-.28l.272-.257a1.88,1.88,0,0,1,1.24-.476,1.842,1.842,0,0,1,1.831,1.822,1.843,1.843,0,0,1-.6,1.363l-2.237,2.033,2.651-.007a.2.2,0,0,1,0,.393l-3.124.008h-.031a.181.181,0,0,1-.144-.056A.21.21,0,0,1,410.253,137.991Z" transform="translate(-349.957 -132.665)" fill="#f8f8f8"/>
            <path id="Path_59346" data-name="Path 59346" d="M427.042,133.036l-1.446,1.493a1.9,1.9,0,0,1-.383,3.766,1.869,1.869,0,0,1-1.34-.557.2.2,0,0,1,.28-.281,1.5,1.5,0,0,0,2.561-1.072,1.5,1.5,0,0,0-1.5-1.493.21.21,0,0,1-.16-.08h-.008a.2.2,0,0,1,0-.288l1.39-1.438-2.147.006a.2.2,0,1,1,0-.4l2.619-.006a.2.2,0,0,1,.2.2.16.16,0,0,1-.024.089A.184.184,0,0,1,427.042,133.036Z" transform="translate(-353.835 -132.654)" fill="#f8f8f8"/>
            <path id="Path_59347" data-name="Path 59347" d="M433.627,137.129l-3.036.008h-.024a.167.167,0,0,1-.12-.04.184.184,0,0,1-.025-.272l3.234-4.046.009-.008a.185.185,0,0,1,.272-.025.255.255,0,0,1,.064.1c0,.016.008.024.009.032v.024l.009,3.845h.377a.193.193,0,1,1,0,.385h-.376l0,.961a.2.2,0,0,1-.393,0Zm0-.385-.008-3.284-2.644,3.291Z" transform="translate(-355.703 -132.658)" fill="#f8f8f8"/>
            <path id="Path_59348" data-name="Path 59348" d="M438.008,137.71a.193.193,0,0,1,0-.28.2.2,0,0,1,.288,0,1.507,1.507,0,0,0,1.059.43,1.5,1.5,0,1,0-1.064-2.553.193.193,0,0,1-.28,0,.126.126,0,0,1-.049-.064v-.008a.031.031,0,0,1-.008-.024.148.148,0,0,1-.009-.064.359.359,0,0,0,.008-.04l.267-2.26a.168.168,0,0,1,.079-.144.182.182,0,0,1,.128-.049l2.611-.006a.2.2,0,0,1,.2.2.193.193,0,0,1-.2.2l-2.443.006-.2,1.667a1.888,1.888,0,0,1,.953-.259,1.886,1.886,0,0,1,1.9,1.894,1.881,1.881,0,0,1-.549,1.347,1.946,1.946,0,0,1-1.345.556A1.9,1.9,0,0,1,438.008,137.71Z" transform="translate(-357.859 -132.644)" fill="#f8f8f8"/>
            <path id="Path_59349" data-name="Path 59349" d="M445.27,133.865a2.273,2.273,0,0,1,1.959-1.222.194.194,0,0,1,.2.183.209.209,0,0,1-.192.209,1.9,1.9,0,0,0-1.632,1.022,3.652,3.652,0,0,0-.4,1.122,1.844,1.844,0,1,1-.461,1.282,2.791,2.791,0,0,1-.017-.368A4.632,4.632,0,0,1,445.27,133.865Zm-.13,2.563a.377.377,0,0,0,.016.1.115.115,0,0,1-.009.057,1.5,1.5,0,1,0-.008-.192Z" transform="translate(-359.791 -132.642)" fill="#f8f8f8"/>
          </g>
          <rect id="Rectangle_18156" data-name="Rectangle 18156" width="48.902" height="2.403" transform="translate(1.833 40.41) rotate(-0.149)" fill="#a6a6a6"/>
          <rect id="Rectangle_18157" data-name="Rectangle 18157" width="34.621" height="2.403" transform="translate(1.846 45.748) rotate(-0.149)" fill="#a6a6a6"/>
          <rect id="Rectangle_18158" data-name="Rectangle 18158" width="24.39" height="2.403" transform="translate(43.984 0.104) rotate(-0.149)" fill="#a6a6a6"/>
        </g>
      </g>
      <g id="Group_66853" data-name="Group 66853" transform="translate(39.579 31.48)">
        <rect id="Rectangle_18159" data-name="Rectangle 18159" width="52.844" height="52.844" transform="translate(0)" fill="#c8c8c8"/>
        <g id="Group_66852" data-name="Group 66852" transform="translate(15.769 8.481)">
          <path id="Path_59350" data-name="Path 59350" d="M112.867,130.592a1.783,1.783,0,0,1,1.8,1.8v.919a15.22,15.22,0,0,1,6.476,2.3,2.238,2.238,0,0,1,1.254,2.006,2.3,2.3,0,0,1-2.34,2.3,2.414,2.414,0,0,1-1.253-.376,15.187,15.187,0,0,0-4.3-1.838v8.022c6.351,1.588,9.066,4.136,9.066,8.607,0,4.6-3.593,7.645-8.9,8.147v2.506a1.782,1.782,0,0,1-1.8,1.8,1.819,1.819,0,0,1-1.838-1.8v-2.59a18.078,18.078,0,0,1-8.565-3.259,2.3,2.3,0,0,1-1.128-2.006,2.3,2.3,0,0,1,3.677-1.838,14.8,14.8,0,0,0,6.183,2.8v-8.23c-6.1-1.588-8.941-3.886-8.941-8.607,0-4.47,3.551-7.562,8.774-7.979v-.878A1.819,1.819,0,0,1,112.867,130.592ZM111.2,144.839v-7.394c-2.674.25-4.01,1.671-4.01,3.509C107.185,142.708,107.979,143.794,111.2,144.839Zm3.3,5.807v7.6c2.674-.293,4.136-1.629,4.136-3.634C118.633,152.777,117.714,151.649,114.5,150.646Z" transform="translate(-101.336 -130.592)" fill="#fff"/>
        </g>
      </g>
      <g id="Group_66860" data-name="Group 66860" transform="translate(12.557 106.087)">
        <g id="Group_66855" data-name="Group 66855" transform="translate(41.552)">
          <path id="Path_59351" data-name="Path 59351" d="M99.6,297.211h31.562a7.516,7.516,0,0,0,7.516-7.517V230.633a7.64,7.64,0,0,1,8.044-7.591H107.12a7.516,7.516,0,0,0-7.516,7.516Z" transform="translate(-99.604 -223.042)" fill="#dbdbdb"/>
          <g id="Group_66854" data-name="Group 66854" transform="translate(5.713 7.519)">
            <rect id="Rectangle_18160" data-name="Rectangle 18160" width="28.311" height="1.302" fill="#c7c7c7"/>
            <rect id="Rectangle_18161" data-name="Rectangle 18161" width="28.311" height="1.302" transform="translate(0 3.656)" fill="#c7c7c7"/>
            <rect id="Rectangle_18162" data-name="Rectangle 18162" width="28.311" height="1.302" transform="translate(0 7.313)" fill="#c7c7c7"/>
            <rect id="Rectangle_18163" data-name="Rectangle 18163" width="28.311" height="1.302" transform="translate(0 10.969)" fill="#c7c7c7"/>
            <rect id="Rectangle_18164" data-name="Rectangle 18164" width="28.311" height="1.302" transform="translate(0 14.625)" fill="#c7c7c7"/>
            <rect id="Rectangle_18165" data-name="Rectangle 18165" width="28.311" height="1.302" transform="translate(0 18.282)" fill="#c7c7c7"/>
            <rect id="Rectangle_18166" data-name="Rectangle 18166" width="28.311" height="1.302" transform="translate(0 21.938)" fill="#c7c7c7"/>
            <rect id="Rectangle_18167" data-name="Rectangle 18167" width="28.311" height="1.302" transform="translate(0 25.595)" fill="#c7c7c7"/>
            <rect id="Rectangle_18168" data-name="Rectangle 18168" width="28.311" height="1.302" transform="translate(0 29.251)" fill="#c7c7c7"/>
            <rect id="Rectangle_18169" data-name="Rectangle 18169" width="28.311" height="1.302" transform="translate(0 32.907)" fill="#c7c7c7"/>
            <rect id="Rectangle_18170" data-name="Rectangle 18170" width="28.311" height="1.302" transform="translate(0 36.564)" fill="#c7c7c7"/>
            <rect id="Rectangle_18171" data-name="Rectangle 18171" width="28.311" height="1.302" transform="translate(0 40.22)" fill="#c7c7c7"/>
            <rect id="Rectangle_18172" data-name="Rectangle 18172" width="28.311" height="1.302" transform="translate(0 43.877)" fill="#c7c7c7"/>
            <rect id="Rectangle_18173" data-name="Rectangle 18173" width="28.311" height="1.302" transform="translate(0 47.533)" fill="#c7c7c7"/>
            <rect id="Rectangle_18174" data-name="Rectangle 18174" width="28.311" height="1.302" transform="translate(0 51.189)" fill="#c7c7c7"/>
            <rect id="Rectangle_18175" data-name="Rectangle 18175" width="28.311" height="1.302" transform="translate(0 54.846)" fill="#c7c7c7"/>
          </g>
        </g>
        <path id="Path_59352" data-name="Path 59352" d="M56.987,288.778v71.337H80.88v.1a7.574,7.574,0,0,0,7.4,7.583h.26a6.522,6.522,0,0,0,.772-.04l1.413-.29a7.5,7.5,0,0,0,1.021-.411,4.382,4.382,0,0,0,.481-.25,1.579,1.579,0,0,0,.24-.15,5.4,5.4,0,0,0,.631-.431.7.7,0,0,0,.1-.08,3.7,3.7,0,0,0,.421-.361c.07-.06.14-.13.21-.2a7.331,7.331,0,0,0,1.873-3.1.49.49,0,0,1,.03-.07c.05-.18.1-.371.14-.561a4.463,4.463,0,0,0,.12-.732c.02-.11.02-.22.03-.33a.41.41,0,0,0,.01-.11c0-.14.03-.27.03-.411V288.858a7.639,7.639,0,0,1,8.045-7.593H64.5A7.516,7.516,0,0,0,56.987,288.778Z" transform="translate(-45.918 -239.62)" fill="#dfdfdf"/>
        <g id="Group_66856" data-name="Group 66856" transform="translate(16.291 43.061)">
          <rect id="Rectangle_18176" data-name="Rectangle 18176" width="28.311" height="1.302" transform="translate(0 3.342)" fill="#c7c7c7"/>
          <rect id="Rectangle_18177" data-name="Rectangle 18177" width="28.311" height="1.302" transform="translate(2.662)" fill="#c7c7c7"/>
          <rect id="Rectangle_18178" data-name="Rectangle 18178" width="28.311" height="1.302" transform="translate(0 6.998)" fill="#c7c7c7"/>
          <rect id="Rectangle_18179" data-name="Rectangle 18179" width="28.311" height="1.302" transform="translate(0 10.654)" fill="#c7c7c7"/>
          <rect id="Rectangle_18180" data-name="Rectangle 18180" width="28.311" height="1.302" transform="translate(0 14.311)" fill="#c7c7c7"/>
          <rect id="Rectangle_18181" data-name="Rectangle 18181" width="28.311" height="1.302" transform="translate(0 17.967)" fill="#c7c7c7"/>
          <rect id="Rectangle_18182" data-name="Rectangle 18182" width="28.311" height="1.302" transform="translate(0 21.624)" fill="#c7c7c7"/>
          <rect id="Rectangle_18183" data-name="Rectangle 18183" width="28.311" height="1.302" transform="translate(0 25.28)" fill="#c7c7c7"/>
          <rect id="Rectangle_18184" data-name="Rectangle 18184" width="28.311" height="1.302" transform="translate(0 28.936)" fill="#c7c7c7"/>
          <rect id="Rectangle_18185" data-name="Rectangle 18185" width="28.311" height="1.302" transform="translate(0 32.593)" fill="#c7c7c7"/>
          <rect id="Rectangle_18186" data-name="Rectangle 18186" width="28.311" height="1.302" transform="translate(0 36.249)" fill="#c7c7c7"/>
          <rect id="Rectangle_18187" data-name="Rectangle 18187" width="28.311" height="1.302" transform="translate(0 39.905)" fill="#c7c7c7"/>
          <rect id="Rectangle_18188" data-name="Rectangle 18188" width="28.311" height="1.302" transform="translate(0 43.562)" fill="#c7c7c7"/>
          <rect id="Rectangle_18189" data-name="Rectangle 18189" width="28.311" height="1.302" transform="translate(0 47.218)" fill="#c7c7c7"/>
          <rect id="Rectangle_18190" data-name="Rectangle 18190" width="28.311" height="1.302" transform="translate(0 50.875)" fill="#c7c7c7"/>
          <rect id="Rectangle_18191" data-name="Rectangle 18191" width="28.311" height="1.302" transform="translate(0 54.531)" fill="#c7c7c7"/>
          <rect id="Rectangle_18192" data-name="Rectangle 18192" width="28.311" height="1.302" transform="translate(0 58.187)" fill="#c7c7c7"/>
          <rect id="Rectangle_18193" data-name="Rectangle 18193" width="28.311" height="1.302" transform="translate(0 61.844)" fill="#c7c7c7"/>
          <rect id="Rectangle_18194" data-name="Rectangle 18194" width="28.311" height="1.302" transform="translate(0 65.5)" fill="#c7c7c7"/>
          <rect id="Rectangle_18195" data-name="Rectangle 18195" width="14.156" height="3.003" transform="translate(14.156 70.773)" fill="#c7c7c7"/>
        </g>
        <path id="Path_59353" data-name="Path 59353" d="M143.362,326.726a1.226,1.226,0,0,0,.191.01,7.59,7.59,0,0,0,.841-.05,6.512,6.512,0,0,1-.771.04Z" transform="translate(-70.512 -252.554)" fill="#924781"/>
        <g id="Group_66857" data-name="Group 66857" transform="translate(80.63)">
          <path id="Path_59354" data-name="Path 59354" d="M161.83,223.042a7.591,7.591,0,0,0-7.591,7.591V244.95h15.183V230.633A7.591,7.591,0,0,0,161.83,223.042Z" transform="translate(-154.239 -223.042)" fill="#a6a6a6"/>
        </g>
        <g id="Group_66858" data-name="Group 66858" transform="translate(50.125 41.645)">
          <path id="Path_59355" data-name="Path 59355" d="M111.59,288.858V313.8h15.187v-.01h7.4a7.574,7.574,0,0,1-7.4-7.584V288.858a7.594,7.594,0,1,0-15.187,0Z" transform="translate(-111.59 -281.265)" fill="#a6a6a6"/>
        </g>
        <g id="Group_66859" data-name="Group 66859" transform="translate(0 120.495)">
          <path id="Path_59356" data-name="Path 59356" d="M41.511,391.505v.1a7.573,7.573,0,0,0,7.4,7.583H83.877a7.574,7.574,0,0,1-7.4-7.583v-.1Z" transform="translate(-41.511 -391.505)" fill="#a6a6a6"/>
        </g>
      </g>
      <g id="Group_66861" data-name="Group 66861">
        <rect id="Rectangle_18196" data-name="Rectangle 18196" width="18.941" height="8.004" transform="translate(312.796 103.645) rotate(180)" fill="#c8c8c8"/>
        <rect id="Rectangle_18197" data-name="Rectangle 18197" width="18.941" height="8.004" transform="translate(323.362 93.553) rotate(180)" fill="#c8c8c8"/>
        <rect id="Rectangle_18198" data-name="Rectangle 18198" width="18.94" height="8.004" transform="translate(302.23 93.553) rotate(180)" fill="#c8c8c8"/>
        <rect id="Rectangle_18199" data-name="Rectangle 18199" width="18.941" height="8.004" transform="translate(29.506 206.874) rotate(180)" fill="#c8c8c8"/>
        <rect id="Rectangle_18200" data-name="Rectangle 18200" width="18.941" height="8.004" transform="translate(18.941 196.782) rotate(180)" fill="#c8c8c8"/>
        <rect id="Rectangle_18201" data-name="Rectangle 18201" width="18.941" height="8.004" transform="translate(323.362 206.865) rotate(180)" fill="#c8c8c8"/>
        <rect id="Rectangle_18202" data-name="Rectangle 18202" width="18.941" height="8.004" transform="translate(63.28)" fill="#d6d6d6"/>
        <rect id="Rectangle_18203" data-name="Rectangle 18203" width="18.94" height="8.004" transform="translate(52.714 10.092)" fill="#d6d6d6"/>
      </g>
    </g>
    <g id="Shadow" transform="translate(43.79 317.193)">
      <g id="Group_66862" data-name="Group 66862" transform="translate(0)">
        <path id="Path_59357" data-name="Path 59357" d="M335.378,433.419c0,8.066-63.507,14.6-141.846,14.6s-141.846-6.539-141.846-14.6,63.507-14.6,141.846-14.6S335.378,425.353,335.378,433.419Z" transform="translate(-51.686 -418.815)" fill="#e8e8e8"/>
      </g>
    </g>
    <g id="Floor" transform="translate(40.428 308.345)">
      <line id="Line_123" data-name="Line 123" x2="290.417" fill="none" stroke="#263238" stroke-linecap="round" stroke-linejoin="round" stroke-width="1"/>
    </g>
    <g id="Device" transform="translate(112.937 61.92)">
      <g id="Group_66900" data-name="Group 66900">
        <g id="Group_66895" data-name="Group 66895">
          <path id="Path_59358" data-name="Path 59358" d="M281.513,61.92H160.591A12.345,12.345,0,0,0,148.36,74.38V323.3a12.354,12.354,0,0,0,12.231,12.46H281.513a12.366,12.366,0,0,0,12.245-12.46V74.38A12.357,12.357,0,0,0,281.513,61.92ZM286.1,315.6c0,6.552-4.907,11.852-10.958,11.852H166.971c-6.065,0-10.972-5.3-10.972-11.852V83.814c0-13.347,4.907-14,10.972-14h21.672c1.259,0,2.289,1.431,2.289,3.2v.765c0,4.156,2.275,4.17,5.064,4.17h50.111c2.818,0,5.078-.014,5.078-4.17v-.765c0-1.774,1.016-3.2,2.3-3.2h21.665c6.051,0,10.958,1.774,10.958,14Z" transform="translate(-148.36 -61.92)" fill="#37474f"/>
          <line id="Line_124" data-name="Line 124" x1="0.408" transform="translate(7.235 238.99)" fill="none"/>
          <g id="Group_66894" data-name="Group 66894" transform="translate(7.639 7.896)">
            <path id="Path_59359" data-name="Path 59359" d="M289.146,86.958V318.745c0,6.552-4.907,11.852-10.958,11.852H170.012c-6.065,0-10.972-5.3-10.972-11.852V86.958c0-13.347,4.907-14,10.972-14h21.672c1.259,0,2.289,1.431,2.289,3.2v.765c0,4.156,2.275,4.17,5.064,4.17h50.111c2.818,0,5.078-.014,5.078-4.17v-.765c0-1.774,1.016-3.2,2.3-3.2h21.665C284.239,72.96,289.146,74.734,289.146,86.958Z" transform="translate(-159.04 -72.96)" fill="#fff"/>
            <g id="Group_66874" data-name="Group 66874">
              <path id="Path_59360" data-name="Path 59360" d="M289.146,86.958v20.635H159.04V86.958c0-13.347,4.907-14,10.972-14h21.672c1.259,0,2.289,1.431,2.289,3.2v.765c0,4.156,2.275,4.17,5.064,4.17h50.111c2.818,0,5.078-.014,5.078-4.17v-.765c0-1.774,1.016-3.2,2.3-3.2h21.665C284.239,72.96,289.146,74.734,289.146,86.958Z" transform="translate(-159.04 -72.96)" fill="#924781"/>
              <g id="Group_66866" data-name="Group 66866" transform="translate(8.487 4.231)">
                <g id="u5Zjqx" transform="translate(15.726)">
                  <g id="Group_66863" data-name="Group 66863">
                    <path id="Path_59361" data-name="Path 59361" d="M197.581,79.85l-.21.208-.118.119a2.848,2.848,0,0,0-4.037,0c-.037-.039-.074-.079-.113-.118l-.207-.208-.006,0v-.005l.015-.012c.088-.079.174-.16.265-.235a3.274,3.274,0,0,1,1.424-.663c.134-.024.27-.037.406-.054.046-.006.345-.006.355-.006.092.006.185.011.276.021a3.13,3.13,0,0,1,.745.177,3.261,3.261,0,0,1,.5.236,3.148,3.148,0,0,1,.481.336c.075.064.147.132.221.2Z" transform="translate(-192.891 -78.876)" fill="#fff"/>
                    <path id="Path_59362" data-name="Path 59362" d="M194.143,81.206l-.331-.328a2.334,2.334,0,0,1,1.346-.676,2.36,2.36,0,0,1,2.025.671l-.333.331a1.913,1.913,0,0,0-2.707,0Z" transform="translate(-193.153 -79.246)" fill="#fff"/>
                    <path id="Path_59363" data-name="Path 59363" d="M196.784,81.907l-.329.329a.978.978,0,0,0-1.387,0l-.329-.328A1.437,1.437,0,0,1,196.784,81.907Z" transform="translate(-193.417 -79.618)" fill="#fff"/>
                  </g>
                  <path id="Path_59364" data-name="Path 59364" d="M196.347,82.837a.3.3,0,1,1-.3-.3A.3.3,0,0,1,196.347,82.837Z" transform="translate(-193.706 -79.919)" fill="#fff"/>
                </g>
                <g id="Group_66864" data-name="Group 66864" transform="translate(0 0.746)">
                  <path id="Path_59365" data-name="Path 59365" d="M170.9,80.78a.862.862,0,1,1,.862.862A.861.861,0,0,1,170.9,80.78Z" transform="translate(-170.905 -79.918)" fill="#fff"/>
                  <path id="Path_59366" data-name="Path 59366" d="M174.7,80.78a.862.862,0,1,1,.862.862A.861.861,0,0,1,174.7,80.78Z" transform="translate(-171.986 -79.918)" fill="#fff"/>
                  <path id="Path_59367" data-name="Path 59367" d="M178.5,80.78a.862.862,0,1,1,.862.862A.861.861,0,0,1,178.5,80.78Z" transform="translate(-173.067 -79.918)" fill="#fff"/>
                  <path id="Path_59368" data-name="Path 59368" d="M182.3,80.78a.862.862,0,1,1,.862.862A.862.862,0,0,1,182.3,80.78Z" transform="translate(-174.148 -79.918)" fill="#fff"/>
                  <path id="Path_59369" data-name="Path 59369" d="M186.093,80.78a.862.862,0,1,1,.862.862A.862.862,0,0,1,186.093,80.78Z" transform="translate(-175.23 -79.918)" fill="#fff"/>
                </g>
                <g id="Group_66865" data-name="Group 66865" transform="translate(104.842 0.238)">
                  <path id="Path_59370" data-name="Path 59370" d="M324.5,82.46h-7.02V79.208h7.02Zm-6.662-.358h6.3V79.566h-6.3Z" transform="translate(-317.484 -79.208)" fill="#fff"/>
                  <rect id="Rectangle_18204" data-name="Rectangle 18204" width="4.525" height="2.147" transform="translate(0.582 0.553)" fill="#fff"/>
                  <rect id="Rectangle_18205" data-name="Rectangle 18205" width="0.624" height="1.739" transform="translate(7.024 0.756)" fill="#fff"/>
                </g>
              </g>
              <g id="Group_66873" data-name="Group 66873" transform="translate(8.486 19.795)">
                <g id="Group_66867" data-name="Group 66867">
                  <path id="Path_59371" data-name="Path 59371" d="M174.749,107.838l-3.844-3.6,3.844-3.6.6.635-3.165,2.966,3.165,2.966Z" transform="translate(-170.905 -100.635)" fill="#fff"/>
                </g>
              </g>
            </g>
            <path id="Path_59381" data-name="Path 59381" d="M253.773,76.411H240.1a.844.844,0,0,1-.845-.844h0a.845.845,0,0,1,.845-.845h13.669a.845.845,0,0,1,.845.845h0A.844.844,0,0,1,253.773,76.411Z" transform="translate(-181.882 -73.462)" fill="#fff"/>
            <g id="Group_66893" data-name="Group 66893" transform="translate(0 34.633)">
              <rect id="Rectangle_18214" data-name="Rectangle 18214" width="130.106" height="17.895" fill="#ebebeb"/>
              <rect id="Rectangle_18215" data-name="Rectangle 18215" width="130.106" height="17.895" transform="translate(0 78.809)" fill="#ebebeb"/>
              <rect id="Rectangle_18216" data-name="Rectangle 18216" width="130.106" height="4.644" transform="translate(0 125.808)" fill="#ebebeb"/>
              <g id="Group_66878" data-name="Group 66878" transform="translate(12.639 27.023)">
                <rect id="Rectangle_18217" data-name="Rectangle 18217" width="37.643" height="37.643" fill="#ebebeb"/>
              </g>
              <g id="Group_66880" data-name="Group 66880" transform="translate(9.944 109.761)">
                <path id="Path_59538" data-name="Path 59538" d="M172.942,274.972a.139.139,0,0,1,.137-.137h2.059a.135.135,0,0,1,.137.137.137.137,0,0,1-.137.144h-1.916V276.7H174.9a.14.14,0,0,1,0,.28h-1.676v1.579h1.916a.14.14,0,0,1,0,.28h-2.07a.138.138,0,0,1-.126-.138Z" transform="translate(-172.942 -274.835)"/>
                <path id="Path_59539" data-name="Path 59539" d="M179.6,277.659a.863.863,0,0,0-.863-.863.879.879,0,0,0-.87.863V279.2a.127.127,0,0,1-.028.062.125.125,0,0,1-.1.052H177.7a.152.152,0,0,1-.092-.075.019.019,0,0,1-.006-.016.024.024,0,0,0,0-.012v-2.556a.135.135,0,0,1,.137-.137.133.133,0,0,1,.131.137v.268a1.137,1.137,0,0,1,2.008.732v1.521a.137.137,0,1,1-.275,0Z" transform="translate(-174.268 -275.315)"/>
                <path id="Path_59540" data-name="Path 59540" d="M183.364,276.181a.147.147,0,0,1-.137.137h-.36v2.042a.22.22,0,0,0,.206.206.159.159,0,0,1,.143.142.153.153,0,0,1-.143.138.477.477,0,0,1-.491-.486v-2.042h-.349c-.137,0-.137-.068-.137-.137s0-.137.137-.137h.349V275a.148.148,0,0,1,.137-.138.154.154,0,0,1,.148.138v1.041h.36A.147.147,0,0,1,183.364,276.181Z" transform="translate(-175.548 -274.844)"/>
                <path id="Path_59541" data-name="Path 59541" d="M185.1,277.92a1.356,1.356,0,0,1,2.711-.1v.022a.13.13,0,0,1-.137.127h-2.3a1.1,1.1,0,0,0,1.086,1.075,1.055,1.055,0,0,0,.9-.509.134.134,0,0,1,.183-.046.146.146,0,0,1,.046.195,1.336,1.336,0,0,1-1.132.635A1.38,1.38,0,0,1,185.1,277.92Zm.292-.222h2.121a1.082,1.082,0,0,0-1.052-.91A1.094,1.094,0,0,0,185.394,277.7Z" transform="translate(-176.404 -275.313)"/>
                <path id="Path_59542" data-name="Path 59542" d="M190.086,276.659a.137.137,0,0,1,.143-.137.134.134,0,0,1,.132.137v.617a.38.38,0,0,1,.04-.069,1.351,1.351,0,0,1,1.121-.686.136.136,0,0,1,.137.137.139.139,0,0,1-.137.137,1.011,1.011,0,0,0-.813.458,2.5,2.5,0,0,0-.337.652.089.089,0,0,0-.011.046v1.229a.135.135,0,0,1-.132.138.137.137,0,0,1-.143-.138Z" transform="translate(-177.824 -275.315)"/>
                <path id="Path_59543" data-name="Path 59543" d="M196,277.96v-1.31a.138.138,0,0,1,.137-.137.14.14,0,0,1,.143.137v.406a1.326,1.326,0,0,1,1.064-.543,1.393,1.393,0,0,1,0,2.785,1.318,1.318,0,0,1-1.064-.549v1.6a.14.14,0,0,1-.143.137.138.138,0,0,1-.137-.137Zm.28-.057a1.07,1.07,0,1,0,2.139,0,1.07,1.07,0,1,0-2.139-.045Z" transform="translate(-179.507 -275.313)"/>
                <path id="Path_59544" data-name="Path 59544" d="M201.277,276.659a.137.137,0,0,1,.143-.137.134.134,0,0,1,.132.137v.617a.428.428,0,0,1,.04-.069,1.353,1.353,0,0,1,1.121-.686.136.136,0,0,1,.137.137.139.139,0,0,1-.137.137,1.009,1.009,0,0,0-.812.458,2.531,2.531,0,0,0-.338.652.089.089,0,0,0-.011.046v1.229a.135.135,0,0,1-.132.138.137.137,0,0,1-.143-.138Z" transform="translate(-181.01 -275.315)"/>
                <path id="Path_59545" data-name="Path 59545" d="M205.733,276.514a1.4,1.4,0,1,1-1.327,1.4A1.371,1.371,0,0,1,205.733,276.514Zm0,2.528a1.132,1.132,0,1,0-1.052-1.127A1.1,1.1,0,0,0,205.733,279.042Z" transform="translate(-181.901 -275.313)"/>
                <path id="Path_59546" data-name="Path 59546" d="M213.6,277.659a.88.88,0,0,0-.87-.869.872.872,0,0,0-.863.869V279.2a.02.02,0,0,1-.006.011v.012a.141.141,0,0,1-.069.074.144.144,0,0,1-.069.018h-.029a.02.02,0,0,1-.011-.006c-.011,0-.023-.012-.034-.018a.029.029,0,0,1-.017-.011l-.017-.018c-.006-.005-.006-.011-.011-.011s0-.006-.006-.012a.018.018,0,0,0-.006-.011.022.022,0,0,0-.006-.017v-1.556a.864.864,0,1,0-1.727,0v1.527a.121.121,0,0,1-.063.109.061.061,0,0,1-.034.018c-.006.006-.012.006-.023.006H209.7a.15.15,0,0,1-.114-.1v-2.562a.133.133,0,0,1,.132-.131.13.13,0,0,1,.137.131v.269a1.119,1.119,0,0,1,.864-.4,1.135,1.135,0,0,1,1,.594,1.159,1.159,0,0,1,1.006-.594,1.137,1.137,0,0,1,1.139,1.137v1.527a.135.135,0,0,1-.138.132.133.133,0,0,1-.131-.132Z" transform="translate(-183.377 -275.315)"/>
                <path id="Path_59547" data-name="Path 59547" d="M218.341,276.514a1.4,1.4,0,1,1-1.328,1.4A1.37,1.37,0,0,1,218.341,276.514Zm0,2.528a1.132,1.132,0,1,0-1.053-1.127A1.1,1.1,0,0,0,218.341,279.042Z" transform="translate(-185.491 -275.313)"/>
                <path id="Path_59548" data-name="Path 59548" d="M224.318,277.909a1.411,1.411,0,0,1,1.441-1.4,1.447,1.447,0,0,1,.893.308.129.129,0,0,1,.017.189.141.141,0,0,1-.189.023,1.165,1.165,0,0,0-1.887.875,1.142,1.142,0,0,0,1.166,1.132,1.18,1.18,0,0,0,.721-.246.141.141,0,0,1,.189.022.137.137,0,0,1-.029.2,1.447,1.447,0,0,1-.881.3A1.413,1.413,0,0,1,224.318,277.909Z" transform="translate(-187.571 -275.313)"/>
                <path id="Path_59549" data-name="Path 59549" d="M230.189,276.514a1.4,1.4,0,1,1-1.327,1.4A1.371,1.371,0,0,1,230.189,276.514Zm0,2.528a1.132,1.132,0,1,0-1.052-1.127A1.1,1.1,0,0,0,230.189,279.042Z" transform="translate(-188.865 -275.313)"/>
                <path id="Path_59550" data-name="Path 59550" d="M236.212,278.295a1.333,1.333,0,0,1-1.075.544,1.4,1.4,0,0,1,0-2.8,1.337,1.337,0,0,1,1.075.549v-1.613a.14.14,0,0,1,.28,0V278.7a.14.14,0,0,1-.28,0Zm0-.806V277.4a1.116,1.116,0,1,0,0,.092Z" transform="translate(-190.266 -274.835)"/>
                <path id="Path_59551" data-name="Path 59551" d="M238.925,277.92a1.356,1.356,0,0,1,2.711-.1v.022a.13.13,0,0,1-.137.127h-2.3a1.1,1.1,0,0,0,1.086,1.075,1.054,1.054,0,0,0,.9-.509.134.134,0,0,1,.183-.046.147.147,0,0,1,.047.195,1.336,1.336,0,0,1-1.133.635A1.38,1.38,0,0,1,238.925,277.92Zm.291-.222h2.122a1.082,1.082,0,0,0-1.052-.91A1.1,1.1,0,0,0,239.216,277.7Z" transform="translate(-191.73 -275.313)"/>
              </g>
              <g id="Group_66882" data-name="Group 66882" transform="translate(55.917 35.667)">
                <path id="Path_59563" data-name="Path 59563" d="M237.243,174.556a.122.122,0,0,1,.177-.016,2.2,2.2,0,0,0,1.315.514,1.5,1.5,0,0,0,.881-.263.739.739,0,0,0,.343-.594.639.639,0,0,0-.325-.549,2.644,2.644,0,0,0-.927-.325H238.7a2.53,2.53,0,0,1-.943-.338.83.83,0,0,1-.412-.7.932.932,0,0,1,.418-.749,1.64,1.64,0,0,1,.966-.292,2.208,2.208,0,0,1,1.235.464.128.128,0,0,1,.034.177.121.121,0,0,1-.172.034,1.981,1.981,0,0,0-1.1-.423,1.429,1.429,0,0,0-.818.24.7.7,0,0,0-.315.549.58.58,0,0,0,.3.486,2.331,2.331,0,0,0,.858.3h.011a2.73,2.73,0,0,1,1.018.366.9.9,0,0,1,.441.755,1.008,1.008,0,0,1-.452.8,1.756,1.756,0,0,1-1.029.315,2.5,2.5,0,0,1-1.476-.578A.133.133,0,0,1,237.243,174.556Z" transform="translate(-237.217 -171.245)"/>
                <path id="Path_59564" data-name="Path 59564" d="M242.765,171.862a.14.14,0,0,1,.28,0v.132a.14.14,0,1,1-.28,0Zm0,.915a.136.136,0,0,1,.137-.137.137.137,0,0,1,.143.137V175.3a.14.14,0,0,1-.28,0Z" transform="translate(-238.796 -171.382)"/>
                <path id="Path_59565" data-name="Path 59565" d="M244.886,173.31a.139.139,0,0,1-.137-.137.136.136,0,0,1,.137-.137H246.7a.146.146,0,0,1,.1.023l.017.017.006.006a.115.115,0,0,1,.029.126.112.112,0,0,1-.052.074l-1.647,2.259h1.567a.137.137,0,0,1,0,.275h-1.83a.133.133,0,0,1-.125-.08c0-.006-.006-.006-.006-.006a.158.158,0,0,1-.006-.051v-.006a.122.122,0,0,1,.046-.1l1.653-2.265Z" transform="translate(-239.361 -171.754)"/>
                <path id="Path_59566" data-name="Path 59566" d="M249.038,174.411a1.356,1.356,0,0,1,2.71-.1v.023a.13.13,0,0,1-.137.126h-2.3a1.1,1.1,0,0,0,1.086,1.075,1.054,1.054,0,0,0,.9-.509.132.132,0,0,1,.183-.046.145.145,0,0,1,.046.194,1.336,1.336,0,0,1-1.132.635A1.379,1.379,0,0,1,249.038,174.411Zm.291-.223h2.121a1.081,1.081,0,0,0-1.052-.909A1.1,1.1,0,0,0,249.329,174.188Z" transform="translate(-240.583 -171.746)"/>
                <path id="Path_59567" data-name="Path 59567" d="M254.426,172.764a.286.286,0,1,1-.285.286A.283.283,0,0,1,254.426,172.764Zm0,2.4a.286.286,0,1,1-.285.286A.283.283,0,0,1,254.426,175.166Z" transform="translate(-242.036 -171.678)"/>
                <path id="Path_59568" data-name="Path 59568" d="M261.685,171.9l-1.281,1.779a.133.133,0,0,1-.114.063h-.011a.129.129,0,0,1-.12-.063l-1.281-1.773V175.2a.14.14,0,0,1-.28,0v-3.706a.128.128,0,0,1,.057-.109c0-.006.006-.006.011-.011a.144.144,0,0,1,.195.034l1.424,1.973,1.418-1.973a.143.143,0,0,1,.195-.034.325.325,0,0,1,.04.046.186.186,0,0,1,.023.074V175.2a.139.139,0,0,1-.138.137.135.135,0,0,1-.137-.137Z" transform="translate(-243.304 -171.274)"/>
              </g>
              <g id="Group_66883" data-name="Group 66883" transform="translate(55.948 43.984)">
                <path id="Path_59569" data-name="Path 59569" d="M239.343,182.874a2.123,2.123,0,0,1,1.292.441.141.141,0,0,1,.023.2.134.134,0,0,1-.195.029,1.822,1.822,0,0,0-1.121-.389,1.751,1.751,0,1,0,0,3.5,1.7,1.7,0,0,0,1.109-.389.139.139,0,0,1,.2.034.135.135,0,0,1-.017.2,2.123,2.123,0,0,1-1.292.434,2.031,2.031,0,1,1,0-4.061Z" transform="translate(-237.261 -182.874)"/>
                <path id="Path_59570" data-name="Path 59570" d="M244.652,184.633a1.4,1.4,0,1,1-1.327,1.4A1.371,1.371,0,0,1,244.652,184.633Zm0,2.528a1.132,1.132,0,1,0-1.052-1.127A1.1,1.1,0,0,0,244.652,187.161Z" transform="translate(-238.988 -183.375)"/>
                <path id="Path_59571" data-name="Path 59571" d="M248.565,183.092a.14.14,0,0,1,.28,0v3.729a.14.14,0,0,1-.28,0Z" transform="translate(-240.48 -182.897)"/>
                <path id="Path_59572" data-name="Path 59572" d="M251.644,184.633a1.4,1.4,0,1,1-1.327,1.4A1.371,1.371,0,0,1,251.644,184.633Zm0,2.528a1.132,1.132,0,1,0-1.052-1.127A1.1,1.1,0,0,0,251.644,187.161Z" transform="translate(-240.979 -183.375)"/>
                <path id="Path_59573" data-name="Path 59573" d="M255.341,184.779a.136.136,0,0,1,.143-.137.134.134,0,0,1,.132.137v.618a.479.479,0,0,1,.039-.069,1.353,1.353,0,0,1,1.122-.686.135.135,0,0,1,.137.137.139.139,0,0,1-.137.137,1.009,1.009,0,0,0-.812.458,2.508,2.508,0,0,0-.338.652.087.087,0,0,0-.011.046v1.23a.134.134,0,0,1-.132.137.137.137,0,0,1-.143-.137Z" transform="translate(-242.409 -183.377)"/>
                <path id="Path_59574" data-name="Path 59574" d="M259.091,184.394a.286.286,0,1,1-.285.285A.282.282,0,0,1,259.091,184.394Zm0,2.4a.286.286,0,1,1-.285.285A.283.283,0,0,1,259.091,186.8Z" transform="translate(-243.396 -183.307)"/>
                <path id="Path_59575" data-name="Path 59575" d="M264.252,185.044l-1.344-1.836a.148.148,0,0,1,.029-.195.131.131,0,0,1,.194.023l1.253,1.722,1.258-1.722a.132.132,0,0,1,.195-.023.137.137,0,0,1,.029.195l-1.338,1.825v1.8a.136.136,0,0,1-.137.137.139.139,0,0,1-.137-.137Z" transform="translate(-244.557 -182.904)"/>
                <path id="Path_59576" data-name="Path 59576" d="M266.845,186.04a1.356,1.356,0,0,1,2.711-.1v.022a.131.131,0,0,1-.138.127h-2.3a1.1,1.1,0,0,0,1.087,1.074,1.054,1.054,0,0,0,.9-.509.133.133,0,0,1,.183-.046.147.147,0,0,1,.046.195,1.335,1.335,0,0,1-1.132.634A1.379,1.379,0,0,1,266.845,186.04Zm.292-.222h2.121a1.082,1.082,0,0,0-1.052-.91A1.094,1.094,0,0,0,267.137,185.817Z" transform="translate(-245.685 -183.375)"/>
                <path id="Path_59577" data-name="Path 59577" d="M272.053,183.092a.138.138,0,0,1,.137-.137.14.14,0,0,1,.143.137v3.729a.141.141,0,0,1-.143.137.139.139,0,0,1-.137-.137Z" transform="translate(-247.168 -182.897)"/>
                <path id="Path_59578" data-name="Path 59578" d="M274.045,183.092a.14.14,0,0,1,.28,0v3.729a.14.14,0,0,1-.28,0Z" transform="translate(-247.735 -182.897)"/>
                <path id="Path_59579" data-name="Path 59579" d="M277.123,184.633a1.4,1.4,0,1,1-1.326,1.4A1.371,1.371,0,0,1,277.123,184.633Zm0,2.528a1.132,1.132,0,1,0-1.051-1.127A1.1,1.1,0,0,0,277.123,187.161Z" transform="translate(-248.234 -183.375)"/>
                <path id="Path_59580" data-name="Path 59580" d="M281.526,187.422a.1.1,0,0,1-.057-.063l-1.052-2.5a.14.14,0,0,1,.069-.177.137.137,0,0,1,.177.074l.931,2.208.647-1.539a.149.149,0,0,1,.131-.086.153.153,0,0,1,.137.086l.647,1.539.926-2.208a.14.14,0,0,1,.177-.074.137.137,0,0,1,.074.177l-1.046,2.494a.155.155,0,0,1-.052.068.117.117,0,0,1-.068.029h-.029a.133.133,0,0,1-.109-.086l-.006-.006-.652-1.55-.646,1.545a.017.017,0,0,0-.006.011.135.135,0,0,1-.12.086.163.163,0,0,1-.052-.011A.029.029,0,0,1,281.526,187.422Z" transform="translate(-249.546 -183.385)"/>
              </g>
              <g id="Group_66884" data-name="Group 66884" transform="translate(20.729 68.303)">
                <path id="Path_59581" data-name="Path 59581" d="M190.091,219.973a.722.722,0,0,0-.326-.607,1.286,1.286,0,0,0-.463-.2c-.017-.006-.023-.011-.029-.011H188.3v1.584a.14.14,0,0,1-.28,0V217.01a.142.142,0,0,1,.126-.137h1.144a1.143,1.143,0,0,1,.48,2.179.544.544,0,0,0,.057.029,1.013,1.013,0,0,1,.538.893,1.537,1.537,0,0,0,.052.464.214.214,0,0,0,.057.1.148.148,0,0,1,.154.092.155.155,0,0,1-.092.182.6.6,0,0,1-.069.006h-.011a.32.32,0,0,1-.257-.182A1.418,1.418,0,0,1,190.091,219.973Zm-.8-2.82H188.3v1.727h1.012a.864.864,0,0,0-.023-1.727Z" transform="translate(-188.021 -216.873)" fill="#924781"/>
                <path id="Path_59582" data-name="Path 59582" d="M192.685,219.959a1.356,1.356,0,0,1,2.711-.1v.022a.13.13,0,0,1-.137.126h-2.3a1.1,1.1,0,0,0,1.086,1.075,1.053,1.053,0,0,0,.9-.509.134.134,0,0,1,.183-.046.146.146,0,0,1,.046.195,1.335,1.335,0,0,1-1.132.634A1.379,1.379,0,0,1,192.685,219.959Zm.292-.222H195.1a1.082,1.082,0,0,0-1.052-.91A1.094,1.094,0,0,0,192.977,219.736Z" transform="translate(-189.349 -217.351)" fill="#924781"/>
                <path id="Path_59583" data-name="Path 59583" d="M201.846,219.7a.867.867,0,1,0-1.733,0v1.544a.02.02,0,0,1-.006.011v.011a.145.145,0,0,1-.069.074.152.152,0,0,1-.069.017h-.029a.02.02,0,0,1-.011-.006c-.011,0-.023-.011-.034-.017s-.011-.006-.017-.011l-.017-.017c-.006-.006-.006-.011-.011-.011s0-.006-.006-.011a.018.018,0,0,0-.006-.011.021.021,0,0,0-.006-.017V219.7a.864.864,0,1,0-1.727,0v1.527a.121.121,0,0,1-.063.109.06.06,0,0,1-.034.017c-.006.006-.012.006-.023.006h-.034a.149.149,0,0,1-.114-.1v-2.562a.133.133,0,0,1,.132-.132.13.13,0,0,1,.137.132v.269a1.12,1.12,0,0,1,.864-.4,1.136,1.136,0,0,1,1,.6,1.16,1.16,0,0,1,1.007-.6,1.137,1.137,0,0,1,1.137,1.138v1.527a.134.134,0,0,1-.268,0Z" transform="translate(-190.816 -217.353)" fill="#924781"/>
                <path id="Path_59584" data-name="Path 59584" d="M206.588,218.552a1.4,1.4,0,1,1-1.327,1.4A1.371,1.371,0,0,1,206.588,218.552Zm0,2.528a1.132,1.132,0,1,0-1.053-1.127A1.1,1.1,0,0,0,206.588,221.08Z" transform="translate(-192.93 -217.351)" fill="#924781"/>
                <path id="Path_59585" data-name="Path 59585" d="M211.019,221.341a.189.189,0,0,1-.046-.063l-1.052-2.5a.139.139,0,0,1,.069-.177.135.135,0,0,1,.177.074l.932,2.208.932-2.208a.133.133,0,1,1,.246.1l-1.046,2.482a.193.193,0,0,1-.034.069.122.122,0,0,1-.092.04.126.126,0,0,1-.046-.006c-.006,0-.006,0-.011-.006S211.03,221.347,211.019,221.341Z" transform="translate(-194.254 -217.361)" fill="#924781"/>
                <path id="Path_59586" data-name="Path 59586" d="M214.341,219.959a1.356,1.356,0,0,1,2.71-.1v.022a.13.13,0,0,1-.137.126h-2.3a1.1,1.1,0,0,0,1.086,1.075,1.053,1.053,0,0,0,.9-.509.133.133,0,0,1,.183-.046.146.146,0,0,1,.046.195,1.335,1.335,0,0,1-1.132.634A1.379,1.379,0,0,1,214.341,219.959Zm.291-.222h2.122a1.082,1.082,0,0,0-1.052-.91A1.1,1.1,0,0,0,214.632,219.736Z" transform="translate(-195.515 -217.351)" fill="#924781"/>
              </g>
              <path id="Path_59620" data-name="Path 59620" d="M310.1,280.81H263.44v-9.753H310.1Zm-45.948-.715h45.232v-8.323H264.155Z" transform="translate(-188.767 -163.999)" fill="#ebebeb"/>
              <rect id="Rectangle_18218" data-name="Rectangle 18218" width="130.103" height="0.715" transform="translate(0.004 174.284)" fill="#ebebeb"/>
            </g>
            <path id="Path_59621" data-name="Path 59621" d="M289.146,402.75v9.9c0,6.552-4.907,11.852-10.958,11.852H170.012c-6.065,0-10.972-5.3-10.972-11.852v-9.9Z" transform="translate(-159.04 -166.864)" fill="#924781"/>
          </g>
        </g>
        <path id="Path_59622" data-name="Path 59622" d="M440.623,91.245V323.032c0,6.552-4.907,11.852-10.958,11.852H321.489c-6.065,0-10.972-5.3-10.972-11.852V91.245c0-13.347,4.907-14,10.972-14h21.672c1.259,0,2.289,1.431,2.289,3.2v.765c0,4.156,2.275,4.17,5.064,4.17h50.111c2.818,0,5.078-.014,5.078-4.17v-.765c0-1.774,1.016-3.2,2.3-3.2h21.665C435.716,77.247,440.623,79.021,440.623,91.245Z" transform="translate(-302.871 -69.861)" fill="#263238" opacity="0.3"/>
        <g id="Group_66899" data-name="Group 66899" transform="translate(22.851 78.116)">
          <rect id="Rectangle_18219" data-name="Rectangle 18219" width="99.696" height="80.509" fill="#fff"/>
          <g id="Group_66897" data-name="Group 66897" transform="translate(23.337 54.442)">
            <path id="Path_59648" data-name="Path 59648" d="M217.764,238.142h-1.593v5.351a.543.543,0,0,1-.551.551.55.55,0,0,1-.551-.551v-5.351h-1.583a.558.558,0,0,1-.551-.561.544.544,0,0,1,.551-.551h4.278a.55.55,0,0,1,.551.551A.565.565,0,0,1,217.764,238.142Z" transform="translate(-212.935 -237.03)"/>
            <path id="Path_59649" data-name="Path 59649" d="M223.442,243.492a.552.552,0,0,1-.561.551.568.568,0,0,1-.531-.411.591.591,0,0,1-.02-.14v-5.912a.556.556,0,0,1,1.112,0v1.743a2.283,2.283,0,0,1,1.072-.29,2.191,2.191,0,0,1,2.184,2.194v2.264a.551.551,0,0,1-1.1,0v-2.264a1.077,1.077,0,1,0-2.154,0Z" transform="translate(-215.61 -237.03)"/>
            <path id="Path_59650" data-name="Path 59650" d="M235.5,242.346v1.964a.535.535,0,0,1-.531.531.544.544,0,0,1-.521-.431,2.274,2.274,0,0,1-1.333.431,2.329,2.329,0,0,1-1.7-.731,2.567,2.567,0,0,1-.682-1.764,2.528,2.528,0,0,1,.682-1.763,2.307,2.307,0,0,1,1.7-.752,2.283,2.283,0,0,1,1.333.441.543.543,0,0,1,.521-.441.536.536,0,0,1,.531.541Zm-1.061,0a1.472,1.472,0,0,0-.391-1.032,1.238,1.238,0,0,0-.932-.411,1.207,1.207,0,0,0-.931.411,1.469,1.469,0,0,0-.381,1.032,1.5,1.5,0,0,0,.381,1.032,1.261,1.261,0,0,0,.931.391,1.3,1.3,0,0,0,.932-.391A1.508,1.508,0,0,0,234.437,242.346Z" transform="translate(-218.002 -237.828)"/>
            <path id="Path_59651" data-name="Path 59651" d="M244.176,241.915v2.395a.526.526,0,0,1-.521.531.542.542,0,0,1-.531-.531v-2.395a1.028,1.028,0,0,0-1.041-1.012,1,1,0,0,0-1,1.012v2.395a.194.194,0,0,1-.02.1.548.548,0,0,1-.531.431.528.528,0,0,1-.531-.531v-3.948a.528.528,0,0,1,.531-.531.541.541,0,0,1,.491.311,1.994,1.994,0,0,1,1.062-.311A2.1,2.1,0,0,1,244.176,241.915Z" transform="translate(-220.641 -237.828)"/>
            <path id="Path_59652" data-name="Path 59652" d="M248.58,243.492v-5.912a.549.549,0,0,1,.551-.551.558.558,0,0,1,.561.551v3.466l2.054-2.054a.563.563,0,0,1,.782,0,.546.546,0,0,1,0,.782l-1.5,1.5,1.542,1.853a.556.556,0,0,1-.079.782.54.54,0,0,1-.772-.07l-1.473-1.784-.551.551v.882a.558.558,0,0,1-.561.551A.549.549,0,0,1,248.58,243.492Z" transform="translate(-223.085 -237.03)"/>
            <path id="Path_59653" data-name="Path 59653" d="M264.233,240.362v3.787a2.367,2.367,0,0,1-3.427,2.144.524.524,0,0,1-.26-.711.549.549,0,0,1,.711-.22,1.344,1.344,0,0,0,.582.139,1.323,1.323,0,0,0,1.252-.911,1.946,1.946,0,0,1-.951.24,2.108,2.108,0,0,1-2.094-2.1v-2.364a.532.532,0,0,1,.521-.531.516.516,0,0,1,.531.531v2.364a1.037,1.037,0,0,0,2.074,0v-2.364a.514.514,0,0,1,.521-.531A.536.536,0,0,1,264.233,240.362Z" transform="translate(-226.349 -237.828)"/>
            <path id="Path_59654" data-name="Path 59654" d="M268.8,244.11a2.5,2.5,0,0,1-.692-1.764,2.586,2.586,0,0,1,.692-1.753,2.338,2.338,0,0,1,1.723-.762,2.213,2.213,0,0,1,1.673.762,2.5,2.5,0,0,1,.7,1.753,2.424,2.424,0,0,1-.7,1.764,2.215,2.215,0,0,1-1.673.761A2.34,2.34,0,0,1,268.8,244.11Zm.4-1.764a1.617,1.617,0,0,0,.361,1.062,1.354,1.354,0,0,0,.961.37,1.312,1.312,0,0,0,.922-.37,1.54,1.54,0,0,0,.391-1.062,1.509,1.509,0,0,0-.391-1.042,1.415,1.415,0,0,0-.922-.381,1.455,1.455,0,0,0-.961.381A1.583,1.583,0,0,0,269.2,242.346Z" transform="translate(-228.645 -237.828)"/>
            <path id="Path_59655" data-name="Path 59655" d="M278.9,244.841a2.1,2.1,0,0,1-2.084-2.084v-2.394a.541.541,0,0,1,.531-.531.535.535,0,0,1,.531.531v2.394a1.013,1.013,0,0,0,1.021,1.022,1.039,1.039,0,0,0,1.052-1.022v-2.394a.526.526,0,0,1,.521-.531.557.557,0,0,1,.541.531v2.394A2.115,2.115,0,0,1,278.9,244.841Z" transform="translate(-231.125 -237.828)"/>
            <path id="Path_59656" data-name="Path 59656" d="M285.539,241.628v-4.048a.556.556,0,0,1,.551-.551.547.547,0,0,1,.54.551v4.048a.541.541,0,0,1-.54.551A.55.55,0,0,1,285.539,241.628Zm.551,2.415a.55.55,0,0,1-.551-.551v-.2a.556.556,0,0,1,.551-.551.547.547,0,0,1,.54.551v.2A.541.541,0,0,1,286.09,244.043Z" transform="translate(-233.608 -237.03)"/>
          </g>
          <g id="Group_66898" data-name="Group 66898" transform="translate(34.381 17.351)">
            <circle id="Ellipse_3430" data-name="Ellipse 3430" cx="15.467" cy="15.467" r="15.467" fill="#fbb017"/>
            <path id="Path_59657" data-name="Path 59657" d="M237.7,205.932c.915.8,1.744,1.666,2.581,2.526.819.873,1.622,1.757,2.4,2.662h-1.369c2.033-3.076,4.226-6.032,6.529-8.9,1.149-1.439,2.353-2.835,3.579-4.215s2.507-2.718,3.88-3.986c-.843,1.669-1.79,3.259-2.771,4.824s-2,3.1-3.073,4.6c-2.131,3-4.374,5.92-6.776,8.718l-.775.9-.594-.9c-.655-1-1.283-2.012-1.9-3.041C238.817,208.068,238.215,207.032,237.7,205.932Z" transform="translate(-231.031 -187.691)" fill="#fff"/>
          </g>
        </g>
      </g>
    </g>
    <g id="Character" transform="translate(249.945 110.193)">
      <g id="Group_66904" data-name="Group 66904">
        <g id="Group_66903" data-name="Group 66903">
          <g id="Group_66902" data-name="Group 66902">
            <g id="Group_66901" data-name="Group 66901">
              <path id="Path_59658" data-name="Path 59658" d="M340.2,129.424s-.107.021-.286.072a.172.172,0,0,1,.05-.086h.007C340.11,129.424,340.2,129.424,340.2,129.424Z" transform="translate(-339.91 -129.41)" fill="#263238"/>
            </g>
          </g>
        </g>
      </g>
      <g id="Group_66906" data-name="Group 66906" transform="translate(22.481 34.783)">
        <g id="Group_66905" data-name="Group 66905">
          <path id="Path_59659" data-name="Path 59659" d="M371.34,178.044v0" transform="translate(-371.34 -178.04)" fill="none" stroke="#ff98b9" stroke-linecap="round" stroke-linejoin="round" stroke-width="0"/>
        </g>
      </g>
      <g id="Group_66907" data-name="Group 66907" transform="translate(8.383 22.473)">
        <rect id="Rectangle_18220" data-name="Rectangle 18220" width="0.007" height="5.035" fill="#dd6a57"/>
        <path id="Path_59660" data-name="Path 59660" d="M351.637,160.83v6.38c-.007-.079-.007-.164-.007-.25v-6.13Z" transform="translate(-351.63 -160.83)" fill="#dd6a57"/>
      </g>
      <g id="Group_66909" data-name="Group 66909" transform="translate(22.481 34.783)">
        <g id="Group_66908" data-name="Group 66908">
          <path id="Path_59661" data-name="Path 59661" d="M371.34,178.044v0" transform="translate(-371.34 -178.04)" fill="none" stroke="#ff98b9" stroke-linecap="round" stroke-linejoin="round" stroke-width="0"/>
        </g>
      </g>
      <path id="Path_59662" data-name="Path 59662" d="M351.769,418.3a.79.79,0,0,0-.129.014v-.093A1.245,1.245,0,0,1,351.769,418.3Z" transform="translate(-343.25 -211.646)" fill="#dd6a57"/>
    </g>
    <g id="Plant" transform="translate(57.288 237.509)">
      <g id="Group_66918" data-name="Group 66918">
        <g id="Group_66915" data-name="Group 66915">
          <g id="Group_66910" data-name="Group 66910" transform="translate(40.207 24.901)">
            <path id="Path_59663" data-name="Path 59663" d="M126.77,388.412s8.217-22.972,14-30.558,16.139-15.631,16.139-15.631S154.086,378.346,126.77,388.412Z" transform="translate(-126.77 -342.223)" fill="#924781"/>
            <path id="Path_59664" data-name="Path 59664" d="M127.441,391.682a112.609,112.609,0,0,0,6.771-10.93,79.518,79.518,0,0,1,4.13-12.093c.033-.074.135-.024.112.049-1.134,3.641-2.405,7.239-3.586,10.866,3.046-5.515,5.967-11.112,9.5-16.28a36.114,36.114,0,0,1,3.567-7.283c.039-.067.151-.021.112.049a48.087,48.087,0,0,0-2.443,5.48,56.4,56.4,0,0,1,5.455-6.5c.124-.126.342.039.219.175-4.583,5.056-7.92,10.943-11.124,16.917a94.2,94.2,0,0,0,8.931-9.653c.028-.035.081.007.054.044a84.365,84.365,0,0,1-9.593,10.745c-2.336,4.377-4.638,8.776-7.344,12.9,5.08-3.7,9.14-8.675,13.149-13.466a.11.11,0,0,1,.172.137c-4.046,5.282-8.2,10.233-13.74,13.961a58.112,58.112,0,0,1-3.9,5.225A.28.28,0,0,1,127.441,391.682Z" transform="translate(-126.945 -345.861)" fill="#263238"/>
          </g>
          <g id="Group_66912" data-name="Group 66912" transform="translate(32.277)">
            <path id="Path_59665" data-name="Path 59665" d="M122.344,378.54s12.21-21.425,9.222-42.5-6.5-28.63-6.5-28.63S105.905,339.7,122.344,378.54Z" transform="translate(-115.683 -307.409)" fill="#924781"/>
            <g id="Group_66911" data-name="Group 66911" transform="translate(2.424 10.305)">
              <path id="Path_59666" data-name="Path 59666" d="M119.176,348.482a102.645,102.645,0,0,0,4.184,17.588c.191-7.708.495-15.415.859-23.118a59.645,59.645,0,0,1-1.927-14.4c0-.143.21-.13.219.009a81.816,81.816,0,0,0,1.808,12.4q.463-9.534,1.011-19.061a.083.083,0,0,1,.166.006c-.212,9.932-.411,19.868-.677,29.8a79.717,79.717,0,0,0,3.634-11.732.035.035,0,0,1,.069.012,46.231,46.231,0,0,1-3.748,13.359c-.176,6.349-.375,12.7-.646,19.042,2.129-6.71,4.389-13.2,5.111-20.326a.074.074,0,0,1,.149.006c-.317,7.864-2.508,15.807-5.254,23.152a.423.423,0,0,1-.134.184q-.161,3.478-.346,6.957a.258.258,0,0,1-.516-.019q.008-7.124.175-14.247a63.81,63.81,0,0,1-4.24-19.6C119.068,348.434,119.168,348.424,119.176,348.482Z" transform="translate(-119.072 -321.816)" fill="#263238"/>
              <path id="Path_59667" data-name="Path 59667" d="M120.337,354.4a40.425,40.425,0,0,1,.7,5.741c0,.065-.1.072-.112.011a40.5,40.5,0,0,1-.851-5.726C120.064,354.276,120.311,354.254,120.337,354.4Z" transform="translate(-119.358 -331.066)" fill="#263238"/>
              <path id="Path_59668" data-name="Path 59668" d="M130.225,332.476c.013-.065.112-.042.112.019a14.708,14.708,0,0,1-.671,3.936c-.031.1-.181.052-.159-.051C129.79,335.084,129.976,333.777,130.225,332.476Z" transform="translate(-122.043 -324.84)" fill="#263238"/>
            </g>
          </g>
          <g id="Group_66914" data-name="Group 66914" transform="translate(0 22.21)">
            <path id="Path_59669" data-name="Path 59669" d="M106.078,386.439s-4.49-23.738-13.751-34.053a52.065,52.065,0,0,0-21.77-13.925S83.89,379.161,106.078,386.439Z" transform="translate(-70.557 -338.461)" fill="#924781"/>
            <g id="Group_66913" data-name="Group 66913" transform="translate(6.871 7.047)">
              <path id="Path_59670" data-name="Path 59670" d="M92.792,371.643a89.7,89.7,0,0,0,11.63,9.691q-3.56-6.819-7.7-13.261c-4.5-2.53-9-5.187-12.3-9.254a.066.066,0,0,1,.1-.089,48.566,48.566,0,0,0,11.579,8.4A187.03,187.03,0,0,0,82.32,348.568a.154.154,0,0,1,.227-.206,114.884,114.884,0,0,1,8.2,9.537c-1.169-2.393-2.223-4.868-3.4-7.238-.034-.067.062-.112.1-.052a43.777,43.777,0,0,1,4.9,9.435,122.958,122.958,0,0,1,9.384,14.912c-.923-3.505-1.89-6.987-3-10.442-.021-.065.088-.1.114-.041a58.651,58.651,0,0,1,3.541,11.687q2.582,4.973,4.715,10.157c.038.092-.1.164-.14.072-.685-1.428-1.4-2.835-2.124-4.239-.029-.006-.054.005-.084-.014A49.051,49.051,0,0,1,92.76,371.673.022.022,0,0,1,92.792,371.643Z" transform="translate(-80.767 -348.313)" fill="#263238"/>
              <path id="Path_59671" data-name="Path 59671" d="M80.272,356.362c.928.656,1.8,1.368,2.709,2.054a19.723,19.723,0,0,1,2.433,1.868.04.04,0,0,1-.041.064,11.739,11.739,0,0,1-2.724-1.749,19.423,19.423,0,0,1-2.467-2.131A.07.07,0,0,1,80.272,356.362Z" transform="translate(-80.164 -350.602)" fill="#263238"/>
            </g>
          </g>
        </g>
        <g id="Group_66917" data-name="Group 66917" transform="translate(26.724 67.375)">
          <g id="Group_66916" data-name="Group 66916" transform="translate(0 1.476)">
            <path id="Path_59672" data-name="Path 59672" d="M131.674,433.4H107.92l2.073-24.263.467-5.466h18.674l.467,5.466Z" transform="translate(-107.92 -403.668)" fill="#455a64"/>
            <path id="Path_59673" data-name="Path 59673" d="M130.427,409.134H110.817l.467-5.466h18.674Z" transform="translate(-108.745 -403.668)" fill="#263238"/>
          </g>
          <rect id="Rectangle_18221" data-name="Rectangle 18221" width="21.761" height="4.552" transform="translate(0.932)" fill="#455a64"/>
        </g>
      </g>
    </g>
  </g>
</svg>
