<svg id="phone" xmlns="http://www.w3.org/2000/svg" width="10.355" height="16.525" viewBox="0 0 10.355 16.525">
  <path id="Path_26538" data-name="Path 26538" d="M17.133,0H8.028A.625.625,0,0,0,7.4.625V15.9a.625.625,0,0,0,.625.625h9.105a.625.625,0,0,0,.625-.625V.625A.625.625,0,0,0,17.133,0Zm-6.15.762h3.195a.208.208,0,0,1,0,.417H10.984a.208.208,0,0,1,0-.417Zm1.6,15.07a.556.556,0,1,1,.555-.556A.556.556,0,0,1,12.581,15.832ZM16.508,14.1H8.653V1.734h7.855Z" transform="translate(-7.403)" fill="#924781"/>
</svg>
