<svg xmlns="http://www.w3.org/2000/svg" width="367.678" height="251.791" viewBox="0 0 367.678 251.791"><defs><style>.a{fill:#feefdc;}.b{fill:#fff;}.c{fill:#49263e;}.d{fill:#e8f2fc;}.e{fill:#21111d;}.f{fill:#fe9f73;}.g{fill:#3aa1c9;}.h{fill:#4cb7d8;}.i{fill:#683d46;}.j{fill:#f07162;}.k{fill:#e2f2f1;}.l{fill:#fbb017;}.m{fill:#e39e11;}.n{fill:#f75553;}.o{fill:#258d8c;}.p{fill:#397fa1;}.q{fill:#61a3c5;}.r{fill:#f99247;}.s,.v{fill:#fecc86;}.t{fill:#f3fffe;}.u{fill:#fbbe62;}.v{opacity:0.3;mix-blend-mode:multiply;isolation:isolate;}.w{opacity:0.5;}.x{fill:#7fc6a6;}.y{fill:#b9edd6;}.z{fill:#aac9f8;}.aa{fill:#3a1f33;}.ab{fill:#febac7;}.ac{fill:#5089a0;}.ad{fill:#fbfdfc;}</style></defs><g transform="translate(-87.067 -126.239)"><path class="a" d="M120.768,369.35c9.449-20.008,7.677-19.008,3.248-37.078s-12.4-65.905,10.04-105.178,51.084-44.292,64.962-39.568,25.1,12.4,49.017.59,82.975-46.655,126.677-26.28,25.589,54.421,40.943,68.89,51.48,18.219,62.7,53.358-7.382,112.347-49.608,117l-294.693,2s-22.737-13.725-13.288-33.733Z" transform="translate(-26.82 -25.054)"/><g transform="translate(394.777 238.166)"><path class="b" d="M2197.195,906.425a176.779,176.779,0,0,1,22.714,1.343,6.043,6.043,0,0,0,6.9-5.744,9.239,9.239,0,0,0-1.626-5.2c-4.8-7.712-14.282-1.14-14.407,2.63,0,0-1.516-5.773-7.146-5.095s-4.124,9.035-4.124,9.035a4.49,4.49,0,0,0-3.073.3A1.471,1.471,0,0,0,2197.195,906.425Z" transform="translate(-2195.719 -893.244)"/></g><g transform="translate(221.639 181.396)"><path class="b" d="M1012.354,523.388c8.993-.713,30.935-2.137,44.183-.3a2.1,2.1,0,0,0,1.891-3.448c-.915-1.051-2.531-1.926-5.36-2.024,0,0,2.494-12.3-9.392-13.341-12.214-1.068-12.254,11.845-12.254,11.845s-7.2-6.7-10.576,1.715c0,0-7.568-3.223-10.944.9A2.86,2.86,0,0,0,1012.354,523.388Z" transform="translate(-1009.254 -504.211)"/></g><g transform="translate(245.086 310.237)"><rect class="c" width="30.599" height="64.106" transform="translate(0 0)"/></g><g transform="translate(167.155 238.163)"><path class="c" d="M821.274,988.6V900.78a7.555,7.555,0,0,0-7.555-7.555H643.447a7.555,7.555,0,0,0-7.555,7.555V988.6Z" transform="translate(-635.892 -893.225)"/></g><g transform="translate(171.495 241.977)"><g transform="translate(0 0)"><path class="d" d="M842.332,1007.105v-83.77a4.049,4.049,0,0,0-4.119-3.976H669.748a4.049,4.049,0,0,0-4.119,3.976v83.77Z" transform="translate(-665.629 -919.359)"/></g></g><g transform="translate(166.934 237.942)"><path class="e" d="M815.657,1006.9H638.918c-2.505,0-4.543-2.477-4.543-5.521V899.485a7.785,7.785,0,0,1,7.776-7.777v.443a7.342,7.342,0,0,0-7.334,7.334v101.891c0,2.8,1.839,5.079,4.1,5.079H815.657Z" transform="translate(-634.375 -891.708)"/></g><g transform="translate(253.881 230.428)"><path class="f" d="M1230.195,847.415s1.417-5.3,2.712-5.852a3.3,3.3,0,0,1,2.739.374s1.385-1.891,2.329-1.711a1.525,1.525,0,0,1,1.173,1.025s1.669.177,1.838,1.548c0,0,1.312.318,1.3,1.4,0,0,.677.307.633,1.612,0,0-2.253,4.4-5.563,5.964S1230.195,847.415,1230.195,847.415Z" transform="translate(-1230.195 -840.214)"/></g><g transform="translate(202.951 287.417)"><path class="g" d="M902.092,1273.055l.393-37.49-.843-4.816-20.456,7.342s.63,15.847,1.957,34.964Z" transform="translate(-881.186 -1230.749)"/></g><g transform="translate(187.834 283.977)"><path class="h" d="M797.91,1252.921l2.3-26.445,3.888-19.3-26.446,11.251s-.189,15.57.132,34.495Z" transform="translate(-777.595 -1207.175)"/></g><g transform="translate(248.212 211.008)"><path class="i" d="M1191.347,707.135l21.515,35.841-1.791,1.361-17.037-31.586Z" transform="translate(-1191.347 -707.135)"/></g><g transform="translate(258.456 230.751)"><path class="f" d="M1262.264,843.717a8.74,8.74,0,0,1,1.523-1.276c.572-.293,3.976,5.97,3.976,5.97l.493,1.548s-.436.818-.718.785a4.924,4.924,0,0,1-1.135-.685l-.222-.854-.344-.1-.448-.414-.222-.678-.477.215-.678-.269-.313-.632-.134-.061-2.02-3.247Z" transform="translate(-1261.546 -842.432)"/></g><g transform="translate(256.753 231.43)"><path class="j" d="M1253.539,851.357a2.269,2.269,0,0,1-1.006-.423,5.4,5.4,0,0,0-.779-.412,1.777,1.777,0,0,0-1.161-.175.111.111,0,0,1-.144-.061.11.11,0,0,1,.058-.144,1.9,1.9,0,0,1,1.328.174,5.589,5.589,0,0,1,.811.428c.563.337.919.53,1.159.265a1.05,1.05,0,0,0,.277-.83,3.9,3.9,0,0,0-1.694-2.291,2.391,2.391,0,0,0-2.356-.455.111.111,0,0,1-.091-.2,2.607,2.607,0,0,1,2.581.481,4.048,4.048,0,0,1,1.78,2.447,1.264,1.264,0,0,1-.333,1A.558.558,0,0,1,1253.539,851.357Z" transform="translate(-1249.877 -847.08)"/></g><g transform="translate(260.679 231.354)"><path class="j" d="M1276.894,849.031a.111.111,0,0,1-.082-.185l2.045-2.247a.111.111,0,0,1,.164.149l-2.045,2.247A.111.111,0,0,1,1276.894,849.031Z" transform="translate(-1276.783 -846.562)"/></g><g transform="translate(262.053 234.298)"><path class="j" d="M1287.175,870.047a.688.688,0,0,1-.44-.155,1.068,1.068,0,0,1-.51-1.136.111.111,0,1,1,.216.048.862.862,0,0,0,.417.9.5.5,0,0,0,.434.105c1.1-.209,2.71-3,2.726-3.024a.111.111,0,0,1,.192.11c-.068.119-1.681,2.9-2.877,3.132A.85.85,0,0,1,1287.175,870.047Z" transform="translate(-1286.199 -866.734)"/></g><g transform="translate(260.485 232.902)"><path class="j" d="M1276.51,860.906a.971.971,0,0,1-.625-.208,1.346,1.346,0,0,1-.433-.862.111.111,0,0,1,.22-.019,1.143,1.143,0,0,0,.352.709.823.823,0,0,0,.651.146c.806-.11,2.343-2.524,2.868-3.444a.111.111,0,0,1,.193.11c-.079.139-1.953,3.407-3.031,3.554A1.422,1.422,0,0,1,1276.51,860.906Z" transform="translate(-1275.45 -857.172)"/></g><g transform="translate(251.767 235.408)"><path class="k" d="M1215.714,875.344l.8-1s7.09,1.993,9.657,7.807l-1.123,1.514S1219.862,877.191,1215.714,875.344Z" transform="translate(-1215.714 -874.341)"/></g><g transform="translate(175.572 235.223)"><path class="l" d="M744.452,935.415l.13-.17-.68-38.151s12.548,8.416,16.308,8.577,19.308-22.917,19.308-22.917a14.349,14.349,0,0,0-10.176-8.563L756.5,888.266l-15.042-13.645c-2.006-1.218-17.423-1.481-17.423-1.481s-17.549-.4-19.554.818-9.383,21.273-10.529,30.37,0,14.988,6.948,16.063l2.527.054.194,14.97s14,3.152,40.828,0Z" transform="translate(-693.568 -873.077)"/></g><g transform="translate(203.502 260.673)"><g transform="translate(0 0.895)"><rect class="c" width="18.728" height="23.691" rx="9.364"/></g><g transform="translate(4.499)"><path class="k" d="M925.416,1047.474h-8.723a.9.9,0,0,0-.9.9h10.514A.9.9,0,0,0,925.416,1047.474Z" transform="translate(-915.797 -1047.474)"/></g></g><g transform="translate(205.664 267.929)"><path class="f" d="M916.792,1103.039c2.023-1.783-.1-2.083-.1-2.083.988-1.068.758-1.567.4-1.8a1,1,0,0,0-.892-.073c-.93.361-3.767,1.474-5.5,2.275-1.232-.087-.839-2.164-.288-3.228.284-.548.3-1.454-1.033-.542a16.239,16.239,0,0,0-2.734,3.2l-6.866-.66,1.023,9.462s7.838-.11,9.019-.118a16.059,16.059,0,0,0,6.33-2.395c2.167-1.887.8-1.983.8-1.983C919.021,1102.926,916.792,1103.039,916.792,1103.039Z" transform="translate(-899.777 -1097.202)"/><g transform="translate(14.287 3.612)"><path class="j" d="M997.834,1123.657a.142.142,0,0,1-.065-.273,17.454,17.454,0,0,0,2.463-1.406.142.142,0,1,1,.16.234,17.418,17.418,0,0,1-2.515,1.435A.136.136,0,0,1,997.834,1123.657Z" transform="translate(-997.681 -1121.953)"/></g><g transform="translate(14.428 5.694)"><path class="j" d="M998.8,1137.638a.142.142,0,0,1-.048-.279,8.829,8.829,0,0,0,2.4-1.11.142.142,0,1,1,.162.233,8.941,8.941,0,0,1-2.489,1.152Z" transform="translate(-998.646 -1136.224)"/></g><g transform="translate(14.903 7.752)"><path class="j" d="M1002.055,1151.7a.142.142,0,0,1-.052-.278,7.577,7.577,0,0,0,2.086-1.07.142.142,0,1,1,.172.226,7.743,7.743,0,0,1-2.177,1.115A.127.127,0,0,1,1002.055,1151.7Z" transform="translate(-1001.902 -1150.327)"/></g></g><g transform="translate(188.995 253.42)"><path class="e" d="M785.837,1013.433l-.286-.338,2.795-2.363,1.067-12.958.442.036-1.082,13.141Z" transform="translate(-785.551 -997.775)"/></g><g transform="translate(175.351 266.447)"><path class="e" d="M702.132,1103.409l-2.556-.056c-3.41-.527-5.6-2.217-6.683-5.165-.943-2.558-1.086-6.1-.451-11.144l.439.055c-1.3,10.282.66,14.866,6.748,15.814l2.513.053Z" transform="translate(-692.054 -1087.044)"/></g><g transform="translate(209.126 268.599)"><path class="k" d="M924.378,1101.8h1.379s1.468,9.443-.537,13.776h-1.715S925.506,1106.714,924.378,1101.8Z" transform="translate(-923.505 -1101.795)"/></g><g transform="translate(200.61 267.178)"><path class="m" d="M867.324,1092.055l6.908.442s1.4,4.405-.282,13.337c-.163.867-.506,2.35-.506,2.35s-7.015.559-8.116-1.719c-.691-1.431.82-7.612.82-7.612Z" transform="translate(-865.147 -1092.055)"/></g><g transform="translate(185.427 266.267)"><path class="e" d="M784.753,1103.075l-23.651-.721.013-.443,23.294.711c.333-1.378,2.466-10.654.8-15.248l-17.549-1.124.028-.442,17.833,1.142.051.132c1.938,5.022-.668,15.382-.78,15.821Z" transform="translate(-761.102 -1085.808)"/></g><g transform="translate(220.566 235.881)"><path class="e" d="M1020,895.882l-.367-3.658-14.566-13.213a5.579,5.579,0,0,0-3.163-.981v-.443h0a5.917,5.917,0,0,1,3.461,1.1l14.692,13.328.384,3.827Z" transform="translate(-1001.901 -877.587)"/></g><g transform="translate(238.344 236.099)"><path class="e" d="M1124.052,893.542l-.327-.3,12.92-14.163.119.019a15.165,15.165,0,0,1,10.341,8.689l-.4.185a14.8,14.8,0,0,0-9.9-8.414Z" transform="translate(-1123.725 -879.08)"/></g><g transform="translate(198.667 235.223)"><path class="k" d="M867.532,873.443c-4.239-.234-8.326-.3-8.326-.3s-3.4-.077-7.373-.06c0,.023,0,.046,0,.07a7.853,7.853,0,0,0,15.7.294Z" transform="translate(-851.831 -873.077)"/></g><g transform="translate(209.3 255.567)"><path class="e" d="M925.082,1056.016l-.388,0,0-.443c5.537.059,15.411-1.1,16.928-1.287l-.549-41.792.443-.006.554,42.19-.2.024C941.769,1054.712,931.158,1056.015,925.082,1056.016Z" transform="translate(-924.694 -1012.485)"/></g><g transform="translate(197.277 237.382)"><path class="e" d="M846.868,894.05a10.481,10.481,0,0,1-4.559-6.06l.426-.12a10.038,10.038,0,0,0,4.367,5.8Z" transform="translate(-842.309 -887.869)"/></g><g transform="translate(200.001 218.661)"><g transform="translate(2.307 0)"><path class="f" d="M878.015,760.3a9.385,9.385,0,0,1,5.907-.376,3.993,3.993,0,0,1,2.677,3.783v1.663l-8.562-3.656s-1.354.641-1.246.446S878.015,760.3,878.015,760.3Z" transform="translate(-876.785 -759.584)"/></g><g transform="translate(0 0.61)"><g transform="translate(2.47 0.634)"><path class="f" d="M887.553,770.8v7.015s.1,2.506-2.089,2.82l.409,3.344a2.61,2.61,0,0,1-1.785,2.811,6.846,6.846,0,0,1-2.071.32,4.187,4.187,0,0,1-4.073-2.819,34.757,34.757,0,0,1,.418-5.43l-.076-2.207.285-8.55Z" transform="translate(-877.903 -768.107)"/></g><g transform="translate(5.965 5.652)"><path class="e" d="M901.955,803.485a.1.1,0,0,1-.075-.177c.014-.015,1.451-1.484,2.763-.427a.1.1,0,1,1-.131.163c-1.163-.937-2.428.353-2.482.409A.1.1,0,0,1,901.955,803.485Z" transform="translate(-901.851 -802.499)"/></g><g transform="translate(10.27 5.301)"><path class="e" d="M931.455,800.8a.1.1,0,0,1-.068-.183c.042-.036,1.038-.888,1.668-.348a.1.1,0,0,1-.136.159c-.493-.423-1.386.34-1.4.348A.1.1,0,0,1,931.455,800.8Z" transform="translate(-931.351 -800.093)"/></g><g transform="translate(7.554 6.747)"><path d="M913.371,810.314a.313.313,0,1,1-.313-.313A.313.313,0,0,1,913.371,810.314Z" transform="translate(-912.744 -810.001)"/></g><g transform="translate(10.885 6.434)"><path d="M936.192,808.167a.313.313,0,1,1-.313-.313A.313.313,0,0,1,936.192,808.167Z" transform="translate(-935.565 -807.854)"/></g><path class="e" d="M864.513,763.766s-2.653-.127-3.326,2.193.474,3.548.5,4.239-.446,5.356,2.829,5.008l.884-7.7-1.14-3.068Z" transform="translate(-860.975 -763.765)"/><g transform="translate(1.055 4.293)"><g transform="translate(0 0)"><circle class="f" cx="1.88" cy="1.88" r="1.88" transform="translate(0 2.658) rotate(-45)"/></g></g><g transform="translate(2.801 6.017)"><path class="j" d="M880.946,807.082a.783.783,0,0,1-.737-.587.735.735,0,0,1,.3-.859.883.883,0,0,1,.987.035.848.848,0,0,0-.38-.463,1.179,1.179,0,0,0-.834-.054.052.052,0,0,1-.033-.1,1.264,1.264,0,0,1,.917.061,1.014,1.014,0,0,1,.479.685l.046.182-.133-.132a.818.818,0,0,0-.994-.126.639.639,0,0,0-.251.741.674.674,0,0,0,.637.512h.011a.052.052,0,0,1,0,.1Z" transform="translate(-880.173 -804.995)"/></g><g transform="translate(4.948 11.036)"><path class="j" d="M894.88,839.391s.147,4.2,5.386,4.6l-.3-2.466S896.566,842.2,894.88,839.391Z" transform="translate(-894.88 -839.391)"/></g><g transform="translate(4.268 3.738)"><path class="e" d="M898.442,794.805s.683,5.021-2.651,5.2c-4.771.255-5.233-2.468-5.516-4.7l-.048-4.6.153-1.334h0a2.382,2.382,0,0,1,.589,1.367c.1,1.1.343,4.073.618,4.2C891.975,795.134,897.7,794.322,898.442,794.805Z" transform="translate(-890.226 -789.377)"/></g><g transform="translate(9.234 6.203)"><path class="j" d="M924.305,809.243a.052.052,0,0,1-.016-.1l1.047-.346L925,806.332a.052.052,0,0,1,.045-.059.052.052,0,0,1,.059.045l.342,2.549-1.129.373A.049.049,0,0,1,924.305,809.243Z" transform="translate(-924.253 -806.273)"/></g><g transform="translate(2.853 8.437)"><path class="f" d="M880.526,825.119l.364-3.536.878.1v3.541Z" transform="translate(-880.526 -821.583)"/></g></g><g transform="translate(1.834 0.478)"><path class="e" d="M875.738,762.923a5.44,5.44,0,0,0,.394,3.915c1.009,2.448-2.587-.913-2.587-.913S873.794,762.343,875.738,762.923Z" transform="translate(-873.544 -762.859)"/></g><g transform="translate(8.014 10.683)"><path class="j" d="M915.949,832.963a1.686,1.686,0,0,0,2.008.568.073.073,0,0,0-.061-.132,1.517,1.517,0,0,1-1.832-.525l-.042-.056a.074.074,0,0,0-.1-.016.073.073,0,0,0-.016.1Z" transform="translate(-915.891 -832.79)"/></g></g><g transform="translate(263.057 237.413)"><path class="j" d="M1294.6,889.816l-.019,0a1.838,1.838,0,0,1-1.286-.706,1.293,1.293,0,0,1-.2-.936.111.111,0,0,1,.216.048,1.086,1.086,0,0,0,.165.767,1.633,1.633,0,0,0,1.137.609.111.111,0,0,1-.018.22Z" transform="translate(-1293.078 -888.086)"/></g><g transform="translate(171.495 241.756)"><path class="e" d="M842.553,1006.031H665.628v-.443H842.11V922.039a3.832,3.832,0,0,0-3.9-3.754v-.443a4.276,4.276,0,0,1,4.341,4.2Z" transform="translate(-665.628 -917.842)"/></g><g transform="translate(201.091 216.84)"><path class="e" d="M871.772,753.381s7.983-.473,8.475-2.343a1.418,1.418,0,0,0-1.385-1.919s.352-2.658-2.06-1.87-6.879.684-8.135,2.919S871.772,753.381,871.772,753.381Z" transform="translate(-868.44 -747.103)"/></g><g transform="translate(231.832 293.755)"><path class="n" d="M1081.436,1283.212l-1.924,1.407a.664.664,0,0,0,.785,1.072l1.536-1.124,1.352,4.611a.664.664,0,1,0,1.275-.374l-1.486-5.072,2.04-1.493,2.415,3.153a.664.664,0,0,0,1.055-.808l-2.4-3.129,1.3-.948a.664.664,0,1,0-.785-1.072l-1.32.966-4.484-5.853a.942.942,0,0,0-1.652.838Zm2.77-2.026-1.629,1.192L1081,1277Z" transform="translate(-1079.103 -1274.177)"/></g><g transform="translate(240.643 283.542)"><g transform="translate(0 0)"><path class="o" d="M1140.144,1210.193c.468,0,.593-.27,1.007-1.164.054-.117.107-.229.159-.339l1.073,3.677-.042.115a.668.668,0,0,0-.05.136c-.266.717-.546,1.407-.819,2.023a.664.664,0,1,0,1.214.539c.073-.163.18-.409.308-.717l1.564,5.358a.664.664,0,0,0,1.275-.372l-.14-.479c1.233-.633,4.26-2.392,5.126-4.789a3.762,3.762,0,0,0-.172-3.042,3.018,3.018,0,0,0-2.265-1.821,5.971,5.971,0,0,0-4.043,1.385c.65-2.226,1.049-4.649.216-5.823a1.408,1.408,0,0,0-1.3-.679,2.546,2.546,0,0,0-1.639,1.208.665.665,0,0,0-1.062.7l.2.7c-.28.527-.551,1.093-.815,1.664-.108.233-.228.493-.289.606a.664.664,0,0,0,.487,1.116Zm8.036.437a1.74,1.74,0,0,1,1.276,1.095,2.447,2.447,0,0,1,.115,2c-.656,1.819-3.061,3.3-4.257,3.939l-1.426-4.886C1144.922,1211.841,1146.828,1210.416,1148.181,1210.631Zm-4.818-5.1a.518.518,0,0,1,.111.122c.475.67.2,2.481-.361,4.474l-.92-3.154C1142.843,1205.827,1143.19,1205.559,1143.363,1205.526Z" transform="translate(-1139.48 -1204.195)"/></g></g><g transform="translate(255.888 282.702)"><path class="p" d="M1249.309,1212.865a12.074,12.074,0,0,0,2.47-.281.664.664,0,0,0-.273-1.3c-3.1.651-5.073.052-5.854-1.781-1.291-3.03.889-8.176,2.428-9.226a2.265,2.265,0,0,1,1.844-.46,3.206,3.206,0,0,1,1.715,1.522.664.664,0,0,0,1.188-.6,4.525,4.525,0,0,0-2.563-2.211,3.518,3.518,0,0,0-2.933.647c-2.14,1.459-4.382,7.369-2.9,10.844C1245.018,1211.4,1246.342,1212.865,1249.309,1212.865Z" transform="translate(-1243.952 -1198.433)"/></g><g transform="translate(229.75 306.733)"><path class="q" d="M1086.268,1363.228l-14.116,9.689-.576,5.762-2.9-4.087-3.561,2.555a.664.664,0,1,0,.775,1.08l2.476-1.776,4.183,5.887.868-8.674,13.607-9.34a.664.664,0,1,0-.752-1.1Z" transform="translate(-1064.835 -1363.112)"/></g><g transform="translate(257.369 310.681)"><path class="n" d="M1267.653,1390.581a.664.664,0,0,0-.866-.365l-12.271,4.987a.664.664,0,1,0,.5,1.231l12.271-4.987A.665.665,0,0,0,1267.653,1390.581Z" transform="translate(-1254.103 -1390.167)"/></g><g transform="translate(262.16 309.377)"><circle class="n" cx="1.116" cy="1.116" r="1.116" transform="translate(0 0)"/></g><g transform="translate(259.469 269.21)"><path class="f" d="M1268.7,1115.1a.665.665,0,0,0,.94-.018l3.36-3.489,3.36,3.489a.664.664,0,1,0,.957-.922l-3.395-3.526,3.395-3.525a.664.664,0,1,0-.957-.922l-3.36,3.489-3.36-3.489a.665.665,0,0,0-.958.922l3.4,3.525-3.4,3.526A.664.664,0,0,0,1268.7,1115.1Z" transform="translate(-1268.492 -1105.98)"/></g><g transform="translate(87.067 247.59)"><g transform="translate(31.66 69.992)"><path class="o" d="M317.05,1437.458h-9.285l-3.74,53.731H320.79Z" transform="translate(-304.025 -1437.458)"/></g><g transform="translate(33.342 64.576)"><path class="r" d="M0,0H13.321a0,0,0,0,1,0,0V0a6.5,6.5,0,0,1-6.5,6.5H6.5A6.5,6.5,0,0,1,0,0V0A0,0,0,0,1,0,0Z" transform="translate(0)"/></g><g transform="translate(33.12 64.576)"><path class="e" d="M323.6,1407.06H316.35a2.324,2.324,0,0,1-2.321-2.321v-4.4h.443v4.4a1.88,1.88,0,0,0,1.878,1.878H323.6Z" transform="translate(-314.029 -1400.342)"/></g><circle class="s" cx="28.216" cy="28.216" r="28.216" transform="translate(0 39.903) rotate(-45)"/><g transform="translate(5.475 5.475)"><circle class="k" cx="24.344" cy="24.344" r="24.344" transform="translate(0 34.428) rotate(-45)"/></g><g transform="translate(11.466 11.466)"><path class="e" d="M194.077,1093.269a28.438,28.438,0,1,1,19.639-49l-.306.32a27.995,27.995,0,1,0-.14,40.625l.3.322A28.326,28.326,0,0,1,194.077,1093.269Z" transform="translate(-165.64 -1036.394)"/></g><g transform="translate(40.914 19.277)"><ellipse class="t" cx="4.367" cy="9.144" rx="4.367" ry="9.144" transform="matrix(0.707, -0.707, 0.707, 0.707, 0, 6.176)"/></g><g transform="translate(31.587 71.056)"><rect class="e" width="50.81" height="0.443" transform="translate(0 50.68) rotate(-85.91)"/></g><g transform="translate(24.57 19.28)"><path class="e" d="M255.791,1095.736l-.35-.271a16.784,16.784,0,0,1,8.659-5.527l.093.433A16.313,16.313,0,0,0,255.791,1095.736Z" transform="translate(-255.441 -1089.938)"/></g><g transform="translate(25.957 22.003)"><path class="e" d="M265.291,1114.4l-.35-.271a16.782,16.782,0,0,1,8.659-5.527l.093.433A16.313,16.313,0,0,0,265.291,1114.4Z" transform="translate(-264.941 -1108.599)"/></g></g><g transform="translate(175.085 297.219)"><g transform="translate(0 0)"><path class="s" d="M690.229,1297.916l.042,78.9,54.978.057Zm7.708,26.363,29.945,43.381-29.99-.031Z" transform="translate(-690.229 -1297.916)"/></g><g transform="translate(1.697 7.472)"><rect class="r" width="0.706" height="4.28" transform="matrix(0.571, 0.821, -0.821, 0.571, 3.513, 0)"/></g><g transform="translate(7.42 15.625)"><rect class="r" width="0.706" height="4.227" transform="translate(3.47 0) rotate(55.171)"/></g><g transform="translate(6.436 11.725)"><rect class="r" width="0.706" height="2.115" transform="matrix(0.571, 0.821, -0.821, 0.571, 1.736, 0)"/></g><g transform="translate(13.198 23.925)"><rect class="r" width="0.706" height="4.234" transform="matrix(0.571, 0.821, -0.821, 0.571, 3.476, 0)"/></g><g transform="translate(12.214 20.025)"><rect class="r" width="0.706" height="2.122" transform="matrix(0.571, 0.821, -0.821, 0.571, 1.742, 0)"/></g><g transform="translate(18.976 32.225)"><rect class="r" width="0.706" height="4.242" transform="matrix(0.571, 0.821, -0.821, 0.571, 3.482, 0)"/></g><g transform="translate(17.992 28.325)"><rect class="r" width="0.706" height="2.13" transform="matrix(0.571, 0.821, -0.821, 0.571, 1.748, 0)"/></g><g transform="translate(24.754 40.525)"><rect class="r" width="0.706" height="4.249" transform="matrix(0.571, 0.821, -0.821, 0.571, 3.488, 0)"/></g><g transform="translate(23.769 36.623)"><rect class="r" width="0.706" height="2.14" transform="matrix(0.571, 0.821, -0.821, 0.571, 1.757, 0)"/></g><g transform="translate(30.532 48.825)"><rect class="r" width="0.706" height="4.256" transform="matrix(0.571, 0.821, -0.821, 0.571, 3.494, 0)"/></g><g transform="translate(29.547 44.927)"><rect class="r" width="0.706" height="2.14" transform="matrix(0.571, 0.821, -0.821, 0.571, 1.757, 0)"/></g><g transform="translate(36.309 57.125)"><rect class="r" width="0.706" height="4.264" transform="matrix(0.571, 0.821, -0.821, 0.571, 3.5, 0)"/></g><g transform="translate(35.325 53.225)"><rect class="r" width="0.706" height="2.151" transform="matrix(0.571, 0.821, -0.821, 0.571, 1.766, 0)"/></g><g transform="translate(42.087 65.425)"><rect class="r" width="0.706" height="4.271" transform="matrix(0.571, 0.821, -0.821, 0.571, 3.506, 0)"/></g><g transform="translate(41.103 61.525)"><rect class="r" width="0.706" height="2.159" transform="matrix(0.571, 0.821, -0.821, 0.571, 1.772, 0)"/></g><g transform="translate(47.865 73.724)"><rect class="r" width="0.706" height="4.28" transform="matrix(0.571, 0.821, -0.821, 0.571, 3.513, 0)"/></g><g transform="translate(46.881 69.825)"><rect class="r" width="0.706" height="2.166" transform="matrix(0.571, 0.821, -0.821, 0.571, 1.778, 0)"/></g></g><g transform="translate(137.484 313.637)"><g transform="translate(23.118)"><path class="e" d="M597.8,1428.464a.954.954,0,0,1-.944-.824,44.907,44.907,0,0,0-5.73-15.745.954.954,0,1,1,1.609-1.026,46.009,46.009,0,0,1,6.011,16.512.955.955,0,0,1-.946,1.083Z" transform="translate(-590.979 -1410.427)"/></g><g transform="translate(0.219 9.348)"><path class="l" d="M489.574,1482.522c-5.512-9.753-13.993-8.9-18.657-6.36a23.387,23.387,0,0,1-8.281,2.719,23.387,23.387,0,0,1-8.281-2.719c-4.664-2.544-13.145-3.392-18.657,6.36s3.6,44.1,16.961,45.583h5.512c.588,0,1.343-.033,2.2-.06a.213.213,0,0,0,.161.06c.71-.059,1.42-.085,2.107-.091s1.4.032,2.107.091a.213.213,0,0,0,.16-.06c.854.027,1.61.06,2.2.06h5.512C485.97,1526.621,495.086,1492.275,489.574,1482.522Z" transform="translate(-434.062 -1474.485)"/></g><g transform="translate(5.834 13.255)"><path class="e" d="M472.76,1507.4a.222.222,0,0,1-.2-.311,11.149,11.149,0,0,1,7.23-5.821.221.221,0,0,1,.1.432,10.688,10.688,0,0,0-6.922,5.568A.221.221,0,0,1,472.76,1507.4Z" transform="translate(-472.539 -1501.259)"/></g><g transform="translate(7.079 15.317)"><path class="e" d="M481.291,1521.525a.221.221,0,0,1-.2-.311,11.148,11.148,0,0,1,7.23-5.82.221.221,0,0,1,.1.432,10.689,10.689,0,0,0-6.922,5.568A.222.222,0,0,1,481.291,1521.525Z" transform="translate(-481.07 -1515.388)"/></g><g transform="translate(5.051 9.848)"><path class="m" d="M509.224,1477.914c-9.133,12.628-26.743,34.394-42.053,38.233,3.343,7.905,8.183,14.266,13.765,14.886h5.512c.588,0,1.343-.033,2.2-.06a.213.213,0,0,0,.161.06c.71-.059,1.42-.085,2.107-.091s1.4.032,2.107.091a.213.213,0,0,0,.16-.06c.854.027,1.61.06,2.2.06h5.512c13.357-1.484,22.473-35.83,16.961-45.583C515.371,1481.062,512.289,1478.821,509.224,1477.914Z" transform="translate(-467.171 -1477.914)"/></g><g transform="translate(38.454 13.32)"><ellipse class="u" cx="2.741" cy="5.74" rx="2.741" ry="5.74" transform="translate(0 4.748) rotate(-60)"/></g><g transform="translate(0 9.129)"><path class="e" d="M456.887,1527.044H451.35c-5.626-.625-9.834-6.675-12.374-11.639-6-11.727-8.265-28.062-4.755-34.272,2.468-4.368,5.856-7.1,9.8-7.9a13.74,13.74,0,0,1,9.16,1.454,23.033,23.033,0,0,0,8.2,2.693,10.349,10.349,0,0,0,5.941-1.627.221.221,0,1,1,.222.383,10.581,10.581,0,0,1-6.217,1.684,23.492,23.492,0,0,1-8.358-2.744c-4.205-2.294-12.8-3.553-18.358,6.275-1.649,2.917-2.049,8.382-1.1,14.994a62.694,62.694,0,0,0,5.862,18.859c3.517,6.874,7.784,10.922,12.016,11.4h5.5a.221.221,0,1,1,0,.443Z" transform="translate(-432.559 -1472.983)"/></g></g><g transform="translate(291.541 126.239)"><g transform="translate(22.935 25.445)"><g transform="translate(0.273 0.273)"><path class="s" d="M1720.857,339.251a36.774,36.774,0,1,0-62.935,25.842h0s11.129,11.9,14.887,24.874c0,0,6.425,2.182,11.275,2.3,4.849-.121,11.275-2.3,11.275-2.3,3.758-12.972,14.887-24.874,14.887-24.874h0A36.654,36.654,0,0,0,1720.857,339.251Z" transform="translate(-1647.308 -302.477)"/><g transform="translate(31.05 103.384)"><path class="h" d="M1865.8,1016.652h0a5.716,5.716,0,0,1-5.716-5.716h11.432A5.716,5.716,0,0,1,1865.8,1016.652Z" transform="translate(-1860.084 -1010.936)"/></g><g transform="translate(24.507 84.559)"><path class="h" d="M0,0H24.518a0,0,0,0,1,0,0V8.131A12.259,12.259,0,0,1,12.259,20.39h0A12.259,12.259,0,0,1,0,8.131V0A0,0,0,0,1,0,0Z"/></g><path class="v" d="M1807.433,435.394a36.6,36.6,0,0,0-6.138-20.347c-10.756,26.5-27.909,44.326-52.618,51.239a69.393,69.393,0,0,1,9.731,16.893h24.5c4.409-11.78,13.911-21.943,13.911-21.943h0A36.655,36.655,0,0,0,1807.433,435.394Z" transform="translate(-1733.885 -398.62)"/></g><g transform="translate(22.217 29.391)"><path class="r" d="M1818.526,557.6l-1.053-.287c.034-.126,3.464-12.736,5.842-25.651,4.127-22.41,1.754-27.163-.028-28-1.822-.857-3.254-.7-4.259.457q-.109.127-.21.266a6.806,6.806,0,0,1,3.34,4.787c.408,2.6-.756,5.2-2.594,5.79a1.715,1.715,0,0,1-2.042-.9c-1.176-1.778-1.543-6.224-.227-9.188a12.1,12.1,0,0,0-4.566-.792h-1.061a12.108,12.108,0,0,0-4.567.792c1.317,2.964.949,7.41-.226,9.188a1.715,1.715,0,0,1-2.042.9c-1.838-.591-3-3.188-2.594-5.79a6.806,6.806,0,0,1,3.34-4.788c-.067-.093-.137-.182-.21-.266-1-1.161-2.437-1.314-4.259-.457-1.782.839-4.155,5.592-.028,28,2.378,12.916,5.808,25.526,5.843,25.651l-1.053.287c-.034-.126-3.475-12.775-5.862-25.735-3.3-17.891-3.088-27.441.635-29.193,2.889-1.359,4.612-.353,5.548.73a5.1,5.1,0,0,1,.37.485,12.954,12.954,0,0,1,5.1-.9h1.061a12.957,12.957,0,0,1,5.1.9,5.022,5.022,0,0,1,.37-.485c.937-1.084,2.66-2.09,5.548-.73,3.723,1.752,3.931,11.3.635,29.193C1822,544.827,1818.56,557.475,1818.526,557.6Zm-12.4-52.252a5.507,5.507,0,0,0-2.8,3.991c-.356,2.271.669,4.2,1.85,4.582.11.035.4.13.8-.467C1806.972,511.933,1807.238,507.911,1806.122,505.35Zm12.155,0c-1.117,2.562-.851,6.583.156,8.106.4.6.688.5.8.467,1.181-.38,2.206-2.311,1.85-4.582A5.506,5.506,0,0,0,1818.277,505.35Z" transform="translate(-1797.687 -502.017)"/></g><path class="e" d="M1670.04,385.7c-.293-.839-.425-1.145-.715-1.818l-.158-.367c-4.592-10.722-12.959-19.737-13.043-19.827l-.026-.028a37.048,37.048,0,1,1,57.4-46.269l-.457.3a36.5,36.5,0,1,0-56.527,45.62l.356.36-.026.005c1.6,1.79,8.71,10.028,12.819,19.625l.157.366c.295.685.429,1,.729,1.854Z" transform="translate(-1645.439 -300.607)"/><g transform="translate(10.841 7.372)"><path class="e" d="M1720.254,363.824l-.524-.152c.026-.091,2.745-9.143,11.894-12.546l.19.511C1722.929,354.942,1720.28,363.735,1720.254,363.824Z" transform="translate(-1719.73 -351.126)"/></g><g transform="translate(12.527 10.645)"><path class="e" d="M1731.809,386.25l-.524-.152c.026-.091,2.745-9.142,11.894-12.546l.19.511C1734.484,377.368,1731.835,386.161,1731.809,386.25Z" transform="translate(-1731.285 -373.552)"/></g><g transform="translate(24.507 84.559)"><path class="e" d="M1827.244,901h-2.673a11.208,11.208,0,0,1-11.2-11.2v-9.74h24.791v.546h-24.246V889.8a10.662,10.662,0,0,0,10.65,10.65h2.673a10.587,10.587,0,0,0,7.468-3.058l.382.389A11.13,11.13,0,0,1,1827.244,901Z" transform="translate(-1813.376 -880.064)"/></g><g transform="translate(31.109 104.366)"><path class="e" d="M1864.709,1021.079c-5.314,0-6.081-5.155-6.088-5.207l.541-.074a5.492,5.492,0,0,0,5.725,4.734l.012.546Z" transform="translate(-1858.621 -1015.797)"/></g><g transform="translate(61.94 47.522)"><path class="e" d="M2070.219,636.375l-.325-.438a15.555,15.555,0,0,0,5.625-9.673l.542.064A16.133,16.133,0,0,1,2070.219,636.375Z" transform="translate(-2069.894 -626.264)"/></g><g transform="translate(60.865 47.522)"><path class="e" d="M2062.857,633.755l-.325-.438a11.351,11.351,0,0,0,4.1-7.053l.542.064A11.694,11.694,0,0,1,2062.857,633.755Z" transform="translate(-2062.532 -626.264)"/></g><g transform="translate(23.647 86.478)"><path class="e" d="M1807.495,896.469l-.006-.545c.208,0,20.881-.27,27.428-2.711l.191.511C1828.471,896.2,1808.348,896.459,1807.495,896.469Z" transform="translate(-1807.488 -893.213)"/></g><g transform="translate(23.646 91.1)"><path class="e" d="M1807.486,928.128l-.01-.546c.226,0,22.661-.449,26.854-2.7l.258.481C1830.279,927.676,1808.415,928.111,1807.486,928.128Z" transform="translate(-1807.476 -924.887)"/></g><g transform="translate(24.777 95.523)"><path class="e" d="M1815.233,958.743l0-.546c.2,0,20.334-.214,25.727-3l.25.485C1835.7,958.528,1816.066,958.736,1815.233,958.743Z" transform="translate(-1815.228 -955.197)"/></g></g><g transform="translate(0 53.96)"><path class="s" d="M1502.1,498.753c-.023,0-.047,0-.07,0l-13.014-1.107a.818.818,0,0,1,.139-1.631l13.014,1.108a.818.818,0,0,1-.069,1.634Z" transform="translate(-1488.269 -496.009)"/></g><g transform="translate(8.967 26.959)"><path class="s" d="M1561.316,319.993a.815.815,0,0,1-.461-.143l-10.779-7.375a.818.818,0,0,1,.924-1.351l10.779,7.375a.819.819,0,0,1-.463,1.494Z" transform="translate(-1549.72 -310.98)"/></g><g transform="translate(34.311 7.362)"><path class="s" d="M1729.127,190.424a.819.819,0,0,1-.759-.511l-4.916-12.1a.818.818,0,1,1,1.516-.616l4.916,12.1a.819.819,0,0,1-.758,1.127Z" transform="translate(-1723.392 -176.686)"/></g><g transform="translate(104.66 56.564)"><path class="s" d="M2206.294,516.354a.818.818,0,0,1-.053-1.635l13.033-.861a.818.818,0,1,1,.108,1.633l-13.032.861Z" transform="translate(-2205.477 -513.857)"/></g><g transform="translate(98.321 29.399)"><path class="s" d="M2162.856,336.506a.818.818,0,0,1-.45-1.5l10.917-7.17a.818.818,0,1,1,.9,1.368l-10.917,7.17A.812.812,0,0,1,2162.856,336.506Z" transform="translate(-2162.037 -327.699)"/></g><g transform="translate(81.647 7.409)"><path class="s" d="M2048.591,190.656a.819.819,0,0,1-.752-1.141l5.144-12.005a.819.819,0,0,1,1.5.645l-5.145,12.005A.818.818,0,0,1,2048.591,190.656Z" transform="translate(-2047.773 -177.014)"/></g><g transform="translate(60.668)"><path class="s" d="M1904.829,140.935h-.013a.818.818,0,0,1-.806-.831l.2-13.059a.818.818,0,0,1,.818-.806h.013a.819.819,0,0,1,.806.831l-.2,13.059A.818.818,0,0,1,1904.829,140.935Z" transform="translate(-1904.01 -126.239)"/></g><g class="w" transform="translate(67.186 31.38)"><ellipse class="t" cx="4.303" cy="9.011" rx="4.303" ry="9.011" transform="translate(0 7.235) rotate(-57.202)"/></g></g><g transform="translate(109.34 185.459)"><g transform="translate(1.703 69.199)"><path class="e" d="M252.365,1009.293a.443.443,0,0,1-.424-.315c-.01-.032-.243-.805-.56-2.172a.443.443,0,1,1,.863-.2c.31,1.335.543,2.108.545,2.116a.444.444,0,0,1-.424.571Z" transform="translate(-251.369 -1006.263)"/></g><g transform="translate(0 0.09)"><path class="e" d="M240.98,598.243a.443.443,0,0,1-.437-.373c-.238-1.494-.43-3.011-.568-4.508a.443.443,0,0,1,.882-.082c.137,1.478.326,2.975.561,4.45a.443.443,0,0,1-.368.507A.436.436,0,0,1,240.98,598.243Zm-.826-8.986a.443.443,0,0,1-.442-.433c-.011-.462-.016-.926-.016-1.379,0-1.066.029-2.133.086-3.169a.443.443,0,1,1,.884.049c-.056,1.02-.085,2.071-.085,3.121,0,.447.005.9.016,1.359a.443.443,0,0,1-.433.453Zm.512-9.007a.45.45,0,0,1-.064,0,.443.443,0,0,1-.375-.5,45.327,45.327,0,0,1,.871-4.472.443.443,0,1,1,.86.214,44.411,44.411,0,0,0-.854,4.384A.443.443,0,0,1,240.666,580.25Zm40.251-4.764a.443.443,0,0,1-.083-.878,7.359,7.359,0,0,0,3.749-1.893.443.443,0,0,1,.61.642A8.23,8.23,0,0,1,281,575.477.437.437,0,0,1,280.918,575.485Zm-4.467-.17a.443.443,0,0,1-.149-.026,6.375,6.375,0,0,1-3.427-3.259.443.443,0,1,1,.788-.4,5.514,5.514,0,0,0,2.938,2.83.443.443,0,0,1-.149.86Zm-33.587-3.8a.443.443,0,0,1-.415-.6,35.266,35.266,0,0,1,1.878-4.165.443.443,0,1,1,.782.417,34.385,34.385,0,0,0-1.831,4.06A.443.443,0,0,1,242.864,571.513Zm44.365-1.841a.443.443,0,0,1-.42-.584,13.166,13.166,0,0,0,.642-4.184v-.118a.443.443,0,0,1,.441-.445h0a.443.443,0,0,1,.443.441v.123a14.051,14.051,0,0,1-.688,4.465A.443.443,0,0,1,287.229,569.672Zm-15.178-1.724a.443.443,0,0,1-.44-.393,19.169,19.169,0,0,1-.118-2.15,22.654,22.654,0,0,1,.137-2.454.443.443,0,0,1,.881.1,21.734,21.734,0,0,0-.132,2.358,18.271,18.271,0,0,0,.112,2.05.443.443,0,0,1-.39.49Zm-24.936-4.369a.443.443,0,0,1-.357-.7,31.3,31.3,0,0,1,2.964-3.485.443.443,0,1,1,.631.622,30.4,30.4,0,0,0-2.88,3.385A.442.442,0,0,1,247.114,563.579Zm40.142-2.81a.443.443,0,0,1-.427-.324,16.815,16.815,0,0,0-1.71-4.04.443.443,0,0,1,.763-.45,17.7,17.7,0,0,1,1.8,4.253.443.443,0,0,1-.427.562Zm-14.3-1.75a.436.436,0,0,1-.122-.017.443.443,0,0,1-.3-.548,31.173,31.173,0,0,1,1.588-4.292.443.443,0,1,1,.806.367,30.25,30.25,0,0,0-1.542,4.169A.443.443,0,0,1,272.952,559.019Zm-19.541-1.87a.443.443,0,0,1-.273-.792,37.728,37.728,0,0,1,3.758-2.593.443.443,0,1,1,.458.759,36.847,36.847,0,0,0-3.67,2.532A.442.442,0,0,1,253.411,557.148Zm29.184-3.949a.441.441,0,0,1-.282-.1,13.049,13.049,0,0,0-3.774-2.153.443.443,0,0,1,.309-.83,13.938,13.938,0,0,1,4.03,2.3.443.443,0,0,1-.282.785Zm-21.467-.7a.443.443,0,0,1-.179-.848,32.964,32.964,0,0,1,4.3-1.559.443.443,0,1,1,.242.852,32.082,32.082,0,0,0-4.184,1.517A.443.443,0,0,1,261.128,552.5Zm15.532-1.684a.443.443,0,0,1-.374-.679,36.418,36.418,0,0,1,2.673-3.7.443.443,0,0,1,.685.562,35.5,35.5,0,0,0-2.608,3.613A.442.442,0,0,1,276.66,550.818Zm-6.87-.742a.443.443,0,0,1-.049-.883,22.736,22.736,0,0,1,4.6-.074.443.443,0,1,1-.08.882,21.874,21.874,0,0,0-4.417.072A.419.419,0,0,1,269.79,550.076Zm12.586-6.217a.443.443,0,0,1-.3-.767,30.066,30.066,0,0,1,3.586-2.846.443.443,0,0,1,.5.733,29.151,29.151,0,0,0-3.481,2.762A.442.442,0,0,1,282.376,543.859Zm7.43-5.08a.443.443,0,0,1-.2-.839,41.816,41.816,0,0,1,4.188-1.814.443.443,0,0,1,.308.831,40.856,40.856,0,0,0-4.1,1.775A.442.442,0,0,1,289.807,538.779Zm8.446-3.163a.443.443,0,0,1-.115-.871c1.424-.384,2.917-.723,4.438-1.007a.443.443,0,1,1,.163.871c-1.5.28-2.969.614-4.371.991A.445.445,0,0,1,298.253,535.616Zm8.87-1.673a.443.443,0,0,1-.051-.883c1.488-.173,3.012-.3,4.53-.381a.443.443,0,0,1,.046.885c-1.5.079-3,.205-4.474.376A.441.441,0,0,1,307.123,533.943Z" transform="translate(-239.696 -532.678)"/></g><g transform="translate(76.03)"><path class="e" d="M763.364,533.026h-.034c-.008,0-.816-.061-2.186-.08a.443.443,0,0,1,.006-.886h.007c1.4.02,2.206.08,2.24.083a.443.443,0,0,1-.033.885Z" transform="translate(-760.708 -532.059)"/></g></g><g transform="translate(191.674 177.909)"><g transform="translate(2.454 4.528)"><path class="x" d="M820.727,519.4l2.5-2.865s12.409-1.346,12.583-1.434l6.552-3.289-8.016-.465-13.1,1.886Z" transform="translate(-820.727 -511.343)"/></g><path class="y" d="M803.911,480.317,828,485.309l-21.121,1.421Z" transform="translate(-803.911 -480.317)"/><g transform="translate(4.955 4.992)"><path class="y" d="M837.869,519.252l3.115,6.829L857,514.529Z" transform="translate(-837.869 -514.529)"/></g></g><g transform="translate(327.694 314.287)"><g transform="translate(3.186 42.336)"><path class="b" d="M1757.856,1705s4.069,10.237.656,17.979l78.217.656,7.218-.656,6.362-3.942V1713l-1.769-4.987-5.774-3.019Z" transform="translate(-1757.856 -1704.999)"/></g><g transform="translate(0.221 40.815)"><path class="q" d="M1823.04,1715.727h-84.506a1,1,0,0,1,0-1.993h84.506c5.1,0,9.251-3.851,9.251-8.584s-4.15-8.584-9.251-8.584h-84.506a1,1,0,0,1,0-1.993h84.506c6.2,0,11.244,4.745,11.244,10.577S1829.239,1715.727,1823.04,1715.727Z" transform="translate(-1737.537 -1694.573)"/></g><g transform="translate(4.113 51.17)"><path class="z" d="M1805.9,1765.979h-41.471a.221.221,0,0,1,0-.443H1805.9a.221.221,0,0,1,0,.443Z" transform="translate(-1764.208 -1765.536)"/></g><g transform="translate(51.424 51.17)"><path class="z" d="M2128.928,1765.979h-40.29a.221.221,0,0,1,0-.443h40.29a.221.221,0,1,1,0,.443Z" transform="translate(-2088.417 -1765.536)"/></g><g transform="translate(69.96 55.138)"><path class="z" d="M2236.327,1793.169h-20.672a.221.221,0,0,1,0-.443h20.672a.221.221,0,0,1,0,.443Z" transform="translate(-2215.434 -1792.726)"/></g><g transform="translate(4.113 55.138)"><path class="z" d="M1827.243,1793.169h-62.813a.221.221,0,0,1,0-.443h62.813a.221.221,0,1,1,0,.443Z" transform="translate(-1764.208 -1792.726)"/></g><g transform="translate(2.368 21.375)"><path class="b" d="M1844.7,1561.361s-4.068,10.236-.656,17.979l-78.217.656-7.218-.656-6.362-3.942v-6.032l1.768-4.987,5.775-3.018Z" transform="translate(-1752.247 -1561.361)"/></g><g transform="translate(1.04 19.854)"><path class="n" d="M1754.39,1572.088H1838.9a1,1,0,0,0,0-1.993H1754.39c-5.1,0-9.251-3.851-9.251-8.584s4.15-8.583,9.251-8.583H1838.9a1,1,0,0,0,0-1.993H1754.39c-6.2,0-11.244,4.745-11.244,10.577S1748.19,1572.088,1754.39,1572.088Z" transform="translate(-1743.146 -1550.934)"/></g><g transform="translate(51.981 30.209)"><path class="z" d="M2133.921,1622.34h-41.471a.221.221,0,0,1,0-.443h41.471a.221.221,0,0,1,0,.443Z" transform="translate(-2092.228 -1621.897)"/></g><g transform="translate(5.851 30.209)"><path class="z" d="M1816.625,1622.34h-40.29a.221.221,0,1,1,0-.443h40.29a.221.221,0,0,1,0,.443Z" transform="translate(-1776.113 -1621.897)"/></g><g transform="translate(6.933 34.177)"><path class="z" d="M1804.426,1649.53h-20.672a.221.221,0,1,1,0-.443h20.672a.221.221,0,1,1,0,.443Z" transform="translate(-1783.533 -1649.087)"/></g><g transform="translate(30.638 34.177)"><path class="z" d="M2009.009,1649.53H1946.2a.221.221,0,1,1,0-.443h62.814a.221.221,0,0,1,0,.443Z" transform="translate(-1945.974 -1649.087)"/></g><g transform="translate(16.394 1.634)"><path class="b" d="M1848.361,1426.076s3.776,9.5.609,16.686l72.591.609,6.7-.609,5.9-3.658v-5.6l-1.641-4.628-5.359-2.8Z" transform="translate(-1848.361 -1426.076)"/></g><g transform="translate(13.642 0.222)"><path class="o" d="M1908.856,1436.032h-78.428a.925.925,0,0,1,0-1.85h78.428c4.734,0,8.585-3.574,8.585-7.966s-3.851-7.966-8.585-7.966h-78.428a.925.925,0,1,1,0-1.85h78.428c5.754,0,10.435,4.4,10.435,9.816S1914.61,1436.032,1908.856,1436.032Z" transform="translate(-1829.503 -1416.4)"/></g><g transform="translate(17.238 9.816)"><path class="z" d="M1892.856,1482.593h-38.488a.221.221,0,1,1,0-.443h38.488a.221.221,0,0,1,0,.443Z" transform="translate(-1854.146 -1482.15)"/></g><g transform="translate(61.146 9.816)"><path class="z" d="M2192.65,1482.593h-37.392a.221.221,0,1,1,0-.443h37.392a.221.221,0,1,1,0,.443Z" transform="translate(-2155.037 -1482.15)"/></g><g transform="translate(78.348 13.498)"><path class="z" d="M2292.323,1507.826h-19.185a.221.221,0,0,1,0-.443h19.185a.221.221,0,0,1,0,.443Z" transform="translate(-2272.916 -1507.383)"/></g><g transform="translate(17.238 6.132)"><path class="z" d="M1934.663,1457.345h-80.3a.221.221,0,1,1,0-.443h80.3a.221.221,0,1,1,0,.443Z" transform="translate(-1854.146 -1456.902)"/></g><g transform="translate(0.819 19.632)"><path class="e" d="M1837.6,1571.014h-84.506c-6.322,0-11.465-4.844-11.465-10.8s5.143-10.8,11.465-10.8H1837.6a1.218,1.218,0,1,1,0,2.436.221.221,0,0,1,0-.443.775.775,0,1,0,0-1.55h-84.506c-6.078,0-11.023,4.646-11.023,10.355s4.945,10.355,11.023,10.355H1837.6a.775.775,0,1,0,0-1.55.221.221,0,1,1,0-.443,1.218,1.218,0,1,1,0,2.436Z" transform="translate(-1741.629 -1549.417)"/></g><g transform="translate(13.42)"><path class="e" d="M1907.559,1434.957h-78.428a1.146,1.146,0,0,1,0-2.293.221.221,0,0,1,0,.443.7.7,0,0,0,0,1.407h78.428c5.632,0,10.214-4.3,10.214-9.595s-4.582-9.594-10.214-9.594h-78.428a.7.7,0,0,0,0,1.407.222.222,0,0,1,0,.443,1.146,1.146,0,0,1,0-2.293h78.428c5.876,0,10.657,4.5,10.657,10.038S1913.435,1434.957,1907.559,1434.957Z" transform="translate(-1827.985 -1414.882)"/></g><g transform="translate(0 40.593)"><path class="e" d="M1821.744,1714.652h-84.506a1.218,1.218,0,0,1,0-2.436.221.221,0,0,1,0,.443.775.775,0,0,0,0,1.55h84.506c6.078,0,11.022-4.646,11.022-10.355s-4.945-10.355-11.022-10.355h-84.506a.775.775,0,0,0,0,1.55.221.221,0,0,1,0,.443,1.218,1.218,0,0,1,0-2.436h84.506c6.322,0,11.465,4.844,11.465,10.8S1828.066,1714.652,1821.744,1714.652Z" transform="translate(-1736.02 -1693.055)"/></g><g transform="translate(25.07 47.421)"><path class="n" d="M1909.424,1739.848s-2.662,6.63-1.127,11.511l2.163-3.342a28.807,28.807,0,0,1,2.382,3.342s1.651-10.9,4.853-11.511Z" transform="translate(-1907.82 -1739.848)"/></g><g transform="translate(75.127 26.461)"><path class="x" d="M2259.112,1596.21s2.662,6.63,1.127,11.511l-2.162-3.342a28.808,28.808,0,0,0-2.382,3.342s-1.651-10.9-4.853-11.511Z" transform="translate(-2250.842 -1596.21)"/></g><g transform="translate(28.521 13.72)"><path class="h" d="M1933.072,1508.9s-2.662,6.63-1.128,11.511l2.162-3.342a28.78,28.78,0,0,1,2.382,3.342s1.651-10.9,4.853-11.511Z" transform="translate(-1931.468 -1508.901)"/></g><g transform="translate(4.113 47.2)"><path class="z" d="M1850.948,1738.773h-86.518a.221.221,0,1,1,0-.443h86.518a.221.221,0,1,1,0,.443Z" transform="translate(-1764.208 -1738.33)"/></g><g transform="translate(6.933 26.239)"><path class="z" d="M1870.273,1595.135h-86.518a.221.221,0,0,1,0-.443h86.518a.221.221,0,0,1,0,.443Z" transform="translate(-1783.533 -1594.692)"/></g><g transform="translate(17.238 13.498)"><path class="z" d="M1912.663,1507.826h-58.3a.221.221,0,0,1,0-.443h58.3a.221.221,0,0,1,0,.443Z" transform="translate(-1854.146 -1507.383)"/></g></g><g transform="translate(369.334 261.812)"><g transform="translate(25.17 34.857)"><path class="c" d="M2195.2,1313.625s12.324.579,15.746-.181,4.265-11.442.38-17.987-17.482,13.549-17.482,13.549Z" transform="translate(-2193.848 -1294.147)"/></g><g transform="translate(0 38.18)"><path class="aa" d="M2040.265,1317.214s-17.163,2.67-17.66,4.66-1.923,23.146-.857,32.171c0,0,6.538.45,9.665-.308l.761-22.007,5.161-.592,11.823-14.214Z" transform="translate(-2021.362 -1316.924)"/></g><g transform="translate(12.23 39.713)"><path class="c" d="M2120.191,1327.428s-13.289,3.75-13.787,5.74-1.914,20.87-.848,29.9c0,0,7.03.4,10.157-.355l.843-20.76,3.033.106,7.353-12.937Z" transform="translate(-2105.169 -1327.428)"/></g><g transform="translate(17.684 14.208)"><path class="ab" d="M2160.35,1152.834s5.874.1,7.239.9,7.619,11.11,8.969,15.481a14.253,14.253,0,0,1-8.078,3.21l-1.093-2.061.625,4.219-11.913,3.533a19.543,19.543,0,0,1-12.319-.4l-1.238-.456s.019-20.051,3.6-22.17C2149.335,1153.207,2156.247,1152.214,2160.35,1152.834Z" transform="translate(-2142.544 -1152.65)"/></g><g transform="translate(28.109 2.782)"><path class="f" d="M2213.983,1076.107v5.676s-.08,1.919,1.6,2.159l-.314,2.56a2,2,0,0,0,1.367,2.152,5.239,5.239,0,0,0,1.585.245,3.206,3.206,0,0,0,3.118-2.159,26.6,26.6,0,0,0-.32-4.157l.059-1.689-.218-6.545Z" transform="translate(-2213.983 -1074.348)"/></g><g transform="translate(30.654 6.624)"><path class="s" d="M2233.515,1101.433a.08.08,0,0,0,.058-.135c-.011-.011-1.111-1.136-2.115-.327a.08.08,0,1,0,.1.124c.89-.717,1.859.271,1.9.313A.08.08,0,0,0,2233.515,1101.433Z" transform="translate(-2231.428 -1100.678)"/></g><g transform="translate(28.194 6.355)"><path class="s" d="M2215.818,1099.38a.08.08,0,0,0,.052-.14c-.032-.028-.795-.68-1.277-.267a.08.08,0,0,0,.1.121c.378-.324,1.061.26,1.068.266A.08.08,0,0,0,2215.818,1099.38Z" transform="translate(-2214.565 -1098.836)"/></g><g transform="translate(31.125 7.462)"><circle cx="0.24" cy="0.24" r="0.24"/></g><g transform="translate(28.576 7.222)"><circle cx="0.24" cy="0.24" r="0.24"/></g><g transform="translate(25.865)"><path class="s" d="M2207.5,1058.382l-1.339,1.9s-4.055,1.575-6.134-.291-1.439-2.762-.83-3.7a2.965,2.965,0,0,1,3.493-.617c.96.426,1.67-.846,2.789-.206s2.44,1.747,2.292,2.185S2207.5,1058.382,2207.5,1058.382Z" transform="translate(-2198.607 -1055.285)"/></g><g transform="translate(34.003 2.297)"><path class="s" d="M2255.055,1071.026a2.383,2.383,0,0,1,2.361,1.688,5.455,5.455,0,0,1-.2,3.237c-.018.53.341,4.1-2.166,3.834l-.677-5.9.873-2.349Z" transform="translate(-2254.378 -1071.025)"/></g><g transform="translate(33.106 6.18)"><circle class="f" cx="1.439" cy="1.439" r="1.439"/></g><g transform="translate(34.084 6.903)"><path class="j" d="M2255.5,1104.187a.6.6,0,0,0,.564-.449.563.563,0,0,0-.227-.658.676.676,0,0,0-.755.026.649.649,0,0,1,.291-.354.9.9,0,0,1,.638-.041.04.04,0,1,0,.025-.076.969.969,0,0,0-.7.047.776.776,0,0,0-.367.524l-.035.139.1-.1a.626.626,0,0,1,.761-.1.489.489,0,0,1,.193.567.516.516,0,0,1-.488.392h-.008a.04.04,0,0,0-.04.039.04.04,0,0,0,.039.04Z" transform="translate(-2254.93 -1102.59)"/></g><g transform="translate(29.477 10.746)"><path class="j" d="M2227.484,1128.922s-.113,3.211-4.124,3.518l.231-1.888A3.831,3.831,0,0,0,2227.484,1128.922Z" transform="translate(-2223.36 -1128.922)"/></g><g transform="translate(42.652 28.247)"><path class="e" d="M2313.684,1252.794a15.186,15.186,0,0,0,7.93-3.771l-.172-.167a14.933,14.933,0,0,1-7.795,3.7Z" transform="translate(-2313.647 -1248.856)"/></g><g transform="translate(16.895 54.191)"><path class="e" d="M2138.8,1448.042a12.016,12.016,0,0,0,4.267-.491l.069-.03.816-20.882-1.284.605.1.217.927-.437-.794,20.332a16.728,16.728,0,0,1-5.753.405l-.011.24C2137.743,1448.03,2138.3,1448.042,2138.8,1448.042Z" transform="translate(-2137.135 -1426.639)"/></g><g transform="translate(21.237 56.806)"><path class="e" d="M2167.128,1458.845c.331-1.279.426-13.752.43-14.283l-.24,0c0,.13-.1,12.974-.423,14.225Z" transform="translate(-2166.896 -1444.56)"/></g><g transform="translate(9.046 52.629)"><path class="e" d="M2083.424,1416.76a16.583,16.583,0,0,1,3.766-.587l-.008-.24a16.844,16.844,0,0,0-3.833.6Z" transform="translate(-2083.35 -1415.933)"/></g><g transform="translate(5.339 52.836)"><path class="e" d="M2058.183,1440.067a21.339,21.339,0,0,0,4.506-.44l.089-.021.77-22.252-.983.791.15.187.574-.462-.745,21.545a21.781,21.781,0,0,1-4.594.412l0,.24Z" transform="translate(-2057.948 -1417.354)"/></g><g transform="translate(8.679 55.992)"><path class="e" d="M2081.072,1454.542c.33-1.932.015-15.007,0-15.563l-.24.006c0,.136.327,13.608,0,15.517Z" transform="translate(-2080.834 -1438.979)"/></g><g transform="translate(23.897 39.97)"><path class="ac" d="M2186.582,1333.148l5.022-2.759-6.484-1.2Z" transform="translate(-2185.12 -1329.189)"/></g><g transform="translate(25.17 41.027)"><path class="h" d="M2193.848,1339.017c.084-.053,4.855-2.587,4.855-2.587l.075.3-4.742,2.6Z" transform="translate(-2193.848 -1336.43)"/></g><g transform="translate(20.711 31.664)"><path class="f" d="M2163.352,1281.348l1.358-2.112h0c.748-1.209,1.956-2.8,3.214-2.936,2.055-.229,14.571-.743,18.542-1.233,0,0-.273-.478-.266-.476.046.01,3.247-.545,3.247-.545l2.061-.977,1.853-.8c.512,1.994,1.916,5.27.476,7.552-2.662,4.217-23.017,2.141-24.823,1.589l-1.662,1.8-.34.522a.533.533,0,1,1-.894-.582l-.142.218a.534.534,0,0,1-.738.156h0a.533.533,0,0,0-.894-.582.533.533,0,0,1-.156-.738l.142-.218a.533.533,0,0,1-.738.156h0l-.028-.021-.007,0-.013-.01h0a.536.536,0,0,1-.087-.093A.58.58,0,0,1,2163.352,1281.348Z" transform="translate(-2163.291 -1272.268)"/></g><g transform="translate(42.389 25.175)"><path class="e" d="M2313.008,1236.778l.077,0c4.043-.094,8.108-3.2,8.148-3.235l.075-.058-2.565-5.682-.219.1,2.486,5.508c-.567.418-4.217,3.006-7.855,3.126l-1.1-2.24-.215.106Z" transform="translate(-2311.839 -1227.801)"/></g><g transform="translate(43.797 34.389)"><path class="j" d="M2323.006,1292.973a.08.08,0,0,0,.081-.127l-1.457-1.875a.08.08,0,0,0-.126.1l1.457,1.876A.079.079,0,0,0,2323.006,1292.973Z" transform="translate(-2321.487 -1290.94)"/></g><g transform="translate(21.454 38.913)"><path class="j" d="M2168.439,1324.718a.08.08,0,0,0,.083-.031l1.906-2.618a.08.08,0,0,0-.129-.094l-1.907,2.618a.08.08,0,0,0,.018.112A.085.085,0,0,0,2168.439,1324.718Z" transform="translate(-2168.377 -1321.942)"/></g><g transform="translate(22.291 39.597)"><path class="j" d="M2174.178,1329.492a.08.08,0,0,0,.084-.033l1.82-2.7a.08.08,0,0,0-.133-.089l-1.819,2.7a.08.08,0,0,0,.021.111A.085.085,0,0,0,2174.178,1329.492Z" transform="translate(-2174.116 -1326.635)"/></g><g transform="translate(23.302 40.497)"><path class="j" d="M2181.106,1335.243a.079.079,0,0,0,.084-.034l1.514-2.288a.08.08,0,0,0-.133-.088l-1.513,2.288a.08.08,0,0,0,.022.111A.077.077,0,0,0,2181.106,1335.243Z" transform="translate(-2181.044 -1332.797)"/></g><g transform="translate(21.999 53.905)"><path class="e" d="M2181.919,1425.336a97.1,97.1,0,0,1-9.806-.415l.028-.238a121.859,121.859,0,0,0,20.617,0l.018.239C2188.651,1425.232,2184.98,1425.336,2181.919,1425.336Z" transform="translate(-2172.113 -1424.682)"/></g><g transform="translate(22.962 22.396)"><g transform="translate(0 0)"><rect class="e" width="10.189" height="0.24" transform="translate(0 10.183) rotate(-88.19)"/></g></g><g transform="translate(4.679 26.883)"><path class="h" d="M2053.427,1239.509l2.164,15.514,18.516,1.532-.63-16.88Z" transform="translate(-2053.427 -1239.509)"/></g><g transform="translate(38.763 23.143)"><g transform="translate(0 0)"><rect class="e" width="0.24" height="11.948" transform="translate(0 0.096) rotate(-23.481)"/></g></g><g transform="translate(42.27 31.264)"><g transform="translate(0 0)"><rect class="e" width="0.24" height="3.327" transform="translate(0 0.038) rotate(-9.177)"/></g></g><g transform="translate(29.402 7.046)"><path class="j" d="M2223.724,1105.841a.039.039,0,0,0,.038-.027.04.04,0,0,0-.025-.051l-.8-.265.253-1.886a.04.04,0,0,0-.034-.045.04.04,0,0,0-.045.034l-.262,1.952.864.286Z" transform="translate(-2222.847 -1103.567)"/></g><g transform="translate(29.317 10.057)"><path class="ad" d="M2223.845,1124.245c-.024,0-1.583-.041-1.583-.041s.2.645.775.66A.928.928,0,0,0,2223.845,1124.245Z" transform="translate(-2222.262 -1124.204)"/></g><g transform="translate(13.65 33.446)"><circle class="k" cx="0.705" cy="0.705" r="0.705"/></g></g><circle class="s" cx="3.356" cy="3.356" r="3.356" transform="translate(261.878 157.724)"/><circle class="s" cx="1.459" cy="1.459" r="1.459" transform="translate(272.239 167.502)"/><circle class="s" cx="3.356" cy="3.356" r="3.356" transform="translate(175.343 202.67)"/><circle class="s" cx="3.356" cy="3.356" r="3.356" transform="translate(146.741 249.367)"/><circle class="s" cx="1.459" cy="1.459" r="1.459" transform="translate(169.36 217.263)"/><circle class="s" cx="1.459" cy="1.459" r="1.459" transform="translate(125.582 242.946)"/><circle class="s" cx="3.356" cy="3.356" r="3.356" transform="translate(287.707 210.258)"/><circle class="s" cx="1.459" cy="1.459" r="1.459" transform="translate(276.763 217.701)"/><circle class="s" cx="2.627" cy="2.627" r="2.627" transform="translate(299.965 226.894)"/><circle class="s" cx="3.356" cy="3.356" r="3.356" transform="translate(365.924 274.612)"/><circle class="s" cx="1.459" cy="1.459" r="1.459" transform="translate(419.918 265.419)"/><circle class="s" cx="1.459" cy="1.459" r="1.459" transform="translate(376.139 261.625)"/><path class="b" d="M1416,983v69.17h51.512V994.382L1456.422,983Z" transform="translate(-1135.005 -731.736)"/><path class="z" d="M1704.47,994.4,1693.445,983v11.4Z" transform="translate(-1371.963 -731.736)"/><path class="z" d="M1524.057,1035.167h-22.473a.584.584,0,0,1-.584-.584h0a.584.584,0,0,1,.584-.584h22.473a.584.584,0,0,1,.584.584h0A.584.584,0,0,1,1524.057,1035.167Z" transform="translate(-1207.601 -775.294)"/><path class="z" d="M1509.186,1066.167h-28.6a.584.584,0,0,1-.584-.584h0a.584.584,0,0,1,.584-.584h28.6a.584.584,0,0,1,.584.584h0A.584.584,0,0,1,1509.186,1066.167Z" transform="translate(-1189.666 -801.77)"/><path class="z" d="M1486.027,1140.167h-41.443a.584.584,0,0,1-.584-.584h0a.584.584,0,0,1,.584-.584h41.443a.584.584,0,0,1,.584.584h0A.584.584,0,0,1,1486.027,1140.167Z" transform="translate(-1158.919 -864.971)"/><path class="z" d="M1486.027,1175.167h-41.443a.584.584,0,0,1-.584-.584h0a.584.584,0,0,1,.584-.584h41.443a.584.584,0,0,1,.584.584h0A.584.584,0,0,1,1486.027,1175.167Z" transform="translate(-1158.919 -894.864)"/><path class="z" d="M1486.027,1210.167h-41.443a.584.584,0,0,1-.584-.584h0a.584.584,0,0,1,.584-.584h41.443a.584.584,0,0,1,.584.584h0A.584.584,0,0,1,1486.027,1210.167Z" transform="translate(-1158.919 -924.756)"/><path class="z" d="M1486.027,1280.167h-41.443a.584.584,0,0,1-.584-.584h0a.584.584,0,0,1,.584-.584h41.443a.584.584,0,0,1,.584.584h0A.584.584,0,0,1,1486.027,1280.167Z" transform="translate(-1158.919 -984.542)"/><path class="z" d="M1486.027,1315.167h-41.443a.584.584,0,0,1-.584-.584h0a.584.584,0,0,1,.584-.584h41.443a.584.584,0,0,1,.584.584h0A.584.584,0,0,1,1486.027,1315.167Z" transform="translate(-1158.919 -1014.434)"/><path class="z" d="M1486.027,1405.167h-41.443a.584.584,0,0,1-.584-.584h0a.584.584,0,0,1,.584-.584h41.443a.584.584,0,0,1,.584.584h0A.584.584,0,0,1,1486.027,1405.167Z" transform="translate(-1158.919 -1091.301)"/><path class="e" d="M743.521,1375.352l.156.228.1.216h.606l-55.263-79.3a.221.221,0,1,0-.363.253l54.777,78.6Z" transform="translate(-513.848 -999.402)"/></g></svg>