<svg xmlns="http://www.w3.org/2000/svg" width="546.759" height="477.49" viewBox="0 0 546.759 477.49"><defs><style>.a{fill:#ebebeb;}.b{fill:#e0e0e0;}.c{fill:#f5f5f5;}.d{fill:#fff;}.e{fill:#fafafa;}.f{fill:none;stroke:#fbfbfb;stroke-miterlimit:10;stroke-width:0.25px;}.g{fill:#263238;}.h{fill:#455a64;}.i{fill:#fbb017;}.j{fill:#924781;}.k{fill:#ff725e;}.l{fill:#f7a491;}.m{fill:#3e3d51;}.n{fill:#f47458;}.o{fill:#8282a8;}.p{fill:#333343;}.q{fill:#f8a492;}</style></defs><g transform="translate(-150.426 -167.956)"><g transform="translate(107.908 142.752)"><g transform="translate(42.518 25.205)"><g transform="translate(0 229.095)"><g transform="translate(0 0)"><g transform="translate(0 49.323)"><path class="a" d="M62.429,368.03a20.1,20.1,0,0,0-12.473-1.516c-2.263.374-4.622,1.051-6.162,2.75s-1.831,4.691-.063,6.152a5.9,5.9,0,0,0,3.884.986c3.3-.038,6.956-.619,9.59,1.365,1.5,1.132,2.5,3.013,4.3,3.57a4.249,4.249,0,0,0,4.674-2.079,7.256,7.256,0,0,0,.528-5.358A8.18,8.18,0,0,0,62.429,368.03Z" transform="translate(-42.518 -366.162)"/></g><g transform="translate(13.108)"><path class="a" d="M74.065,340.171c-2.32,3.313-6.828,2.216-8.919.194s-2.974-4.953-3.778-7.749c-1.837-6.386-3.69-13.086-2.324-19.591a10.887,10.887,0,0,1,2.5-5.326,5.689,5.689,0,0,1,5.389-1.793c2.273.6,3.686,2.827,4.707,4.945a46.694,46.694,0,0,1,4.615,20.04c.011,3.228-.37,6.613-2.191,9.279" transform="translate(-58.571 -305.76)"/></g><g transform="translate(32.525 10.661)"><path class="a" d="M84.8,347.32c-2.519-2.989-3-7.35-1.876-11.095a21.385,21.385,0,0,1,6.572-9.532,35.356,35.356,0,0,1,11.767-6.943,12.541,12.541,0,0,1,5.292-.9,5.552,5.552,0,0,1,4.441,2.687c1.239,2.362.051,5.227-1.233,7.564a89.7,89.7,0,0,1-7.729,11.769c-2.316,2.986-4.97,5.932-8.5,7.282s-7.2,1.191-9.069-1.258" transform="translate(-82.349 -318.816)"/></g><g transform="translate(11.444 53.924)"><path class="b" d="M73.849,402.265a7.2,7.2,0,0,1-.21-1.506c-.107-1.1-.241-2.472-.4-4.109a59.308,59.308,0,0,0-.924-6.026,46.455,46.455,0,0,0-2.191-7.113,26.188,26.188,0,0,0-3.632-6.436,13.554,13.554,0,0,0-4.592-3.818,12.849,12.849,0,0,0-3.867-1.2,7.176,7.176,0,0,1-1.5-.217,7.1,7.1,0,0,1,1.525-.024,11.72,11.72,0,0,1,4.032,1.05,13.534,13.534,0,0,1,4.845,3.851,25.62,25.62,0,0,1,3.764,6.565,43.416,43.416,0,0,1,2.175,7.229,50.982,50.982,0,0,1,.8,6.1c.131,1.745.18,3.158.2,4.134A7.06,7.06,0,0,1,73.849,402.265Z" transform="translate(-56.533 -371.796)"/></g><g transform="translate(20.779 13.313)"><path class="b" d="M75.662,389.981a2.973,2.973,0,0,1-.041-.7c0-.524,0-1.186.006-2,0-1.734,0-4.243-.089-7.341-.154-6.2-.687-12.864-1.717-22.266-.976-8.84-2.286-19.129-3.668-25.818-.3-1.521-.594-2.891-.875-4.089s-.5-2.237-.718-3.075c-.19-.789-.345-1.431-.467-1.942a2.981,2.981,0,0,1-.122-.689,2.924,2.924,0,0,1,.243.655c.152.5.344,1.136.58,1.914.257.83.521,1.86.822,3.056s.643,2.559.967,4.079a226.586,226.586,0,0,1,3.857,23.956c1.032,9.422,1.5,18,1.538,24.211.037,3.106-.029,5.621-.109,7.356-.05.811-.09,1.471-.122,2A2.982,2.982,0,0,1,75.662,389.981Z" transform="translate(-67.965 -322.064)"/></g><g transform="translate(28.406 18.372)"><path class="b" d="M77.334,374.573a13.345,13.345,0,0,1,.015-2.087c.077-1.341.261-3.279.639-5.654a74.377,74.377,0,0,1,1.839-8.238,67.391,67.391,0,0,1,3.444-9.747,51.942,51.942,0,0,1,10.116-15.752,25.813,25.813,0,0,1,2.38-2.212c.365-.309.688-.616,1.017-.861l.923-.636a13.216,13.216,0,0,1,1.757-1.124,61.888,61.888,0,0,0-5.758,5.137,54.689,54.689,0,0,0-9.863,15.7,76.908,76.908,0,0,0-3.465,9.658,83.852,83.852,0,0,0-1.957,8.155c-.431,2.351-.68,4.27-.831,5.6A13.4,13.4,0,0,1,77.334,374.573Z" transform="translate(-77.306 -328.259)"/></g></g><g transform="translate(11.932 93.871)"><path class="b" d="M89.625,420.717,87.967,443.43H58.788L57.13,420.717Z" transform="translate(-57.13 -420.717)"/></g><g transform="translate(8.45 84.919)"><rect class="b" width="38.795" height="8.953"/></g><g transform="translate(9.091 115.715)"><path class="a" d="M91.805,447.468v2.482H53.652v-2.482Z" transform="translate(-53.652 -447.468)"/></g><g transform="translate(10.481 118.197)"><path class="b" d="M88.508,454.874l1.787-4.368H55.354l2.084,4.368Z" transform="translate(-55.354 -450.507)"/></g><g transform="translate(12.473 98.103)"><path class="c" d="M57.794,429.091a.969.969,0,0,0,.136.208l.435.579,1.7,2.175.076.1.073-.1,4.176-5.776h-.24l4.111,5.821.129.183.145-.172,4.876-5.8-.281,0c.084.107.176.222.268.337l4.361,5.466.145.182.134-.189,4.113-5.821-.239.011,5.066,5.772.09.1.069-.115,1.587-2.665.407-.71a1.145,1.145,0,0,0,.125-.253,1.1,1.1,0,0,0-.17.225l-.451.683-1.665,2.616.158-.013-4.984-5.842-.126-.148-.114.159-4.15,5.794.279-.007-4.35-5.474c-.091-.115-.184-.23-.268-.337l-.139-.174-.143.171-4.863,5.813.274.011L64.391,426.1l-.122-.17-.118.17-4.088,5.839.149,0-1.769-2.12-.474-.549C57.86,429.146,57.8,429.085,57.794,429.091Z" transform="translate(-57.793 -425.9)"/></g><g transform="translate(11.526 93.539)"><path class="c" d="M56.633,420.493c0,.1,7.312.181,16.328.181s16.33-.081,16.33-.181-7.31-.182-16.33-.182S56.633,420.393,56.633,420.493Z" transform="translate(-56.633 -420.311)"/></g><g transform="translate(10.052 118.26)"><path class="c" d="M54.828,450.765c0,.1,7.946.182,17.745.182s17.747-.082,17.747-.182-7.944-.181-17.747-.181S54.828,450.666,54.828,450.765Z" transform="translate(-54.828 -450.584)"/></g></g><g transform="translate(334.667 315.525)"><g transform="translate(3.637 7.88)"><path class="c" d="M456.813,421.253v28.184h86.675V421.253Z" transform="translate(-456.813 -421.253)"/></g><path class="b" d="M452.36,411.6v7.88H545.7V411.6H452.36Z" transform="translate(-452.36 -411.604)"/><g transform="translate(44.852)"><path class="b" d="M509.106,447.668h43.641V419.483h3.031V411.6h-48.49v7.151Z" transform="translate(-507.287 -411.604)"/></g><g transform="translate(15.759 12.425)"><rect class="b" width="17.577" height="4.242"/></g><g transform="translate(13.497 21.971)"><rect class="d" width="22.57" height="8.959"/></g></g><g transform="translate(444.564 315.447)"><g transform="translate(3.637 7.88)"><path class="c" d="M591.4,421.158v28.184h86.675V421.158Z" transform="translate(-591.396 -421.158)"/></g><path class="b" d="M586.943,411.508v7.88h93.342v-7.88H586.943Z" transform="translate(-586.943 -411.508)"/><g transform="translate(44.852)"><path class="b" d="M643.689,447.572h43.641V419.388h3.031v-7.88H641.87v7.151Z" transform="translate(-641.87 -411.508)"/></g><g transform="translate(15.759 12.425)"><rect class="b" width="17.577" height="4.243"/></g><g transform="translate(13.497 21.971)"><rect class="d" width="22.57" height="8.959"/></g></g><g transform="translate(356.791 279.835)"><g transform="translate(3.637 7.88)"><path class="c" d="M483.906,377.547v28.184h86.675V377.547Z" transform="translate(-483.906 -377.547)"/></g><path class="b" d="M479.453,367.9v7.88H572.8V367.9H479.453Z" transform="translate(-479.453 -367.898)"/><g transform="translate(44.852)"><path class="b" d="M536.2,403.962h43.641V375.777h3.031V367.9H534.38v7.151Z" transform="translate(-534.38 -367.898)"/></g><g transform="translate(15.759 12.425)"><rect class="b" width="17.577" height="4.242"/></g><g transform="translate(13.497 21.971)"><rect class="d" width="22.57" height="8.959"/></g></g><g transform="translate(466.454 148.761)"><g transform="translate(0 0)"><g transform="translate(0 1.965)"><path class="e" d="M689.117,224.876l-53.978-14.9a5.122,5.122,0,0,0-6.3,3.574l-14.9,53.978a5.122,5.122,0,0,0,3.574,6.3l37.344,10.31,15.021,4.147,1.613.445a5.122,5.122,0,0,0,6.3-3.574l14.9-53.978A5.123,5.123,0,0,0,689.117,224.876Z" transform="translate(-613.749 -209.787)"/></g><g transform="translate(10.886 0.788)"><path class="c" d="M2.78,0H62.3a3.94,3.94,0,0,1,3.94,3.94V20.914a0,0,0,0,1,0,0H0a0,0,0,0,1,0,0V2.78A2.78,2.78,0,0,1,2.78,0Z" transform="translate(5.566 0) rotate(15.434)"/><g transform="translate(13.896 34.693)"><path class="b" d="M655.113,253.416l-5.993,21.706-5.024-1.387,4.88-17.675-4.341-1.2,1.113-4.031Z" transform="translate(-644.097 -250.831)"/><g transform="translate(12.281 3.519)"><path class="b" d="M678.649,259.943l-.9,3.256-13.156,16.225-5.457-1.507,12.646-15.464-7.194-1.987L663.613,264l-4.466-1.233,2.107-7.628Z" transform="translate(-659.137 -255.14)"/></g></g><g transform="translate(23.656 17.295)"><path class="b" d="M675.647,234.944c-.031.114-4.444-1.007-9.854-2.5s-9.774-2.8-9.743-2.91,4.443,1.007,9.855,2.5S675.678,234.831,675.647,234.944Z" transform="translate(-656.05 -229.525)"/></g></g><g transform="translate(53.506 5.382)"><rect class="a" width="14.961" height="4.311" rx="2.155" transform="translate(0 14.422) rotate(-74.567)"/><g transform="translate(0.363 0.269)"><path class="b" d="M681.5,229.047a2.661,2.661,0,0,0,1.315-.16,2.008,2.008,0,0,0,1.043-1.071c.187-.564.345-1.289.553-2.044l1.436-5.368.861-3.167a1.889,1.889,0,0,0-1.418-2.446,1.886,1.886,0,0,0-1.538.248,1.974,1.974,0,0,0-.836,1.3c-.307,1.094-.6,2.151-.885,3.16l-1.523,5.344q-.164.566-.315,1.084a5.53,5.53,0,0,0-.236.951,2.041,2.041,0,0,0,.445,1.429,2.769,2.769,0,0,0,1.1.741.918.918,0,0,1-.354-.065,2.054,2.054,0,0,1-.87-.568,2.187,2.187,0,0,1-.557-1.552,5.415,5.415,0,0,1,.213-1.007l.286-1.092c.415-1.551.9-3.365,1.435-5.368l.861-3.167a2.4,2.4,0,0,1,1-1.538,2.3,2.3,0,0,1,1.884-.305,2.3,2.3,0,0,1,1.707,2.965l-.885,3.159c-.568,1.994-1.083,3.8-1.523,5.344-.231.763-.394,1.439-.624,2.058a2.155,2.155,0,0,1-1.2,1.131,2.006,2.006,0,0,1-1.033.113A.807.807,0,0,1,681.5,229.047Z" transform="translate(-679.719 -214.301)"/></g></g><g transform="translate(34.014)"><rect class="a" width="14.961" height="4.311" rx="2.155" transform="translate(0 14.422) rotate(-74.568)"/><g transform="translate(0.363 0.268)"><path class="b" d="M657.631,222.456a2.665,2.665,0,0,0,1.315-.159,2.013,2.013,0,0,0,1.043-1.072c.187-.564.345-1.289.553-2.044l1.436-5.368c.275-1.011.563-2.07.861-3.166a1.889,1.889,0,0,0-1.418-2.446,1.885,1.885,0,0,0-1.538.247,1.976,1.976,0,0,0-.836,1.3c-.307,1.094-.6,2.151-.886,3.16-.568,1.995-1.083,3.8-1.522,5.345l-.315,1.084a5.538,5.538,0,0,0-.236.951,2.043,2.043,0,0,0,.445,1.429,2.749,2.749,0,0,0,1.1.741.924.924,0,0,1-.354-.065,2.05,2.05,0,0,1-.87-.569,2.186,2.186,0,0,1-.557-1.552,5.419,5.419,0,0,1,.213-1.008q.136-.521.286-1.091c.414-1.551.9-3.366,1.435-5.369.275-1.012.563-2.07.861-3.167a2.4,2.4,0,0,1,1-1.539,2.3,2.3,0,0,1,1.884-.305,2.3,2.3,0,0,1,1.707,2.965l-.885,3.16-1.523,5.344c-.231.763-.394,1.438-.624,2.058a2.158,2.158,0,0,1-1.2,1.131,2,2,0,0,1-1.033.112A.788.788,0,0,1,657.631,222.456Z" transform="translate(-655.848 -207.71)"/></g></g></g></g><g transform="translate(26.416)"><g transform="translate(7.956 5.394)"><rect class="a" width="110.043" height="197.685"/></g><g transform="translate(12.354 11.126)"><rect class="e" width="100.115" height="186.063"/></g><g transform="translate(117.999 2.041)"><path class="b" d="M224.027,230.524l-4.654-1.782V27.7h4.654Z" transform="translate(-219.373 -27.704)"/></g><g transform="translate(36.897 91.361)"><path class="c" d="M120.053,177.039l26-24.167c3.295-3.062,7.6-6.361,11.839-4.852,2.038.726,3.572,2.466,5.569,3.3,3.991,1.663,8.551-.737,11.621-3.784s5.491-6.856,9.21-9.065,9.5-1.928,11.333,1.987v26.3l-37.785,16.178Z" transform="translate(-120.053 -137.087)"/></g><g transform="translate(12.354 114.554)"><path class="b" d="M90,167.132c9.581-3.9,19.142-.585,26,7.16,1.444,1.631,2.758,3.514,4.741,4.414,2.686,1.218,5.788.306,8.719-.026a21.929,21.929,0,0,1,20.623,10L118.091,204.41,90,204.206Z" transform="translate(-89.997 -165.49)"/></g><g transform="translate(12.354 115.2)"><path class="a" d="M190.112,167.407c-6.311-3.047-11.866.64-17.687,4.541s-11.232,8.9-18.061,10.474c-4.563,1.05-9.452.468-13.863,2.039-8.987,3.2-14.183,14.612-23.708,15.156-5.171.3-9.81-2.839-14.425-5.191s-8.256-4.585-12.371-1.44v55.284H190.112Z" transform="translate(-89.997 -166.281)"/></g><g transform="translate(12.354 64.651)"><rect class="b" width="102.289" height="1.981"/></g><g transform="translate(12.354 108.96)"><rect class="b" width="102.289" height="1.981"/></g><g transform="translate(12.354 153.269)"><rect class="b" width="102.289" height="1.981"/></g><g transform="translate(59.882 65.642)"><rect class="b" width="136.823" height="5.058" transform="translate(0 136.823) rotate(-90)"/></g><g transform="translate(31.631 11.126)"><rect class="b" width="2.291" height="54.516"/></g><g transform="translate(51.395 11.126)"><rect class="b" width="2.291" height="54.516"/></g><g transform="translate(71.158 11.126)"><rect class="b" width="2.291" height="54.516"/></g><g transform="translate(90.922 11.126)"><rect class="b" width="2.291" height="54.516"/></g><g transform="translate(3.302 2.041)"><rect class="b" width="4.654" height="202.261"/></g><g transform="translate(3.302)"><rect class="b" width="119.352" height="5.394"/></g><g transform="translate(0 205.526)"><rect class="b" width="125.804" height="5.025" transform="translate(0 0)"/></g><g transform="translate(0 203.078)"><path class="a" d="M192.868,273.9l7.805,2.447H74.868l7.956-2.447Z" transform="translate(-74.868 -273.899)"/></g></g><g transform="translate(440.028 13.839)"><g transform="translate(4.051 0.002)"><rect class="b" width="80.587" height="116.808"/></g><g transform="translate(0.014 0.002)"><rect class="c" width="80.587" height="116.808"/></g><g transform="translate(9.807 12.434)"><g transform="translate(0.219 0.219)"><rect class="d" width="60.563" height="91.506"/></g><path class="b" d="M654.18,149.1s-.008-.155-.012-.447-.007-.733-.011-1.3c-.006-1.15-.014-2.834-.025-5.019-.012-4.386-.031-10.777-.054-18.85-.024-16.136-.059-38.985-.1-65.892l.2.2-60.556.018h-.007l.219-.219c-.017,34.52-.033,66.347-.045,91.506l-.174-.175,44.081.092,12.178.044,3.2.02c.724.007,1.106.019,1.106.019s-.357.012-1.069.019l-3.164.02-12.139.045-44.19.091h-.175V149.1c-.012-25.159-.028-56.986-.045-91.506v-.219h.226l60.556.018h.2v.2c-.04,26.961-.074,49.856-.1,66.024-.024,8.054-.042,14.43-.054,18.8-.011,2.169-.019,3.839-.024,4.979,0,.554-.009.977-.012,1.275S654.18,149.1,654.18,149.1Z" transform="translate(-593.398 -57.379)"/></g><g transform="translate(67.781 13.264)"><path class="f" d="M664.394,58.4" transform="translate(-664.394 -58.395)"/></g><g transform="translate(69.851 0)"><path class="b" d="M677.905,42.154a13.871,13.871,0,0,1-1.436,2.087c-.936,1.252-2.265,2.954-3.781,4.8s-2.934,3.472-3.983,4.631a13.931,13.931,0,0,1-1.774,1.81,15.243,15.243,0,0,1,1.538-2.011l3.88-4.708,3.876-4.709A15.216,15.216,0,0,1,677.905,42.154Z" transform="translate(-666.929 -42.152)"/></g><g transform="translate(70.895 103.863)"><g transform="translate(0.003 0.001)"><path class="d" d="M668.211,169.346a74.984,74.984,0,0,0,10.562,13.211" transform="translate(-668.211 -169.346)"/></g><path class="b" d="M678.773,182.556a12.1,12.1,0,0,1-1.841-1.676,59.055,59.055,0,0,1-7.492-9.37,11.948,11.948,0,0,1-1.229-2.165,16.735,16.735,0,0,1,1.485,1.992c.888,1.247,2.137,2.952,3.594,4.776s2.847,3.414,3.868,4.555A16.7,16.7,0,0,1,678.773,182.556Z" transform="translate(-668.207 -169.345)"/></g><g transform="translate(0 103.692)"><g transform="translate(0.003 0.002)"><path class="d" d="M581.391,182.162l10.556-13.024" transform="translate(-581.391 -169.138)"/></g><path class="b" d="M591.946,169.138a80.6,80.6,0,0,1-5.108,6.649,80.407,80.407,0,0,1-5.448,6.374,80.289,80.289,0,0,1,5.108-6.65A79.9,79.9,0,0,1,591.946,169.138Z" transform="translate(-581.388 -169.136)"/></g><g transform="translate(0.011)"><path class="b" d="M581.4,42.154a72.876,72.876,0,0,1,5.123,6.125,72.85,72.85,0,0,1,4.78,6.4,72.974,72.974,0,0,1-5.124-6.125A72.97,72.97,0,0,1,581.4,42.154Z" transform="translate(-581.401 -42.152)"/></g><g transform="translate(31.442 31.232)"><rect class="b" width="20.279" height="57.577"/></g></g></g><g transform="translate(158.148 66.88)"><g transform="translate(0 0)"><path class="g" d="M184.121,300.819l.112-212.677a11.907,11.907,0,0,1,11.914-11.9l315.572.167a11.907,11.907,0,0,1,11.9,11.913L523.508,301a11.908,11.908,0,0,1-11.915,11.9l-315.57-.167A11.908,11.908,0,0,1,184.121,300.819Z" transform="translate(-184.121 -76.241)"/><g transform="translate(32.499 7.026)"><rect class="d" width="221.577" height="283.429" transform="translate(283.546 0.149) rotate(90.03)"/></g><g transform="translate(8.037 109.175)"><path class="h" d="M203.032,228.087a9.074,9.074,0,1,1,9.08-9.069A9.074,9.074,0,0,1,203.032,228.087Z" transform="translate(-193.963 -209.939)"/></g><g transform="translate(325.901 82.797)"><g transform="translate(0)"><rect class="h" width="71.228" height="3.749" rx="1.215" transform="matrix(-0.001, 1, -1, -0.001, 3.787, 0.002)"/></g></g><g transform="translate(32.042 6.944)"><g transform="translate(0 56.657)"><rect class="b" width="185.76" height="17.376"/></g><g transform="translate(0 22.419)"><rect class="c" width="185.76" height="34.238"/></g><g transform="translate(24.594 62.725)"><path class="g" d="M253.479,166.892l.377-.847a3.254,3.254,0,0,0,1.938.646c.914,0,1.3-.327,1.3-.763,0-1.267-3.488-.436-3.488-2.616,0-.947.755-1.752,2.365-1.752a3.711,3.711,0,0,1,1.954.52l-.344.847a3.263,3.263,0,0,0-1.618-.461c-.906,0-1.275.352-1.275.8,0,1.25,3.48.437,3.48,2.592,0,.939-.764,1.744-2.373,1.744A3.786,3.786,0,0,1,253.479,166.892Z" transform="translate(-253.479 -161.559)"/></g><g transform="translate(46.961 62.808)"><path class="g" d="M286.262,167.531l-.009-3.891-1.928,3.221h-.487l-1.929-3.17v3.84h-1.04v-5.87h.9l2.331,3.892,2.29-3.892h.9l.008,5.87Z" transform="translate(-280.87 -161.661)"/></g><g transform="translate(68.984 62.808)"><path class="g" d="M309.786,162.584H307.84v-.923h4.982v.923h-1.946v4.947h-1.09Z" transform="translate(-307.84 -161.661)"/></g><g transform="translate(114.138 62.808)"><path class="g" d="M365.083,162.584h-1.946v-.923h4.981v.923h-1.945v4.947h-1.09Z" transform="translate(-363.137 -161.661)"/></g><g transform="translate(136.966 62.808)"><path class="g" d="M392.182,162.576v1.786h2.835v.923h-2.835v2.247h-1.09v-5.87h4.285v.915Z" transform="translate(-391.092 -161.661)"/></g><g transform="translate(160.056 62.725)"><path class="g" d="M419.369,166.892l.377-.847a3.253,3.253,0,0,0,1.937.646c.915,0,1.3-.327,1.3-.763,0-1.267-3.488-.436-3.488-2.616,0-.947.755-1.752,2.365-1.752a3.708,3.708,0,0,1,1.953.52l-.344.847a3.258,3.258,0,0,0-1.618-.461c-.906,0-1.276.352-1.276.8,0,1.25,3.48.437,3.48,2.592,0,.939-.763,1.744-2.373,1.744A3.783,3.783,0,0,1,419.369,166.892Z" transform="translate(-419.369 -161.559)"/></g><g transform="translate(188.68 53.928)"><rect class="a" width="17.15" height="47.161" rx="3.782"/></g><g transform="translate(192.788 58.895)"><path class="g" d="M461.785,156.869v5.87h-1.09v-4.956h-1.24v-.914Z" transform="translate(-459.454 -156.869)"/><path class="g" d="M467.821,160.977c0,.99-.746,1.845-2.322,1.845a3.688,3.688,0,0,1-2.2-.679l.469-.847a2.737,2.737,0,0,0,1.719.578c.78,0,1.241-.344,1.241-.889,0-.528-.385-.871-1.275-.871h-.536v-.746l1.333-1.585h-2.667v-.914h4v.729l-1.426,1.694A1.674,1.674,0,0,1,467.821,160.977Z" transform="translate(-460.158 -156.869)"/></g><g transform="translate(91.754 62.808)"><path class="g" d="M344.866,161.661l-1.946,5.87h-1.157l-1.451-4.343-1.476,4.343h-1.165l-1.946-5.87h1.132l1.459,4.462,1.518-4.462h1.006l1.485,4.487,1.5-4.487Z" transform="translate(-335.725 -161.661)"/></g><g transform="translate(86.285 128.581)"><circle class="i" cx="10.157" cy="10.157" r="10.157" transform="translate(0 0)"/></g><g transform="translate(18.677 150.158)"><circle class="h" cx="10.157" cy="10.157" r="10.157"/></g><g transform="translate(109.379 174.288)"><circle class="i" cx="10.157" cy="10.157" r="10.157" transform="translate(0 0)"/></g><g transform="translate(25.119 89.096)"><g transform="translate(112.655 0.083)"><path class="g" d="M394.413,193.956v5.87h-1.09v-4.956h-1.24v-.915Z" transform="translate(-392.082 -193.956)"/></g><g transform="translate(135.656)"><path class="g" d="M424.8,198.885v.923h-4.327v-.73l2.331-2.214c.571-.545.672-.888.672-1.216,0-.536-.369-.847-1.09-.847a1.657,1.657,0,0,0-1.376.612l-.763-.587a2.708,2.708,0,0,1,2.23-.973c1.276,0,2.1.645,2.1,1.685a2.352,2.352,0,0,1-.973,1.853l-1.568,1.493Z" transform="translate(-420.25 -193.854)"/></g><g transform="translate(0.337 22.056)"><path class="g" d="M259.064,224.973c0,.99-.746,1.845-2.323,1.845a3.692,3.692,0,0,1-2.206-.679l.47-.848a2.735,2.735,0,0,0,1.719.579c.78,0,1.241-.344,1.241-.889,0-.528-.385-.872-1.275-.872h-.536v-.746l1.333-1.584H254.82v-.915h4v.73l-1.426,1.694A1.675,1.675,0,0,1,259.064,224.973Z" transform="translate(-254.535 -220.864)"/></g><g transform="translate(22.649 22.056)"><path class="g" d="M287.175,225.4h-1.04v1.333h-1.057V225.4h-3.22v-.755l2.893-3.782h1.165l-2.725,3.614h1.92V223.3h1.023v1.182h1.04Z" transform="translate(-281.858 -220.864)"/></g><g transform="translate(44.42 22.056)"><path class="g" d="M313.048,224.931c0,1.031-.746,1.886-2.322,1.886a3.673,3.673,0,0,1-2.206-.679l.461-.848a2.774,2.774,0,0,0,1.727.579c.78,0,1.241-.344,1.241-.9s-.361-.914-1.577-.914h-1.417l.3-3.2H312.7v.915H310.18l-.126,1.358h.562C312.352,223.137,313.048,223.891,313.048,224.931Z" transform="translate(-308.52 -220.864)"/></g><g transform="translate(67.851 21.972)"><path class="g" d="M341.9,224.9a1.957,1.957,0,0,1-2.147,1.9c-1.6,0-2.541-1.031-2.541-2.918,0-2.012,1.174-3.118,2.876-3.118a2.937,2.937,0,0,1,1.543.377l-.4.821a1.993,1.993,0,0,0-1.115-.285c-1.106,0-1.8.688-1.8,2.021v.008a2.006,2.006,0,0,1,1.569-.612A1.834,1.834,0,0,1,341.9,224.9Zm-1.057.051c0-.612-.461-1-1.174-1a1.067,1.067,0,0,0-1.191,1.006c0,.554.436.99,1.216.99A1.019,1.019,0,0,0,340.845,224.946Z" transform="translate(-337.214 -220.762)"/></g><g transform="translate(89.48 22.056)"><path class="g" d="M368.263,220.864v.73l-2.282,5.14h-1.165l2.206-4.948h-2.306v1H363.7v-1.921Z" transform="translate(-363.701 -220.864)"/></g><g transform="translate(111.839 21.972)"><path class="g" d="M395.88,225.03c0,1.09-.949,1.769-2.407,1.769s-2.389-.679-2.389-1.769a1.472,1.472,0,0,1,.938-1.4,1.341,1.341,0,0,1-.729-1.233c0-1.006.881-1.635,2.18-1.635s2.2.629,2.2,1.635a1.341,1.341,0,0,1-.746,1.233A1.477,1.477,0,0,1,395.88,225.03Zm-1.1-.033c0-.579-.5-.94-1.308-.94s-1.292.361-1.292.94c0,.6.487.947,1.292.947S394.78,225.592,394.78,225Zm-2.415-2.55c0,.5.419.822,1.106.822s1.124-.318,1.124-.822c0-.528-.452-.83-1.124-.83S392.366,221.919,392.366,222.447Z" transform="translate(-391.083 -220.762)"/></g><g transform="translate(134.622 21.972)"><path class="g" d="M423.671,223.68c0,2.013-1.174,3.119-2.876,3.119a2.945,2.945,0,0,1-1.543-.377l.4-.821a1.994,1.994,0,0,0,1.115.285c1.107,0,1.8-.688,1.8-2.021v-.008a2.006,2.006,0,0,1-1.568.612,1.835,1.835,0,0,1-2.022-1.8,1.957,1.957,0,0,1,2.147-1.9C422.732,220.762,423.671,221.793,423.671,223.68Zm-1.266-1.073c0-.554-.436-.99-1.216-.99a1.019,1.019,0,0,0-1.149,1c0,.612.461,1,1.174,1A1.068,1.068,0,0,0,422.4,222.607Z" transform="translate(-418.983 -220.762)"/></g><g transform="translate(0 46.853)"><path class="g" d="M256.453,251.333v5.87h-1.09v-4.957h-1.241v-.914Z" transform="translate(-254.122 -251.25)"/><path class="g" d="M258.4,254.25c0-1.929,1.057-3.019,2.449-3.019s2.457,1.09,2.457,3.019-1.057,3.018-2.457,3.018S258.4,256.178,258.4,254.25Zm3.808,0c0-1.418-.554-2.072-1.359-2.072s-1.35.654-1.35,2.072.554,2.071,1.35,2.071S262.21,255.667,262.21,254.25Z" transform="translate(-254.907 -251.231)"/><g transform="translate(23.54 0.083)"><path class="g" d="M285.281,251.333v5.87h-1.09v-4.957H282.95v-.914Z" transform="translate(-282.95 -251.333)"/><path class="g" d="M289.192,251.333v5.87H288.1v-4.957h-1.241v-.914Z" transform="translate(-283.667 -251.333)"/></g><g transform="translate(45.015)"><path class="g" d="M311.579,251.333v5.87h-1.09v-4.957h-1.241v-.914Z" transform="translate(-309.248 -251.25)"/><path class="g" d="M317.712,256.262v.923h-4.327v-.73l2.331-2.214c.57-.545.67-.889.67-1.216,0-.536-.368-.847-1.09-.847a1.656,1.656,0,0,0-1.375.612l-.763-.587a2.71,2.71,0,0,1,2.231-.973c1.274,0,2.1.646,2.1,1.685a2.354,2.354,0,0,1-.973,1.854l-1.569,1.492Z" transform="translate(-309.965 -251.231)"/></g><g transform="translate(67.33 0.083)"><path class="d" d="M338.907,251.333v5.87h-1.09v-4.957h-1.241v-.914Z" transform="translate(-336.576 -251.333)"/><path class="d" d="M344.944,255.442c0,.99-.746,1.845-2.323,1.845a3.679,3.679,0,0,1-2.2-.679l.47-.847a2.733,2.733,0,0,0,1.719.579c.78,0,1.241-.344,1.241-.889,0-.527-.386-.871-1.275-.871h-.536v-.746l1.333-1.586H340.7v-.914h4v.73l-1.425,1.694A1.674,1.674,0,0,1,344.944,255.442Z" transform="translate(-337.28 -251.333)"/></g><g transform="translate(89.241 0.083)"><path class="g" d="M365.74,251.333v5.87h-1.09v-4.957h-1.241v-.914Z" transform="translate(-363.409 -251.333)"/><path class="g" d="M372.9,255.87h-1.04V257.2h-1.057V255.87h-3.22v-.755l2.893-3.782h1.165l-2.725,3.614h1.92v-1.182h1.023v1.182h1.04Z" transform="translate(-364.175 -251.333)"/></g><g transform="translate(111.956 0.083)"><path class="g" d="M393.557,251.333v5.87h-1.09v-4.957h-1.241v-.914Z" transform="translate(-391.226 -251.333)"/><path class="g" d="M399.717,255.4c0,1.031-.746,1.886-2.323,1.886a3.661,3.661,0,0,1-2.2-.679l.461-.847a2.774,2.774,0,0,0,1.727.579c.78,0,1.241-.344,1.241-.9s-.361-.914-1.576-.914h-1.418l.3-3.2h3.447v.914h-2.524l-.126,1.36h.562C399.02,253.606,399.717,254.36,399.717,255.4Z" transform="translate(-391.953 -251.333)"/></g><g transform="translate(134.092)"><path class="g" d="M420.665,251.333v5.87h-1.09v-4.957h-1.24v-.914Z" transform="translate(-418.334 -251.25)"/><path class="g" d="M427.3,255.365a1.956,1.956,0,0,1-2.147,1.9c-1.6,0-2.54-1.031-2.54-2.918,0-2.013,1.173-3.119,2.876-3.119a2.94,2.94,0,0,1,1.543.377l-.4.822a2,2,0,0,0-1.115-.286c-1.107,0-1.8.688-1.8,2.021v.008a2,2,0,0,1,1.568-.612A1.835,1.835,0,0,1,427.3,255.365Zm-1.057.051c0-.612-.461-1-1.173-1a1.067,1.067,0,0,0-1.191,1.006c0,.554.435.99,1.215.99A1.019,1.019,0,0,0,426.246,255.415Z" transform="translate(-419.119 -251.231)"/></g></g><g transform="translate(0 68.83)"><g transform="translate(0 0.083)"><path class="d" d="M256.453,278.247v5.87h-1.09v-4.956h-1.241v-.915Z" transform="translate(-254.122 -278.247)"/><path class="d" d="M262.8,278.247v.73l-2.282,5.14h-1.165l2.206-4.948h-2.306v1h-1.015v-1.921Z" transform="translate(-254.877 -278.247)"/></g><g transform="translate(22.287)"><path class="g" d="M283.746,278.247v5.87h-1.09v-4.956h-1.241v-.915Z" transform="translate(-281.415 -278.164)"/><path class="g" d="M290.451,282.412c0,1.09-.947,1.77-2.406,1.77s-2.39-.679-2.39-1.77a1.472,1.472,0,0,1,.94-1.4,1.341,1.341,0,0,1-.73-1.233c0-1.006.88-1.635,2.18-1.635s2.2.629,2.2,1.635a1.341,1.341,0,0,1-.746,1.233A1.474,1.474,0,0,1,290.451,282.412Zm-1.1-.034c0-.578-.5-.938-1.308-.938s-1.291.36-1.291.938c0,.6.486.949,1.291.949S289.352,282.975,289.352,282.379Zm-2.415-2.548c0,.5.419.821,1.106.821s1.124-.318,1.124-.821c0-.528-.452-.831-1.124-.831S286.938,279.3,286.938,279.83Z" transform="translate(-282.193 -278.145)"/></g><g transform="translate(44.862)"><path class="g" d="M311.392,278.247v5.87H310.3v-4.956h-1.241v-.915Z" transform="translate(-309.061 -278.164)"/><path class="g" d="M317.824,281.063c0,2.013-1.173,3.119-2.876,3.119a2.952,2.952,0,0,1-1.543-.376l.4-.822a2,2,0,0,0,1.115.285c1.107,0,1.8-.688,1.8-2.02v-.009a2,2,0,0,1-1.569.612,1.834,1.834,0,0,1-2.02-1.8,1.956,1.956,0,0,1,2.147-1.9C316.885,278.145,317.824,279.176,317.824,281.063Zm-1.266-1.073c0-.554-.436-.99-1.217-.99a1.018,1.018,0,0,0-1.148,1c0,.612.461,1,1.173,1A1.068,1.068,0,0,0,316.558,279.99Z" transform="translate(-309.809 -278.145)"/></g><g transform="translate(66.31)"><path class="g" d="M339.88,283.176v.923h-4.326v-.73l2.331-2.214c.57-.545.67-.888.67-1.216,0-.536-.369-.847-1.09-.847a1.655,1.655,0,0,0-1.375.612l-.763-.587a2.711,2.711,0,0,1,2.231-.973c1.275,0,2.1.646,2.1,1.685a2.354,2.354,0,0,1-.973,1.854l-1.568,1.492Z" transform="translate(-335.327 -278.145)"/><path class="g" d="M341.641,281.164c0-1.929,1.057-3.019,2.448-3.019s2.458,1.09,2.458,3.019-1.057,3.018-2.458,3.018S341.641,283.092,341.641,281.164Zm3.807,0c0-1.418-.553-2.072-1.359-2.072s-1.35.654-1.35,2.072.554,2.071,1.35,2.071S345.448,282.581,345.448,281.164Z" transform="translate(-336.485 -278.145)"/></g><g transform="translate(89.993)"><path class="g" d="M368.882,283.176v.923h-4.327v-.73l2.331-2.214c.57-.545.67-.888.67-1.216,0-.536-.368-.847-1.09-.847a1.656,1.656,0,0,0-1.375.612l-.763-.587a2.709,2.709,0,0,1,2.231-.973c1.274,0,2.1.646,2.1,1.685a2.354,2.354,0,0,1-.973,1.854l-1.569,1.492Z" transform="translate(-364.329 -278.145)"/><path class="g" d="M372.634,278.247v5.87h-1.09v-4.956H370.3v-.915Z" transform="translate(-365.425 -278.164)"/></g><g transform="translate(111.62)"><path class="g" d="M395.368,283.176v.923h-4.327v-.73l2.331-2.214c.57-.545.671-.888.671-1.216,0-.536-.369-.847-1.09-.847a1.655,1.655,0,0,0-1.375.612l-.764-.587a2.71,2.71,0,0,1,2.23-.973c1.276,0,2.1.646,2.1,1.685a2.353,2.353,0,0,1-.973,1.854l-1.567,1.492Z" transform="translate(-390.815 -278.145)"/><path class="g" d="M401.343,283.176v.923h-4.327v-.73l2.331-2.214c.571-.545.672-.888.672-1.216,0-.536-.369-.847-1.09-.847a1.658,1.658,0,0,0-1.376.612l-.763-.587a2.708,2.708,0,0,1,2.23-.973c1.276,0,2.1.646,2.1,1.685a2.354,2.354,0,0,1-.973,1.854l-1.568,1.492Z" transform="translate(-391.911 -278.145)"/></g><g transform="translate(134.092)"><path class="g" d="M422.887,283.176v.923H418.56v-.73l2.331-2.214c.571-.545.672-.888.672-1.216,0-.536-.369-.847-1.09-.847a1.657,1.657,0,0,0-1.376.612l-.763-.587a2.708,2.708,0,0,1,2.23-.973c1.276,0,2.1.646,2.1,1.685a2.354,2.354,0,0,1-.973,1.854l-1.568,1.492Z" transform="translate(-418.334 -278.145)"/><path class="g" d="M428.765,282.357c0,.99-.746,1.844-2.323,1.844a3.677,3.677,0,0,1-2.2-.679l.469-.847a2.735,2.735,0,0,0,1.72.579c.78,0,1.24-.344,1.24-.889,0-.528-.385-.871-1.274-.871h-.537v-.746l1.333-1.585h-2.666v-.915h4v.73l-1.426,1.694A1.676,1.676,0,0,1,428.765,282.357Z" transform="translate(-419.417 -278.164)"/></g></g><g transform="translate(0 92.889)"><path class="g" d="M258.675,312.639v.923h-4.327v-.73l2.331-2.214c.57-.545.67-.889.67-1.216,0-.536-.368-.847-1.09-.847a1.656,1.656,0,0,0-1.375.612l-.763-.587a2.709,2.709,0,0,1,2.231-.973c1.274,0,2.1.646,2.1,1.685a2.353,2.353,0,0,1-.972,1.854l-1.569,1.492Z" transform="translate(-254.122 -307.608)"/><path class="g" d="M265.526,312.247h-1.04v1.333h-1.057v-1.333h-3.22v-.754l2.893-3.782h1.165l-2.725,3.614h1.92v-1.182h1.023v1.182h1.04Z" transform="translate(-255.238 -307.627)"/><g transform="translate(22.69)"><path class="g" d="M286.462,312.639v.923h-4.327v-.73l2.331-2.214c.57-.545.67-.889.67-1.216,0-.536-.368-.847-1.09-.847a1.656,1.656,0,0,0-1.375.612l-.763-.587a2.71,2.71,0,0,1,2.231-.973c1.274,0,2.1.646,2.1,1.685a2.355,2.355,0,0,1-.973,1.854l-1.569,1.492Z" transform="translate(-281.909 -307.608)"/><path class="g" d="M292.463,311.777c0,1.031-.746,1.886-2.323,1.886a3.664,3.664,0,0,1-2.206-.679l.461-.847a2.776,2.776,0,0,0,1.728.579c.779,0,1.24-.344,1.24-.9s-.36-.915-1.576-.915H288.37l.3-3.2h3.447v.914h-2.524l-.126,1.36h.562C291.767,309.983,292.463,310.737,292.463,311.777Z" transform="translate(-283.014 -307.627)"/></g><g transform="translate(44.877)"><path class="g" d="M313.632,312.639v.923h-4.326v-.73l2.331-2.214c.57-.545.67-.889.67-1.216,0-.536-.369-.847-1.09-.847a1.655,1.655,0,0,0-1.375.612l-.763-.587a2.711,2.711,0,0,1,2.231-.973c1.275,0,2.1.646,2.1,1.685a2.355,2.355,0,0,1-.973,1.854l-1.568,1.492Z" transform="translate(-309.079 -307.608)"/><path class="g" d="M320.08,311.742a1.956,1.956,0,0,1-2.147,1.9c-1.6,0-2.54-1.031-2.54-2.918,0-2.013,1.174-3.119,2.876-3.119a2.945,2.945,0,0,1,1.543.377l-.4.822a2,2,0,0,0-1.115-.286c-1.107,0-1.8.688-1.8,2.021v.008a2.006,2.006,0,0,1,1.568-.612A1.835,1.835,0,0,1,320.08,311.742Zm-1.057.051c0-.612-.461-1-1.173-1a1.068,1.068,0,0,0-1.191,1.007c0,.553.437.989,1.217.989A1.018,1.018,0,0,0,319.023,311.792Z" transform="translate(-310.237 -307.608)"/></g><g transform="translate(67.311)"><path class="g" d="M341.106,312.639v.923H336.78v-.73l2.331-2.214c.57-.545.67-.889.67-1.216,0-.536-.369-.847-1.09-.847a1.655,1.655,0,0,0-1.375.612l-.764-.587a2.711,2.711,0,0,1,2.231-.973c1.275,0,2.1.646,2.1,1.685a2.355,2.355,0,0,1-.973,1.854l-1.568,1.492Z" transform="translate(-336.553 -307.608)"/><path class="g" d="M347.264,307.71v.73l-2.282,5.14h-1.165l2.206-4.948h-2.306v1H342.7V307.71Z" transform="translate(-337.681 -307.627)"/></g><g transform="translate(89.47)"><path class="d" d="M368.242,312.639v.923h-4.327v-.73l2.331-2.214c.57-.545.67-.889.67-1.216,0-.536-.368-.847-1.09-.847a1.656,1.656,0,0,0-1.375.612l-.763-.587a2.708,2.708,0,0,1,2.23-.973c1.275,0,2.1.646,2.1,1.685a2.352,2.352,0,0,1-.973,1.854l-1.568,1.492Z" transform="translate(-363.689 -307.608)"/><path class="d" d="M374.788,311.875c0,1.09-.947,1.77-2.406,1.77s-2.39-.679-2.39-1.77a1.472,1.472,0,0,1,.94-1.4,1.34,1.34,0,0,1-.73-1.233c0-1.006.88-1.635,2.18-1.635s2.2.629,2.2,1.635a1.341,1.341,0,0,1-.746,1.233A1.475,1.475,0,0,1,374.788,311.875Zm-1.1-.033c0-.578-.5-.938-1.308-.938s-1.291.36-1.291.938c0,.6.486.948,1.291.948S373.689,312.438,373.689,311.842Zm-2.415-2.549c0,.5.419.822,1.106.822s1.124-.319,1.124-.822c0-.528-.452-.83-1.124-.83S371.275,308.765,371.275,309.293Z" transform="translate(-364.845 -307.608)"/></g><g transform="translate(111.93)"><path class="g" d="M395.747,312.639v.923H391.42v-.73l2.331-2.214c.57-.545.671-.889.671-1.216,0-.536-.369-.847-1.09-.847a1.655,1.655,0,0,0-1.375.612l-.764-.587a2.71,2.71,0,0,1,2.23-.973c1.276,0,2.1.646,2.1,1.685a2.356,2.356,0,0,1-.973,1.854l-1.568,1.492Z" transform="translate(-391.194 -307.608)"/><path class="g" d="M402.021,310.526c0,2.013-1.175,3.119-2.877,3.119a2.942,2.942,0,0,1-1.543-.377l.4-.821a2,2,0,0,0,1.115.285c1.107,0,1.8-.688,1.8-2.02V310.7a2.005,2.005,0,0,1-1.568.612,1.835,1.835,0,0,1-2.021-1.8,1.957,1.957,0,0,1,2.147-1.9C401.081,307.608,402.021,308.639,402.021,310.526Zm-1.267-1.073c0-.554-.436-.99-1.216-.99a1.019,1.019,0,0,0-1.149,1c0,.612.461,1,1.174,1A1.068,1.068,0,0,0,400.754,309.453Z" transform="translate(-392.32 -307.608)"/></g><g transform="translate(134.033)"><path class="g" d="M422.79,311.82c0,.989-.746,1.844-2.323,1.844a3.679,3.679,0,0,1-2.2-.679l.47-.847a2.731,2.731,0,0,0,1.719.579c.78,0,1.241-.344,1.241-.889,0-.528-.385-.871-1.275-.871h-.536v-.746l1.333-1.586h-2.667v-.914h4v.73l-1.426,1.694A1.675,1.675,0,0,1,422.79,311.82Z" transform="translate(-418.262 -307.627)"/><path class="g" d="M424.678,310.627c0-1.929,1.057-3.019,2.448-3.019s2.457,1.09,2.457,3.019-1.057,3.018-2.457,3.018S424.678,312.555,424.678,310.627Zm3.807,0c0-1.418-.553-2.072-1.359-2.072s-1.35.654-1.35,2.072.554,2.071,1.35,2.071S428.485,312.044,428.485,310.627Z" transform="translate(-419.439 -307.608)"/></g></g></g><g transform="translate(24.26 35.588)"><path class="g" d="M257.96,138.669a.4.4,0,0,1-.288-.12l-4.483-4.483a.408.408,0,0,1-.016-.559l4.483-5.042a.408.408,0,1,1,.61.542l-4.227,4.755,4.21,4.21a.409.409,0,0,1-.289.7Z" transform="translate(-253.07 -128.326)"/></g><g transform="translate(164.964 35.587)"><path class="g" d="M425.787,138.667a.408.408,0,0,1-.3-.679l4.23-4.752-4.209-4.213a.408.408,0,0,1,.577-.577l4.481,4.485a.408.408,0,0,1,.016.56l-4.485,5.04A.41.41,0,0,1,425.787,138.667Z" transform="translate(-425.379 -128.326)"/></g><g transform="translate(185.547 1.905)"><path class="g" d="M450.8,304.379c-.118,0-.212-48.648-.212-108.645,0-60.018.095-108.656.212-108.656s.213,48.639.213,108.656C451.011,255.731,450.916,304.379,450.8,304.379Z" transform="translate(-450.586 -87.078)"/></g><g transform="translate(186.928 45.309)"><path class="g" d="M548.466,140.443c0,.118-21.535.213-48.092.213s-48.1-.1-48.1-.213,21.53-.212,48.1-.212S548.466,140.327,548.466,140.443Z" transform="translate(-452.277 -140.231)"/></g><g transform="translate(62.403 39.627)"><path class="g" d="M374.718,133.485c0,.118-16.777.212-37.467.212s-37.47-.095-37.47-.212,16.773-.212,37.47-.212S374.718,133.368,374.718,133.485Z" transform="translate(-299.781 -133.273)"/></g><rect class="j" width="283.997" height="22.419"/><g transform="translate(131.147 8.807)"><path class="d" d="M383.966,97.9a2.491,2.491,0,0,1,4.289-1.6l-.552.519a1.618,1.618,0,0,0-1.231-.539,1.618,1.618,0,1,0,0,3.236,1.6,1.6,0,0,0,1.231-.545l.552.526a2.491,2.491,0,0,1-4.289-1.6Z" transform="translate(-383.966 -95.53)"/><path class="d" d="M392.943,99.15h-2.3l-.455,1.066H389.3l2.072-4.6h.843l2.078,4.6H393.4Zm-.283-.671-.869-2.013-.861,2.013Z" transform="translate(-384.945 -95.545)"/><path class="d" d="M396.132,95.611h.856v3.881H399.4v.723h-3.264Z" transform="translate(-386.198 -95.545)"/><path class="d" d="M404.41,99.5v.717h-3.453v-4.6h3.361v.717h-2.506v1.2h2.223v.7h-2.223V99.5Z" transform="translate(-387.083 -95.545)"/><path class="d" d="M410.444,95.611v4.6h-.7L407.2,97.1v3.118h-.849v-4.6h.7l2.54,3.119V95.611Z" transform="translate(-388.072 -95.545)"/><path class="d" d="M412.875,95.611h2.012a2.311,2.311,0,1,1,0,4.6h-2.012Zm1.973,3.881a1.583,1.583,0,1,0,0-3.158h-1.119v3.158Z" transform="translate(-389.269 -95.545)"/><path class="d" d="M422.285,99.15h-2.3l-.455,1.066h-.881l2.072-4.6h.842l2.078,4.6h-.894ZM422,98.479l-.868-2.013-.862,2.013Z" transform="translate(-390.327 -95.545)"/><path class="d" d="M428.489,100.216l-.941-1.348a1.6,1.6,0,0,1-.177.007h-1.039v1.342h-.855v-4.6h1.894c1.211,0,1.961.618,1.961,1.638a1.473,1.473,0,0,1-.98,1.454l1.059,1.513Zm-1.158-3.881h-1V98.17h1c.75,0,1.137-.343,1.137-.921S428.081,96.334,427.331,96.334Z" transform="translate(-391.58 -95.545)"/></g><g transform="translate(11.455 9.297)"><path class="d" d="M241.212,98.042A1.912,1.912,0,1,1,239.3,96.13,1.912,1.912,0,0,1,241.212,98.042Z" transform="translate(-237.389 -96.13)"/><g transform="translate(5.201)"><path class="d" d="M247.582,98.042a1.912,1.912,0,1,1-1.912-1.912A1.911,1.911,0,0,1,247.582,98.042Z" transform="translate(-243.758 -96.13)"/></g><g transform="translate(10.56)"><path class="d" d="M254.144,98.042a1.912,1.912,0,1,1-1.912-1.912A1.912,1.912,0,0,1,254.144,98.042Z" transform="translate(-250.321 -96.13)"/></g></g><g transform="translate(214.163 34.788)"><path class="g" d="M527.348,127.56c0,.118-9.34.212-20.858.212s-20.86-.095-20.86-.212,9.338-.213,20.86-.213S527.348,127.443,527.348,127.56Z" transform="translate(-485.63 -127.347)"/></g><g transform="translate(192.267 67.482)"><path class="g" d="M468.791,167.6a58.691,58.691,0,0,1-9.975,0,58.469,58.469,0,0,1,9.975,0Z" transform="translate(-458.816 -167.384)"/></g><g transform="translate(208.75 53.928)"><rect class="j" width="71.101" height="47.161" rx="5.879"/></g><g transform="translate(217.001 64.205)"><path class="d" d="M513.276,163.583c0,.118-5.411.213-12.085.213s-12.086-.1-12.086-.213,5.41-.212,12.086-.212S513.276,163.467,513.276,163.583Z" transform="translate(-489.105 -163.371)"/></g><g transform="translate(217.357 68.466)"><path class="d" d="M504.982,168.8a140.475,140.475,0,0,1-15.441,0,139.943,139.943,0,0,1,15.441,0Z" transform="translate(-489.541 -168.59)"/></g><g transform="translate(265.688 60.575)"><path class="d" d="M557.081,167.639l-1.129-1.3v-3.108a3.036,3.036,0,0,0-2.581-3v-1.311h-.819v1.3a3.034,3.034,0,0,0-2.687,3.008l0,2.958-1.137,1.449h3.1a1.276,1.276,0,0,0,2.061.494,1.264,1.264,0,0,0,.32-.495Z" transform="translate(-548.728 -158.926)"/></g><g transform="translate(188.68 107.255)"><rect class="a" width="17.15" height="31.482" rx="3.782"/></g><g transform="translate(192.788 112.223)"><path class="g" d="M461.785,222.175v5.87h-1.09V223.09h-1.24v-.915Z" transform="translate(-459.454 -222.175)"/><path class="g" d="M468.132,222.175v.73l-2.281,5.14h-1.166l2.206-4.948h-2.306v1H463.57v-1.921Z" transform="translate(-460.209 -222.175)"/></g><g transform="translate(192.267 120.81)"><path class="g" d="M468.791,232.9a58.465,58.465,0,0,1-9.975,0,58.691,58.691,0,0,1,9.975,0Z" transform="translate(-458.816 -232.691)"/></g><g transform="translate(208.75 107.255)"><rect class="h" width="71.101" height="29.706" rx="5.879"/></g><g transform="translate(217.001 117.533)"><path class="d" d="M513.276,228.89c0,.118-5.411.212-12.085.212s-12.086-.095-12.086-.212,5.41-.212,12.086-.212S513.276,228.773,513.276,228.89Z" transform="translate(-489.105 -228.678)"/></g><g transform="translate(217.357 121.795)"><path class="d" d="M504.982,234.109a139.933,139.933,0,0,1-15.441,0,140.475,140.475,0,0,1,15.441,0Z" transform="translate(-489.541 -233.897)"/></g><g transform="translate(265.688 114.925)"><path class="d" d="M557.081,234.2l-1.129-1.3v-3.108a3.036,3.036,0,0,0-2.581-3v-1.311h-.819v1.3a3.034,3.034,0,0,0-2.687,3.008l0,2.958-1.137,1.449h3.1a1.276,1.276,0,0,0,2.061.494,1.264,1.264,0,0,0,.32-.495Z" transform="translate(-548.728 -225.484)"/></g><g transform="translate(188.68 141.923)"><rect class="a" width="17.15" height="65.774" rx="3.782"/></g><g transform="translate(192.788 146.807)"><path class="g" d="M464.007,269.559v.923H459.68v-.73l2.331-2.214c.57-.545.671-.889.671-1.216,0-.536-.369-.847-1.09-.847a1.658,1.658,0,0,0-1.376.612l-.763-.587a2.708,2.708,0,0,1,2.23-.973c1.275,0,2.1.646,2.1,1.685a2.356,2.356,0,0,1-.973,1.854l-1.568,1.492Z" transform="translate(-459.454 -264.528)"/><path class="g" d="M470.554,268.8c0,1.09-.948,1.77-2.406,1.77s-2.39-.679-2.39-1.77a1.474,1.474,0,0,1,.939-1.4,1.339,1.339,0,0,1-.729-1.232c0-1.006.88-1.635,2.18-1.635s2.2.629,2.2,1.635a1.341,1.341,0,0,1-.746,1.232A1.477,1.477,0,0,1,470.554,268.8Zm-1.1-.033c0-.578-.5-.938-1.308-.938s-1.292.36-1.292.938c0,.6.487.948,1.292.948S469.455,269.358,469.455,268.762Zm-2.415-2.549c0,.5.418.821,1.106.821s1.124-.319,1.124-.821c0-.528-.453-.83-1.124-.83S467.041,265.685,467.041,266.213Z" transform="translate(-460.61 -264.528)"/></g><g transform="translate(192.267 155.478)"><path class="g" d="M468.791,275.358a58.474,58.474,0,0,1-9.975,0,58.683,58.683,0,0,1,9.975,0Z" transform="translate(-458.816 -275.146)"/></g><g transform="translate(208.75 141.923)"><rect class="j" width="71.101" height="65.774" rx="5.879"/></g><g transform="translate(217.001 152.201)"><g transform="translate(0 0)"><path class="d" d="M513.276,271.345c0,.118-5.411.212-12.085.212s-12.086-.095-12.086-.212,5.41-.212,12.086-.212S513.276,271.228,513.276,271.345Z" transform="translate(-489.105 -271.133)"/></g></g><g transform="translate(217.357 156.462)"><g transform="translate(0 0)"><path class="d" d="M504.982,276.564a140.475,140.475,0,0,1-15.441,0,140.455,140.455,0,0,1,15.441,0Z" transform="translate(-489.541 -276.352)"/></g></g><g transform="translate(265.688 149.592)"><path class="d" d="M557.081,276.652l-1.129-1.3v-3.108a3.036,3.036,0,0,0-2.581-3v-1.311h-.819v1.3a3.034,3.034,0,0,0-2.687,3.008l0,2.958-1.137,1.449h3.1a1.276,1.276,0,0,0,2.061.494,1.264,1.264,0,0,0,.32-.495Z" transform="translate(-548.728 -267.939)"/></g><g transform="translate(218.651 184.5)"><path class="d" d="M542.838,310.9c0,.117-11.577.212-25.855.212s-25.857-.1-25.857-.212,11.574-.213,25.857-.213S542.838,310.783,542.838,310.9Z" transform="translate(-491.126 -310.687)"/></g><g transform="translate(218.651 195.647)"><path class="d" d="M512.558,324.55c0,.118-4.8.213-10.715.213s-10.717-.1-10.717-.213,4.8-.212,10.717-.212S512.558,324.433,512.558,324.55Z" transform="translate(-491.126 -324.338)"/></g><g transform="translate(218.651 189.784)"><path class="d" d="M542.838,317.371c0,.118-11.577.212-25.855.212s-25.857-.095-25.857-.212,11.574-.213,25.857-.213S542.838,317.254,542.838,317.371Z" transform="translate(-491.126 -317.158)"/></g></g></g></g><g transform="translate(462.018 258.293)"><g transform="translate(0 0)"><g transform="translate(42.882)"><g transform="translate(1.209 42.379)"><path class="g" d="M612.849,364.643c-.078.1-.722-.292-1.439-.866s-1.237-1.118-1.159-1.214.721.291,1.439.866S612.925,364.546,612.849,364.643Z" transform="translate(-610.243 -362.548)"/></g><g transform="translate(2.331 1.425)"><path class="h" d="M632.673,326.188a22.637,22.637,0,0,0-.667-8.133c-.863-2.6-2.865-4.984-5.544-5.539-3.058-.634-6.191,1.3-7.9,3.907s-2.3,5.781-2.808,8.861a312.924,312.924,0,0,0-3.836,64.321l12.512,1.755C629.921,368.908,631.674,349.282,632.673,326.188Z" transform="translate(-611.616 -312.395)"/></g><g transform="translate(6.237 1.449)"><path class="g" d="M625.6,312.425a.675.675,0,0,1-.056.2c-.056.153-.123.34-.207.568q-.306.794-.834,2.161c-.175.471-.407.981-.593,1.564s-.39,1.217-.608,1.9-.453,1.407-.7,2.175l-.646,2.482a108.87,108.87,0,0,0-2.416,12.383c-.677,4.705-1.121,9.917-1.471,15.392-.639,10.963-.74,20.914-1.022,28.11-.134,3.6-.257,6.51-.394,8.519-.066.975-.118,1.747-.157,2.313-.021.242-.038.439-.052.6a.7.7,0,0,1-.034.2.753.753,0,0,1-.012-.207c0-.163,0-.361.007-.6q.027-.85.074-2.317c.084-2.011.159-4.923.252-8.521.2-7.195.251-17.146.892-28.127.349-5.485.807-10.708,1.508-15.424a103.661,103.661,0,0,1,2.519-12.405l.679-2.481q.389-1.151.737-2.174l.644-1.889c.2-.58.443-1.087.631-1.555q.577-1.349.913-2.134l.247-.55A.723.723,0,0,1,625.6,312.425Z" transform="translate(-616.4 -312.425)"/></g><g transform="translate(13.668 1.457)"><path class="g" d="M628.431,312.434a8.934,8.934,0,0,1,1.529,2.589,19.153,19.153,0,0,1,1.141,8.094c-.332,6.914-.951,16.44-1.774,26.959s-1.744,20.031-2.482,26.9c-.369,3.438-.689,6.217-.924,8.136q-.179,1.394-.284,2.208c-.033.229-.061.418-.085.573a.625.625,0,0,1-.044.194.7.7,0,0,1,0-.2l.041-.578q.074-.817.2-2.217c.189-1.965.456-4.739.783-8.149.657-6.88,1.524-16.391,2.352-26.908s1.491-20.043,1.9-26.935a19.565,19.565,0,0,0-.986-8.019A16.73,16.73,0,0,0,628.431,312.434Z" transform="translate(-625.5 -312.434)"/></g><g transform="translate(20.681 32.166)"><path class="g" d="M638.681,351.715a13.4,13.4,0,0,1-4.592-1.648,13.416,13.416,0,0,1,4.592,1.648Z" transform="translate(-634.087 -350.04)"/></g><g transform="translate(22.085 21.068)"><path class="g" d="M640.5,336.471a14.886,14.886,0,0,1-4.694,2.1,14.888,14.888,0,0,1,4.694-2.1Z" transform="translate(-635.808 -336.451)"/></g><g transform="translate(22.3 10.296)"><path class="g" d="M639.771,323.643a7.791,7.791,0,0,1-3.7-.256,7.82,7.82,0,0,1,3.7.256Z" transform="translate(-636.071 -323.258)"/></g><g transform="translate(11.002 0.719)"><path class="g" d="M624.32,314.823c-.1.065-.652-.617-1.223-1.525s-.95-1.7-.845-1.763.652.617,1.223,1.525S624.425,314.757,624.32,314.823Z" transform="translate(-622.235 -311.531)"/></g><g transform="translate(5.276 10.04)"><path class="g" d="M618.768,323.21a7.146,7.146,0,0,1-3.545-.076,7.147,7.147,0,0,1,3.545.076Z" transform="translate(-615.223 -322.945)"/></g><g transform="translate(2.183 21.426)"><path class="g" d="M615.01,338.36a4.339,4.339,0,0,1-1.87-.514c-.987-.4-1.749-.813-1.7-.928a4.345,4.345,0,0,1,1.871.514C614.294,337.83,615.056,338.245,615.01,338.36Z" transform="translate(-611.435 -336.889)"/></g><g transform="translate(2.154 33.423)"><path class="g" d="M614.676,351.644c.025.121-.688.372-1.592.563s-1.658.245-1.684.124.688-.372,1.592-.562S614.651,351.523,614.676,351.644Z" transform="translate(-611.399 -351.58)"/></g><g transform="translate(0.53 50.738)"><path class="g" d="M612.87,372.855c.022.122-.735.358-1.69.53a3.637,3.637,0,0,1-1.769.09c-.022-.122.735-.358,1.69-.53A3.638,3.638,0,0,1,612.87,372.855Z" transform="translate(-609.41 -372.785)"/></g><g transform="translate(0 60.346)"><path class="g" d="M611.793,384.575c.058.109-.573.556-1.409,1s-1.56.712-1.618.6.573-.555,1.409-1S611.736,384.466,611.793,384.575Z" transform="translate(-608.762 -384.551)"/></g><g transform="translate(8.753 67.607)"><path class="g" d="M621.567,397.059c-.107.061-.657-.7-1.228-1.7a5.039,5.039,0,0,1-.84-1.917c.107-.061.657.7,1.228,1.7A5.022,5.022,0,0,1,621.567,397.059Z" transform="translate(-619.481 -393.443)"/></g><g transform="translate(10.035 53.179)"><path class="g" d="M624.108,375.783c.087.088-.526.829-1.368,1.654s-1.595,1.423-1.681,1.335.526-.828,1.369-1.654S624.022,375.695,624.108,375.783Z" transform="translate(-621.051 -375.774)"/></g><g transform="translate(10.372 41.329)"><path class="g" d="M623.686,363.658c-.091.084-.659-.382-1.27-1.041s-1.031-1.261-.941-1.345.658.382,1.269,1.041S623.776,363.574,623.686,363.658Z" transform="translate(-621.463 -361.262)"/></g><g transform="translate(11.519 31.626)"><path class="g" d="M625.492,349.387c.092.082-.418.8-1.14,1.608s-1.382,1.391-1.473,1.309.418-.8,1.14-1.608S625.4,349.3,625.492,349.387Z" transform="translate(-622.868 -349.38)"/></g><g transform="translate(12.137 20.03)"><path class="g" d="M626.5,338.007c-.086.088-.8-.471-1.591-1.25s-1.364-1.48-1.278-1.569.8.471,1.592,1.25S626.589,337.919,626.5,338.007Z" transform="translate(-623.625 -335.179)"/></g><g transform="translate(14.727 10.992)"><path class="g" d="M628.8,324.115a4.378,4.378,0,0,1-.8,1.776c-.548.918-1.077,1.609-1.183,1.547a4.373,4.373,0,0,1,.8-1.776C628.162,324.745,628.692,324.052,628.8,324.115Z" transform="translate(-626.797 -324.111)"/></g><g transform="translate(18.122)"><path class="g" d="M632.782,310.653a4.224,4.224,0,0,1-.706,1.778c-.5.924-.991,1.624-1.1,1.565a4.228,4.228,0,0,1,.706-1.778C632.181,311.3,632.674,310.594,632.782,310.653Z" transform="translate(-630.955 -310.65)"/></g><g transform="translate(21.174 4.962)"><path class="g" d="M637.124,316.761c.053.111-.448.461-1.118.782s-1.258.491-1.311.38.448-.462,1.119-.783S637.071,316.649,637.124,316.761Z" transform="translate(-634.691 -316.727)"/></g><g transform="translate(19.122 42.511)"><path class="g" d="M636.751,364.673a7.638,7.638,0,0,1-4.569-1.949,97.621,97.621,0,0,1,4.569,1.949Z" transform="translate(-632.179 -362.71)"/></g><g transform="translate(18.748 52.77)"><path class="g" d="M635.173,375.339c.024.122-.73.369-1.683.553a3.638,3.638,0,0,1-1.768.113c-.023-.121.73-.368,1.684-.552A3.652,3.652,0,0,1,635.173,375.339Z" transform="translate(-631.721 -375.274)"/></g><g transform="translate(17.247 63.261)"><path class="g" d="M633,392.032a7.085,7.085,0,0,1-3.1-3.909,468.731,468.731,0,0,0,3.1,3.909Z" transform="translate(-629.883 -388.121)"/></g><g transform="translate(0.243 71.526)"><path class="g" d="M609.067,400.446c-.08-.094.429-.661,1.136-1.265s1.346-1.019,1.426-.926-.428.661-1.135,1.266S609.148,400.54,609.067,400.446Z" transform="translate(-609.059 -398.242)"/></g></g><g transform="translate(27.566 36.892)"><path class="h" d="M599.791,361.375c-.814-2.544-2.343-5.508-5.013-5.546a4.438,4.438,0,0,0-3.754,2.513,9.266,9.266,0,0,0-1.014,4.6,119.915,119.915,0,0,0,5.738,33.327h9.77A116.082,116.082,0,0,0,599.791,361.375Z" transform="translate(-590.006 -355.829)"/></g><g transform="translate(2.896 17.745)"><path class="h" d="M576.581,341.066a10.859,10.859,0,0,0-10.171-8.685c-4.318.757-5.993,5.008-6.506,9.362s.839,8.688,2.175,12.864l12.859,40.221,12.154-1.327C583.246,375.538,581.036,358.888,576.581,341.066Z" transform="translate(-559.794 -332.381)"/></g><g transform="translate(30.704 36.892)"><path class="g" d="M595.483,355.829a10.461,10.461,0,0,0-.827,1.382,9.106,9.106,0,0,0-.457,4.32c.189,1.856.4,4.094.713,6.543s.761,5.143,1.31,7.949c1.1,5.613,2.348,10.649,3.139,14.32.4,1.834.7,3.324.893,4.356.082.475.149.869.2,1.192a1.562,1.562,0,0,1,.042.422,1.513,1.513,0,0,1-.13-.4c-.078-.319-.172-.706-.286-1.175-.26-1.088-.608-2.548-1.031-4.321-.869-3.65-2.161-8.675-3.27-14.3-.55-2.814-.982-5.515-1.28-7.984-.155-1.233-.258-2.411-.358-3.511s-.209-2.118-.26-3.061a8.866,8.866,0,0,1,.614-4.414A3.876,3.876,0,0,1,595.483,355.829Z" transform="translate(-593.848 -355.829)"/></g><g transform="translate(6.007 17.399)"><path class="g" d="M567.286,331.957a16.216,16.216,0,0,0-1.469,1.974,13.889,13.889,0,0,0-1.85,6.359,29.406,29.406,0,0,0,1.5,9.784c1.068,3.618,2.239,7.586,3.468,11.753,2.424,8.331,4.617,15.869,6.221,21.382L577,389.7l.478,1.772a3.409,3.409,0,0,1,.137.626,3.5,3.5,0,0,1-.224-.6c-.141-.441-.327-1.022-.558-1.748l-1.973-6.454-6.346-21.345c-1.218-4.172-2.378-8.145-3.435-11.767a29.07,29.07,0,0,1-1.422-9.917,13.634,13.634,0,0,1,2.018-6.431A7.488,7.488,0,0,1,567.286,331.957Z" transform="translate(-563.604 -331.957)"/></g><g transform="translate(8.87 17.645)"><path class="g" d="M585.784,392.179a3.387,3.387,0,0,1-.274-.582c-.16-.389-.418-.957-.692-1.71-.58-1.494-1.322-3.693-2.09-6.454s-1.531-6.088-2.265-9.8c-.7-3.721-1.477-7.8-2.289-12.089-.845-4.279-1.786-8.327-2.878-11.94a66.413,66.413,0,0,0-3.543-9.365,49.741,49.741,0,0,0-3.276-5.9c-.418-.681-.8-1.173-1.024-1.528a3.506,3.506,0,0,1-.341-.547,3.363,3.363,0,0,1,.413.493c.25.34.654.816,1.1,1.485a44.285,44.285,0,0,1,3.417,5.864,63.572,63.572,0,0,1,3.653,9.382,120.07,120.07,0,0,1,2.923,11.973c.8,4.289,1.56,8.374,2.254,12.1.71,3.711,1.436,7.036,2.166,9.8s1.421,4.969,1.948,6.477c.248.759.48,1.336.613,1.735A3.492,3.492,0,0,1,585.784,392.179Z" transform="translate(-567.11 -332.259)"/></g><g transform="translate(2.339 37.905)"><path class="g" d="M562.172,357.128c.029.12-.632.384-1.476.589s-1.553.274-1.583.154.632-.383,1.477-.589S562.142,357.008,562.172,357.128Z" transform="translate(-559.112 -357.069)"/></g><g transform="translate(0 29.436)"><path class="g" d="M560.359,346.931a14.99,14.99,0,0,1-4.111.161,7.083,7.083,0,0,1,4.111-.161Z" transform="translate(-556.248 -346.697)"/></g><g transform="translate(2.812 19.824)"><path class="g" d="M562.36,337.2c-.08.094-.741-.335-1.475-.958s-1.265-1.2-1.186-1.3.741.335,1.475.958S562.44,337.1,562.36,337.2Z" transform="translate(-559.691 -334.926)"/></g><g transform="translate(8.809 15.079)"><path class="g" d="M567.414,329.117c.122.029.089.618.07,1.333s-.023,1.306-.148,1.326-.323-.575-.3-1.339S567.3,329.088,567.414,329.117Z" transform="translate(-567.036 -329.116)"/></g><g transform="translate(15.051 18.378)"><path class="g" d="M576.392,333.162c.1.071-.2.67-.663,1.337s-.928,1.152-1.03,1.081.2-.67.664-1.338S576.291,333.091,576.392,333.162Z" transform="translate(-574.68 -333.156)"/></g><g transform="translate(18.698 26.891)"><path class="g" d="M582.128,343.616c.047.114-.583.479-1.405.814s-1.528.515-1.574.4.582-.478,1.405-.814S582.082,343.5,582.128,343.616Z" transform="translate(-579.146 -343.582)"/></g><g transform="translate(20.635 35.686)"><path class="g" d="M585.546,354.38a5.615,5.615,0,0,1-4.028.913,39.838,39.838,0,0,1,4.028-.913Z" transform="translate(-581.518 -354.352)"/></g><g transform="translate(10.916 30.637)"><path class="g" d="M569.668,350.749c-.118-.037-.032-.644.191-1.356s.5-1.259.617-1.222.033.644-.191,1.356S569.787,350.786,569.668,350.749Z" transform="translate(-569.615 -348.169)"/></g><g transform="translate(12.852 40.773)"><path class="g" d="M572.014,364.059a4.2,4.2,0,0,1,.55-1.827c.417-.96.847-1.7.959-1.649a4.2,4.2,0,0,1-.55,1.827C572.557,363.37,572.127,364.108,572.014,364.059Z" transform="translate(-571.986 -360.581)"/></g><g transform="translate(4.752 46.151)"><path class="g" d="M565.475,368.287c-.047.116-.818-.095-1.75-.385s-1.685-.559-1.658-.682a3.3,3.3,0,0,1,1.791.255C564.812,367.773,565.522,368.175,565.475,368.287Z" transform="translate(-562.067 -367.167)"/></g><g transform="translate(8.288 56.248)"><path class="g" d="M568.99,379.551c.072.1-.448.594-1.163,1.1s-1.351.841-1.422.741.449-.6,1.163-1.1S568.919,379.451,568.99,379.551Z" transform="translate(-566.398 -379.533)"/></g><g transform="translate(10.079 65.175)"><path class="g" d="M571.574,390.524c.029.12-.615.38-1.438.58s-1.515.265-1.544.145.615-.379,1.439-.58S571.545,390.4,571.574,390.524Z" transform="translate(-568.591 -390.464)"/></g><g transform="translate(22.086 43.18)"><path class="g" d="M586.112,363.555c.062.1-.488.543-1.291.844s-1.5.336-1.526.218.608-.347,1.369-.636S586.048,363.447,586.112,363.555Z" transform="translate(-583.294 -363.529)"/></g><g transform="translate(23.851 55.838)"><path class="g" d="M588.2,380.351c-.053.112-.709-.087-1.466-.443s-1.328-.735-1.275-.847.709.087,1.466.443S588.253,380.24,588.2,380.351Z" transform="translate(-585.457 -379.031)"/></g><g transform="translate(25.873 65.661)"><path class="g" d="M591.641,392.542a4.617,4.617,0,0,1-1.935-.518c-1.024-.4-1.818-.82-1.772-.935a4.613,4.613,0,0,1,1.935.519C590.893,392.009,591.686,392.427,591.641,392.542Z" transform="translate(-587.933 -391.06)"/></g><g transform="translate(13.537 72.298)"><path class="g" d="M572.829,401.856c-.06-.113.737-.648,1.657-1.375s1.634-1.37,1.729-1.285-.493.886-1.453,1.636A4,4,0,0,1,572.829,401.856Z" transform="translate(-572.826 -399.188)"/></g><g transform="translate(20.294 66.978)"><path class="g" d="M582.243,395.583c-.127.015-.3-.656-.6-1.436s-.622-1.394-.518-1.468.612.463.935,1.307S582.361,395.574,582.243,395.583Z" transform="translate(-581.101 -392.673)"/></g><g transform="translate(17.317 56.41)"><path class="g" d="M579.48,381.2c-.072.1-.581-.142-1.138-.542s-.951-.805-.879-.906.582.142,1.139.542S579.553,381.1,579.48,381.2Z" transform="translate(-577.455 -379.73)"/></g><g transform="translate(35.254 39.044)"><path class="g" d="M601.912,358.482c.073.1-.424.59-1.11,1.1s-1.3.835-1.374.737.423-.59,1.11-1.1S601.839,358.382,601.912,358.482Z" transform="translate(-599.421 -358.464)"/></g><g transform="translate(37.138 46.229)"><path class="g" d="M605.109,367.679c.011.119-.767.283-1.729.177s-1.688-.428-1.651-.542.783,0,1.7.1S605.1,367.552,605.109,367.679Z" transform="translate(-601.728 -367.263)"/></g><g transform="translate(25.306 48.271)"><path class="g" d="M590.53,369.837c.027.118-.693.376-1.624.436s-1.678-.1-1.667-.217.744-.167,1.638-.229S590.5,369.713,590.53,369.837Z" transform="translate(-587.238 -369.763)"/></g><g transform="translate(26.906 39.917)"><path class="g" d="M591.913,360.792c-.009.118-.737.138-1.533-.231s-1.258-.928-1.173-1.013.634.278,1.36.607S591.929,360.666,591.913,360.792Z" transform="translate(-589.197 -359.534)"/></g><g transform="translate(38.447 52.82)"><path class="g" d="M606.427,377.3c-.066.105-.811-.246-1.664-.783s-1.493-1.057-1.427-1.162.811.247,1.664.784S606.492,377.194,606.427,377.3Z" transform="translate(-603.331 -375.334)"/></g><g transform="translate(6.512 76.061)"><g transform="translate(0.515)"><rect class="k" width="63.605" height="11.274"/></g><g transform="translate(5.265 9.037)"><path class="k" d="M570.67,414.863l7.734,33.688h37.909l8.462-33.688Z" transform="translate(-570.67 -414.863)"/></g><g transform="translate(0 11.064)"><path class="g" d="M628.308,417.569c0,.124-14.347.224-32.041.224s-32.044-.1-32.044-.224,14.344-.224,32.044-.224S628.308,417.445,628.308,417.569Z" transform="translate(-564.223 -417.345)"/></g></g><g transform="translate(33.639 46.085)"><path class="g" d="M599.028,369.592c-.1.065-.539-.441-.97-1.132s-.7-1.3-.592-1.369.539.442.971,1.132S599.133,369.527,599.028,369.592Z" transform="translate(-597.443 -367.086)"/></g><g transform="translate(35.208 54.377)"><path class="g" d="M599.4,380.525c-.118-.039.032-.806.333-1.712s.639-1.609.757-1.57-.032.805-.333,1.712S599.521,380.564,599.4,380.525Z" transform="translate(-599.364 -377.241)"/></g><g transform="translate(36.609 63.587)"><path class="g" d="M602.823,392.115c-.112.054-.587-.708-1.062-1.7a4.629,4.629,0,0,1-.658-1.893c.111-.053.586.708,1.062,1.7A4.643,4.643,0,0,1,602.823,392.115Z" transform="translate(-601.08 -388.52)"/></g><g transform="translate(31.62 72.492)"><path class="g" d="M594.985,401.777c-.093-.081.287-.67.848-1.317s1.093-1.106,1.186-1.025-.287.67-.848,1.317S595.078,401.858,594.985,401.777Z" transform="translate(-594.971 -399.426)"/></g><g transform="translate(27.567 60.378)"><path class="g" d="M592.664,385.146c-.021.122-.633.115-1.367-.014s-1.311-.333-1.289-.455.634-.115,1.368.015S592.686,385.025,592.664,385.146Z" transform="translate(-590.007 -384.59)"/></g></g></g><g transform="translate(54.144 376.866)"><path class="g" d="M573.232,456.07c0,.118-115.626.213-258.226.213-142.65,0-258.251-.1-258.251-.213s115.6-.212,258.251-.212C457.605,455.858,573.232,455.954,573.232,456.07Z" transform="translate(-56.755 -455.858)"/></g></g><g transform="translate(150.426 298)"><g transform="translate(0 0)"><path class="l" d="M1270.048,1248.211c-.267-2.48-7.124-4.477-9.14-5.073s-.709-.111-2.946.608c-.273.087-7.047,10.415-7.047,10.415-2.138,3.365-21.735,33.316-28.337,37.863-6.742,4.644-33.612,12.745-33.612,12.745l-1.228,17.151s37.1-12.715,45.036-19.532c6.575-5.645,19.682-32.828,25.932-42.846l.008,0C1260.339,1257.449,1270.314,1250.692,1270.048,1248.211Z" transform="translate(-1129.043 -1193.363)"/><path class="m" d="M1191.987,1178.872l-45.535,57.649-.039.05a2.482,2.482,0,1,1-3.895-3.077c.019-.024.045-.056.065-.079l47.922-55.733.016-.018a.95.95,0,0,1,1.465,1.208Z" transform="translate(-1016.617 -1177.334)"/><path class="n" d="M1202.485,1245.12l-6.3,7.98-.039.05a2.483,2.483,0,0,1-3.288.551,2.482,2.482,0,0,0,4.037.2l.04-.051,6.56-8.306C1203.16,1245.395,1202.823,1245.254,1202.485,1245.12Z" transform="translate(-1066.346 -1193.913)"/><path class="l" d="M1188.277,1240.419s6.735,5.969,5.041,8.467c-1.872,2.76-4.262,4.247-4.391,3.418s1.445-4.854,1.445-4.854a18.634,18.634,0,0,1-2.549-4.156C1187.406,1241.835,1187.094,1240.329,1188.277,1240.419Z" transform="translate(-1052.364 -1192.762)"/><path class="l" d="M1200.422,1243.48s-4.236,1.824-4.477,1.3.631-1.759.631-1.759,5.7-4.33,5.91-2.777S1200.422,1243.48,1200.422,1243.48Z" transform="translate(-1067.656 -1192.638)"/><path class="l" d="M1190.382,1242.238s-3.661-4.153-3.805-2.767c-.173,1.672,2.883,6.513,4.38,6.513S1192.456,1244.544,1190.382,1242.238Z" transform="translate(-1050.125 -1192.462)"/><path class="o" d="M1202.146,1307.178s30.537-9.822,36.014-12.441,27.62-35.24,27.62-35.24l12.143,6.191s-27.085,44.049-28.275,45.955l-37.546,18.17Z" transform="translate(-1147.797 -1197.429)"/><path class="l" d="M1298.547,1605.152s-1.573,9.151-2.41,10.634,6.111,9.634,9.9,8.31c2.137-.746,2.5-7.461,2.5-7.461l-1.547-1.9,2.139-8.007Z" transform="translate(-1249.954 -1281.969)"/><path class="p" d="M1276.879,1618.731a61.272,61.272,0,0,0,6.512.976,51.333,51.333,0,0,0,5.756-.166s5.531,2.077,7.3,2.943c3.931,1.926,8.613,4.321,9.864,6.213.4.608.36,2.661-1.116,3.052-5.7,1.506-25.712,1.2-29.392-.308C1271.555,1629.7,1276.879,1618.731,1276.879,1618.731Z" transform="translate(-1230.797 -1285.29)"/><path class="l" d="M1345.118,1605.152s-1.574,9.151-2.41,10.634,6.111,9.634,9.9,8.31c2.137-.746,2.5-7.461,2.5-7.461l-1.549-1.9,2.139-8.007Z" transform="translate(-1331.705 -1281.969)"/><path class="p" d="M1323.751,1618.731a61.289,61.289,0,0,0,6.512.976,51.356,51.356,0,0,0,5.757-.166s5.531,2.077,7.3,2.943c3.931,1.926,8.614,4.321,9.863,6.213.4.608.406,2.937-1.116,3.052-6.34.477-26.1.553-29.782-.951C1318.037,1629.063,1323.751,1618.731,1323.751,1618.731Z" transform="translate(-1312.849 -1285.29)"/><g transform="translate(10.07 181.363)"><path class="p" d="M1291.372,1417.415l6.921,17.925s4.514,42.776,1.885,68.382c-1.1,10.709-22.644,64.02-22.644,64.02a17.477,17.477,0,0,1-6.786.357c-1.62-.228-6.459-1.071-6.459-1.071l15-64.845-5.829-25.961-8.247-51.316Z" transform="translate(-1227.89 -1417.415)"/><path class="m" d="M1310.48,1418.652l-5.938,19.958-2.559,63.836-21.607,61.134a33.56,33.56,0,0,0,16.25,3.214l23.93-58.158,20.779-73.528-.825-15.84Z" transform="translate(-1280.377 -1417.718)"/></g><path class="i" d="M1290.994,1321.639s-8.921,1.24-11.269,2.965c-2.644,1.941-10.834,11-10.834,11s17.045,48.824,16.386,57.511-2.53,21.553-2.53,21.553,33.1,2.089,45.635-2.859c0,0-3.958-19.684-3.958-24.853s-5.819-56.119-7.4-58.825-10.072-6.722-11.76-6.818A120.151,120.151,0,0,0,1290.994,1321.639Z" transform="translate(-1248.677 -1212.523)"/><path class="o" d="M1289.042,1452.991c.212-1.039-8.5-49.864-8.643-51.611-1.417-17.351-6.221-70.53-12.322-77.86a9.324,9.324,0,0,0-4.542-1.495c-3.345-.409-6.812-.693-6.812-.693a44.915,44.915,0,0,1,5.141,4.808c4.546,6.431,6.4,13.891,7.407,21.842,2.91,23.059,5.557,107.146,6.59,107.518C1277.016,1455.918,1288.572,1455.293,1289.042,1452.991Z" transform="translate(-1200.149 -1212.553)"/><path class="p" d="M1311.6,1262.2s-6.057-4.1-8.619,3.078a13.283,13.283,0,0,0-2.431.063c-1.246.422-2.45,1.719-3.56,2.43-3.956,2.532-5.78,7.453-5.995,11.971-.262,5.484,2,9.495,5.611,13.454a13.93,13.93,0,0,0,3.59,3.052c1.678.9,3.005.186,4.584.568,1.328.321,1.794,1.724,3.361,1.219,2.2-.709,4.5-3.459,7.226-3.053s9-2.04,9.016-2.047c8.069-3.146,2.621-18.762,1.074-24.3C1324.005,1263.417,1316.594,1260.311,1311.6,1262.2Z" transform="translate(-1265.674 -1197.804)"/><path class="l" d="M1312.441,1306.7l2.1,5.718,1.129,3.2s.079,5.72-1.255,7.2c-2.3,2.551-11.737-6.9-11.737-6.9l-2.99-17.987Z" transform="translate(-1259.222 -1206.828)"/><path class="n" d="M1302.122,1303.756a20.661,20.661,0,0,0,13.9,8.717l-2.116-5.772-12.758-8.773Z" transform="translate(-1260.691 -1206.828)"/><path class="l" d="M1301.931,1273.045a9.033,9.033,0,0,1,13.1,4.48,68.3,68.3,0,0,1,2.586,8.31c1.842,7.677-.49,16.062-3.992,16.834s-14.277-2.08-17.045-12.947C1294.87,1283.013,1296.886,1276.13,1301.931,1273.045Z" transform="translate(-1259.019 -1200.422)"/><path class="l" d="M1326.022,1295.1a2.631,2.631,0,1,1-3.2-2.522A2.91,2.91,0,0,1,1326.022,1295.1Z" transform="translate(-1285.694 -1205.508)"/><path class="o" d="M1327.778,1321.667s-14.626,1.5-18.364,3.959c-2.377,1.562-.517,18.976-.517,18.976s3.364,26.306,2.9,39.6q-.067,1.93-.19,3.787c-1.306,20-12,67.892-11.065,68.738,6.021,3.359,38.878,3.225,39.259.565C1343.013,1434.788,1327.778,1321.667,1327.778,1321.667Z" transform="translate(-1284.404 -1212.634)"/><path class="m" d="M1312.117,1401.558q-.01.551-.029,1.075-.067,1.9-.187,3.725l20.009-9.32Z" transform="translate(-1284.697 -1231.069)"/><path class="q" d="M1341.93,1375.408a20.689,20.689,0,0,0-2.547,1.363,17.062,17.062,0,0,1-2.458,1.141,22.41,22.41,0,0,1-2.54,1.159c.007-.1-.38-.159.356-.667.885-.611,3.047-1.506,4.281-2.5.7-.565,2.233-1.659,2.233-1.659a18,18,0,0,0,1.936-2.226c-.433-.833-2.2.21-3.056,1.1a13.838,13.838,0,0,0-2.411,1.492s-3.727,1.724-3.968,1.214c-.1-.218,2.064-1.541,3.989-3.163,1.789-1.506,3.353-3.308,3.115-3.694-.4-.655-2.565.813-2.565.813s-1.459,1.107-1.971,1.438c-.6.388-2.485,1.419-2.485,1.419s-6.722,3.291-6.906,2.787a3.474,3.474,0,0,1,.215-2.342,12.479,12.479,0,0,1,1.663-1c.54-.345,1.372-1.22.987-1.663s-3.555.738-3.555.738a8.278,8.278,0,0,0-2.717,2.013c-2.916,3.985-2.142,4.289-2.531,4.791-.458.593-9.891,4.037-9.891,4.037s-28.323,7.027-29.839,7.533l3.766,11.423c1.744-.244,33.443-12.941,36.658-14.447,0,0,4.469-.416,7.269-.769s5.332-1.913,6.108-2.131a25.922,25.922,0,0,0,5.528-2.8c2.47-1.632-.6-1.181-.6-1.181s-5.106,2.228-5.2,1.8c-.074-.326,2.782-1.382,5.534-3.16.708-.457,1.405-.911,2.042-1.333C1344.04,1375.831,1343.857,1374.52,1341.93,1375.408Z" transform="translate(-1273.152 -1224.161)"/><path class="o" d="M1338.162,1326.12s-4.761.654-8.869,6.548-13.165,31.3-15.993,41.028c-2.858,9.822-1.407,15.277,5.021,16.884s40.794-10.886,40.794-10.886l-3.214-11.787s-22.769,5.036-23.573,4.644l7.143-12.322S1345.068,1340.286,1338.162,1326.12Z" transform="translate(-1311.902 -1213.724)"/></g><path class="p" d="M1301.885,1300.023s-4.613,1.506-4.99,3.2a6.3,6.3,0,0,0,2.448,6.026c2.26,1.882,7.092.721,8.411-.314s2.323-5.429,1-7.877S1301.885,1300.023,1301.885,1300.023Z" transform="translate(-1250.745 -1207.242)"/><path class="l" d="M1300.348,1304.336s.028,1.889.659,2.228a5.822,5.822,0,0,0,2.1.676,3.012,3.012,0,0,0,2.819-1.28,2.238,2.238,0,0,0,.162-.273,8.415,8.415,0,0,0,.565-2.605,10.209,10.209,0,0,0-3.076-.282A12.876,12.876,0,0,0,1300.348,1304.336Z" transform="translate(-1250.714 -1208.009)"/></g></g></svg>